%TF.GenerationSoftware,KiCad,Pcbnew,(7.0.0-0)*%
%TF.CreationDate,2024-05-06T17:20:06-04:00*%
%TF.ProjectId,BFieldArduino,42466965-6c64-4417-9264-75696e6f2e6b,rev?*%
%TF.SameCoordinates,Original*%
%TF.FileFunction,Drillmap*%
%TF.FilePolarity,Positive*%
%FSLAX45Y45*%
G04 Gerber Fmt 4.5, Leading zero omitted, Abs format (unit mm)*
G04 Created by KiCad (PCBNEW (7.0.0-0)) date 2024-05-06 17:20:06*
%MOMM*%
%LPD*%
G01*
G04 APERTURE LIST*
%ADD10C,0.100000*%
%ADD11C,0.200000*%
%ADD12C,0.300000*%
G04 APERTURE END LIST*
D10*
X7300000Y-1300000D02*
X22300000Y-1300000D01*
X22300000Y-1300000D02*
X22300000Y-16300000D01*
X22300000Y-16300000D02*
X7300000Y-16300000D01*
X7300000Y-16300000D02*
X7300000Y-1300000D01*
D11*
D10*
X20916000Y-5628000D02*
X21016000Y-5728000D01*
X21016000Y-5628000D02*
X20916000Y-5728000D01*
X20916000Y-7128000D02*
X21016000Y-7228000D01*
X21016000Y-7128000D02*
X20916000Y-7228000D01*
D12*
X15624000Y-13473000D02*
G75*
G03*
X15624000Y-13473000I-150000J0D01*
G01*
X17148000Y-8393000D02*
G75*
G03*
X17148000Y-8393000I-150000J0D01*
G01*
X19942000Y-8393000D02*
G75*
G03*
X19942000Y-8393000I-150000J0D01*
G01*
X20450000Y-13600000D02*
G75*
G03*
X20450000Y-13600000I-150000J0D01*
G01*
D11*
X7542619Y-16598476D02*
X7542619Y-16398476D01*
X7542619Y-16398476D02*
X7590238Y-16398476D01*
X7590238Y-16398476D02*
X7618809Y-16408000D01*
X7618809Y-16408000D02*
X7637857Y-16427048D01*
X7637857Y-16427048D02*
X7647381Y-16446095D01*
X7647381Y-16446095D02*
X7656905Y-16484190D01*
X7656905Y-16484190D02*
X7656905Y-16512762D01*
X7656905Y-16512762D02*
X7647381Y-16550857D01*
X7647381Y-16550857D02*
X7637857Y-16569905D01*
X7637857Y-16569905D02*
X7618809Y-16588952D01*
X7618809Y-16588952D02*
X7590238Y-16598476D01*
X7590238Y-16598476D02*
X7542619Y-16598476D01*
X7742619Y-16598476D02*
X7742619Y-16465143D01*
X7742619Y-16503238D02*
X7752143Y-16484190D01*
X7752143Y-16484190D02*
X7761667Y-16474667D01*
X7761667Y-16474667D02*
X7780714Y-16465143D01*
X7780714Y-16465143D02*
X7799762Y-16465143D01*
X7866428Y-16598476D02*
X7866428Y-16465143D01*
X7866428Y-16398476D02*
X7856905Y-16408000D01*
X7856905Y-16408000D02*
X7866428Y-16417524D01*
X7866428Y-16417524D02*
X7875952Y-16408000D01*
X7875952Y-16408000D02*
X7866428Y-16398476D01*
X7866428Y-16398476D02*
X7866428Y-16417524D01*
X7990238Y-16598476D02*
X7971190Y-16588952D01*
X7971190Y-16588952D02*
X7961667Y-16569905D01*
X7961667Y-16569905D02*
X7961667Y-16398476D01*
X8095000Y-16598476D02*
X8075952Y-16588952D01*
X8075952Y-16588952D02*
X8066428Y-16569905D01*
X8066428Y-16569905D02*
X8066428Y-16398476D01*
X8291190Y-16598476D02*
X8291190Y-16398476D01*
X8291190Y-16398476D02*
X8357857Y-16541333D01*
X8357857Y-16541333D02*
X8424524Y-16398476D01*
X8424524Y-16398476D02*
X8424524Y-16598476D01*
X8605476Y-16598476D02*
X8605476Y-16493714D01*
X8605476Y-16493714D02*
X8595952Y-16474667D01*
X8595952Y-16474667D02*
X8576905Y-16465143D01*
X8576905Y-16465143D02*
X8538809Y-16465143D01*
X8538809Y-16465143D02*
X8519762Y-16474667D01*
X8605476Y-16588952D02*
X8586429Y-16598476D01*
X8586429Y-16598476D02*
X8538809Y-16598476D01*
X8538809Y-16598476D02*
X8519762Y-16588952D01*
X8519762Y-16588952D02*
X8510238Y-16569905D01*
X8510238Y-16569905D02*
X8510238Y-16550857D01*
X8510238Y-16550857D02*
X8519762Y-16531809D01*
X8519762Y-16531809D02*
X8538809Y-16522286D01*
X8538809Y-16522286D02*
X8586429Y-16522286D01*
X8586429Y-16522286D02*
X8605476Y-16512762D01*
X8700714Y-16465143D02*
X8700714Y-16665143D01*
X8700714Y-16474667D02*
X8719762Y-16465143D01*
X8719762Y-16465143D02*
X8757857Y-16465143D01*
X8757857Y-16465143D02*
X8776905Y-16474667D01*
X8776905Y-16474667D02*
X8786429Y-16484190D01*
X8786429Y-16484190D02*
X8795952Y-16503238D01*
X8795952Y-16503238D02*
X8795952Y-16560381D01*
X8795952Y-16560381D02*
X8786429Y-16579428D01*
X8786429Y-16579428D02*
X8776905Y-16588952D01*
X8776905Y-16588952D02*
X8757857Y-16598476D01*
X8757857Y-16598476D02*
X8719762Y-16598476D01*
X8719762Y-16598476D02*
X8700714Y-16588952D01*
X8881667Y-16579428D02*
X8891190Y-16588952D01*
X8891190Y-16588952D02*
X8881667Y-16598476D01*
X8881667Y-16598476D02*
X8872143Y-16588952D01*
X8872143Y-16588952D02*
X8881667Y-16579428D01*
X8881667Y-16579428D02*
X8881667Y-16598476D01*
X8881667Y-16474667D02*
X8891190Y-16484190D01*
X8891190Y-16484190D02*
X8881667Y-16493714D01*
X8881667Y-16493714D02*
X8872143Y-16484190D01*
X8872143Y-16484190D02*
X8881667Y-16474667D01*
X8881667Y-16474667D02*
X8881667Y-16493714D01*
D10*
X7195000Y-16895000D02*
X7295000Y-16995000D01*
X7295000Y-16895000D02*
X7195000Y-16995000D01*
D11*
X7647381Y-17018476D02*
X7533095Y-17018476D01*
X7590238Y-17018476D02*
X7590238Y-16818476D01*
X7590238Y-16818476D02*
X7571190Y-16847048D01*
X7571190Y-16847048D02*
X7552143Y-16866095D01*
X7552143Y-16866095D02*
X7533095Y-16875619D01*
X7733095Y-16999429D02*
X7742619Y-17008952D01*
X7742619Y-17008952D02*
X7733095Y-17018476D01*
X7733095Y-17018476D02*
X7723571Y-17008952D01*
X7723571Y-17008952D02*
X7733095Y-16999429D01*
X7733095Y-16999429D02*
X7733095Y-17018476D01*
X7866428Y-16818476D02*
X7885476Y-16818476D01*
X7885476Y-16818476D02*
X7904524Y-16828000D01*
X7904524Y-16828000D02*
X7914048Y-16837524D01*
X7914048Y-16837524D02*
X7923571Y-16856571D01*
X7923571Y-16856571D02*
X7933095Y-16894667D01*
X7933095Y-16894667D02*
X7933095Y-16942286D01*
X7933095Y-16942286D02*
X7923571Y-16980381D01*
X7923571Y-16980381D02*
X7914048Y-16999429D01*
X7914048Y-16999429D02*
X7904524Y-17008952D01*
X7904524Y-17008952D02*
X7885476Y-17018476D01*
X7885476Y-17018476D02*
X7866428Y-17018476D01*
X7866428Y-17018476D02*
X7847381Y-17008952D01*
X7847381Y-17008952D02*
X7837857Y-16999429D01*
X7837857Y-16999429D02*
X7828333Y-16980381D01*
X7828333Y-16980381D02*
X7818809Y-16942286D01*
X7818809Y-16942286D02*
X7818809Y-16894667D01*
X7818809Y-16894667D02*
X7828333Y-16856571D01*
X7828333Y-16856571D02*
X7837857Y-16837524D01*
X7837857Y-16837524D02*
X7847381Y-16828000D01*
X7847381Y-16828000D02*
X7866428Y-16818476D01*
X8056905Y-16818476D02*
X8075952Y-16818476D01*
X8075952Y-16818476D02*
X8095000Y-16828000D01*
X8095000Y-16828000D02*
X8104524Y-16837524D01*
X8104524Y-16837524D02*
X8114048Y-16856571D01*
X8114048Y-16856571D02*
X8123571Y-16894667D01*
X8123571Y-16894667D02*
X8123571Y-16942286D01*
X8123571Y-16942286D02*
X8114048Y-16980381D01*
X8114048Y-16980381D02*
X8104524Y-16999429D01*
X8104524Y-16999429D02*
X8095000Y-17008952D01*
X8095000Y-17008952D02*
X8075952Y-17018476D01*
X8075952Y-17018476D02*
X8056905Y-17018476D01*
X8056905Y-17018476D02*
X8037857Y-17008952D01*
X8037857Y-17008952D02*
X8028333Y-16999429D01*
X8028333Y-16999429D02*
X8018809Y-16980381D01*
X8018809Y-16980381D02*
X8009286Y-16942286D01*
X8009286Y-16942286D02*
X8009286Y-16894667D01*
X8009286Y-16894667D02*
X8018809Y-16856571D01*
X8018809Y-16856571D02*
X8028333Y-16837524D01*
X8028333Y-16837524D02*
X8037857Y-16828000D01*
X8037857Y-16828000D02*
X8056905Y-16818476D01*
X8247381Y-16818476D02*
X8266429Y-16818476D01*
X8266429Y-16818476D02*
X8285476Y-16828000D01*
X8285476Y-16828000D02*
X8295000Y-16837524D01*
X8295000Y-16837524D02*
X8304524Y-16856571D01*
X8304524Y-16856571D02*
X8314048Y-16894667D01*
X8314048Y-16894667D02*
X8314048Y-16942286D01*
X8314048Y-16942286D02*
X8304524Y-16980381D01*
X8304524Y-16980381D02*
X8295000Y-16999429D01*
X8295000Y-16999429D02*
X8285476Y-17008952D01*
X8285476Y-17008952D02*
X8266429Y-17018476D01*
X8266429Y-17018476D02*
X8247381Y-17018476D01*
X8247381Y-17018476D02*
X8228333Y-17008952D01*
X8228333Y-17008952D02*
X8218809Y-16999429D01*
X8218809Y-16999429D02*
X8209286Y-16980381D01*
X8209286Y-16980381D02*
X8199762Y-16942286D01*
X8199762Y-16942286D02*
X8199762Y-16894667D01*
X8199762Y-16894667D02*
X8209286Y-16856571D01*
X8209286Y-16856571D02*
X8218809Y-16837524D01*
X8218809Y-16837524D02*
X8228333Y-16828000D01*
X8228333Y-16828000D02*
X8247381Y-16818476D01*
X8399762Y-17018476D02*
X8399762Y-16885143D01*
X8399762Y-16904190D02*
X8409286Y-16894667D01*
X8409286Y-16894667D02*
X8428333Y-16885143D01*
X8428333Y-16885143D02*
X8456905Y-16885143D01*
X8456905Y-16885143D02*
X8475952Y-16894667D01*
X8475952Y-16894667D02*
X8485476Y-16913714D01*
X8485476Y-16913714D02*
X8485476Y-17018476D01*
X8485476Y-16913714D02*
X8495000Y-16894667D01*
X8495000Y-16894667D02*
X8514048Y-16885143D01*
X8514048Y-16885143D02*
X8542619Y-16885143D01*
X8542619Y-16885143D02*
X8561667Y-16894667D01*
X8561667Y-16894667D02*
X8571191Y-16913714D01*
X8571191Y-16913714D02*
X8571191Y-17018476D01*
X8666429Y-17018476D02*
X8666429Y-16885143D01*
X8666429Y-16904190D02*
X8675952Y-16894667D01*
X8675952Y-16894667D02*
X8695000Y-16885143D01*
X8695000Y-16885143D02*
X8723572Y-16885143D01*
X8723572Y-16885143D02*
X8742619Y-16894667D01*
X8742619Y-16894667D02*
X8752143Y-16913714D01*
X8752143Y-16913714D02*
X8752143Y-17018476D01*
X8752143Y-16913714D02*
X8761667Y-16894667D01*
X8761667Y-16894667D02*
X8780714Y-16885143D01*
X8780714Y-16885143D02*
X8809286Y-16885143D01*
X8809286Y-16885143D02*
X8828333Y-16894667D01*
X8828333Y-16894667D02*
X8837857Y-16913714D01*
X8837857Y-16913714D02*
X8837857Y-17018476D01*
X9195952Y-16808952D02*
X9024524Y-17066095D01*
X9420714Y-16818476D02*
X9439762Y-16818476D01*
X9439762Y-16818476D02*
X9458810Y-16828000D01*
X9458810Y-16828000D02*
X9468333Y-16837524D01*
X9468333Y-16837524D02*
X9477857Y-16856571D01*
X9477857Y-16856571D02*
X9487381Y-16894667D01*
X9487381Y-16894667D02*
X9487381Y-16942286D01*
X9487381Y-16942286D02*
X9477857Y-16980381D01*
X9477857Y-16980381D02*
X9468333Y-16999429D01*
X9468333Y-16999429D02*
X9458810Y-17008952D01*
X9458810Y-17008952D02*
X9439762Y-17018476D01*
X9439762Y-17018476D02*
X9420714Y-17018476D01*
X9420714Y-17018476D02*
X9401667Y-17008952D01*
X9401667Y-17008952D02*
X9392143Y-16999429D01*
X9392143Y-16999429D02*
X9382619Y-16980381D01*
X9382619Y-16980381D02*
X9373095Y-16942286D01*
X9373095Y-16942286D02*
X9373095Y-16894667D01*
X9373095Y-16894667D02*
X9382619Y-16856571D01*
X9382619Y-16856571D02*
X9392143Y-16837524D01*
X9392143Y-16837524D02*
X9401667Y-16828000D01*
X9401667Y-16828000D02*
X9420714Y-16818476D01*
X9573095Y-16999429D02*
X9582619Y-17008952D01*
X9582619Y-17008952D02*
X9573095Y-17018476D01*
X9573095Y-17018476D02*
X9563572Y-17008952D01*
X9563572Y-17008952D02*
X9573095Y-16999429D01*
X9573095Y-16999429D02*
X9573095Y-17018476D01*
X9706429Y-16818476D02*
X9725476Y-16818476D01*
X9725476Y-16818476D02*
X9744524Y-16828000D01*
X9744524Y-16828000D02*
X9754048Y-16837524D01*
X9754048Y-16837524D02*
X9763572Y-16856571D01*
X9763572Y-16856571D02*
X9773095Y-16894667D01*
X9773095Y-16894667D02*
X9773095Y-16942286D01*
X9773095Y-16942286D02*
X9763572Y-16980381D01*
X9763572Y-16980381D02*
X9754048Y-16999429D01*
X9754048Y-16999429D02*
X9744524Y-17008952D01*
X9744524Y-17008952D02*
X9725476Y-17018476D01*
X9725476Y-17018476D02*
X9706429Y-17018476D01*
X9706429Y-17018476D02*
X9687381Y-17008952D01*
X9687381Y-17008952D02*
X9677857Y-16999429D01*
X9677857Y-16999429D02*
X9668333Y-16980381D01*
X9668333Y-16980381D02*
X9658810Y-16942286D01*
X9658810Y-16942286D02*
X9658810Y-16894667D01*
X9658810Y-16894667D02*
X9668333Y-16856571D01*
X9668333Y-16856571D02*
X9677857Y-16837524D01*
X9677857Y-16837524D02*
X9687381Y-16828000D01*
X9687381Y-16828000D02*
X9706429Y-16818476D01*
X9839762Y-16818476D02*
X9963572Y-16818476D01*
X9963572Y-16818476D02*
X9896905Y-16894667D01*
X9896905Y-16894667D02*
X9925476Y-16894667D01*
X9925476Y-16894667D02*
X9944524Y-16904190D01*
X9944524Y-16904190D02*
X9954048Y-16913714D01*
X9954048Y-16913714D02*
X9963572Y-16932762D01*
X9963572Y-16932762D02*
X9963572Y-16980381D01*
X9963572Y-16980381D02*
X9954048Y-16999429D01*
X9954048Y-16999429D02*
X9944524Y-17008952D01*
X9944524Y-17008952D02*
X9925476Y-17018476D01*
X9925476Y-17018476D02*
X9868333Y-17018476D01*
X9868333Y-17018476D02*
X9849286Y-17008952D01*
X9849286Y-17008952D02*
X9839762Y-16999429D01*
X10058810Y-17018476D02*
X10096905Y-17018476D01*
X10096905Y-17018476D02*
X10115953Y-17008952D01*
X10115953Y-17008952D02*
X10125476Y-16999429D01*
X10125476Y-16999429D02*
X10144524Y-16970857D01*
X10144524Y-16970857D02*
X10154048Y-16932762D01*
X10154048Y-16932762D02*
X10154048Y-16856571D01*
X10154048Y-16856571D02*
X10144524Y-16837524D01*
X10144524Y-16837524D02*
X10135000Y-16828000D01*
X10135000Y-16828000D02*
X10115953Y-16818476D01*
X10115953Y-16818476D02*
X10077857Y-16818476D01*
X10077857Y-16818476D02*
X10058810Y-16828000D01*
X10058810Y-16828000D02*
X10049286Y-16837524D01*
X10049286Y-16837524D02*
X10039762Y-16856571D01*
X10039762Y-16856571D02*
X10039762Y-16904190D01*
X10039762Y-16904190D02*
X10049286Y-16923238D01*
X10049286Y-16923238D02*
X10058810Y-16932762D01*
X10058810Y-16932762D02*
X10077857Y-16942286D01*
X10077857Y-16942286D02*
X10115953Y-16942286D01*
X10115953Y-16942286D02*
X10135000Y-16932762D01*
X10135000Y-16932762D02*
X10144524Y-16923238D01*
X10144524Y-16923238D02*
X10154048Y-16904190D01*
X10325476Y-16885143D02*
X10325476Y-17018476D01*
X10277857Y-16808952D02*
X10230238Y-16951810D01*
X10230238Y-16951810D02*
X10354048Y-16951810D01*
X10420714Y-16818476D02*
X10420714Y-16856571D01*
X10496905Y-16818476D02*
X10496905Y-16856571D01*
X10759762Y-17094667D02*
X10750238Y-17085143D01*
X10750238Y-17085143D02*
X10731191Y-17056571D01*
X10731191Y-17056571D02*
X10721667Y-17037524D01*
X10721667Y-17037524D02*
X10712143Y-17008952D01*
X10712143Y-17008952D02*
X10702619Y-16961333D01*
X10702619Y-16961333D02*
X10702619Y-16923238D01*
X10702619Y-16923238D02*
X10712143Y-16875619D01*
X10712143Y-16875619D02*
X10721667Y-16847048D01*
X10721667Y-16847048D02*
X10731191Y-16828000D01*
X10731191Y-16828000D02*
X10750238Y-16799429D01*
X10750238Y-16799429D02*
X10759762Y-16789905D01*
X10826429Y-16837524D02*
X10835953Y-16828000D01*
X10835953Y-16828000D02*
X10855000Y-16818476D01*
X10855000Y-16818476D02*
X10902619Y-16818476D01*
X10902619Y-16818476D02*
X10921667Y-16828000D01*
X10921667Y-16828000D02*
X10931191Y-16837524D01*
X10931191Y-16837524D02*
X10940714Y-16856571D01*
X10940714Y-16856571D02*
X10940714Y-16875619D01*
X10940714Y-16875619D02*
X10931191Y-16904190D01*
X10931191Y-16904190D02*
X10816905Y-17018476D01*
X10816905Y-17018476D02*
X10940714Y-17018476D01*
X11146429Y-17018476D02*
X11146429Y-16818476D01*
X11232143Y-17018476D02*
X11232143Y-16913714D01*
X11232143Y-16913714D02*
X11222619Y-16894667D01*
X11222619Y-16894667D02*
X11203572Y-16885143D01*
X11203572Y-16885143D02*
X11175000Y-16885143D01*
X11175000Y-16885143D02*
X11155953Y-16894667D01*
X11155953Y-16894667D02*
X11146429Y-16904190D01*
X11355952Y-17018476D02*
X11336905Y-17008952D01*
X11336905Y-17008952D02*
X11327381Y-16999429D01*
X11327381Y-16999429D02*
X11317857Y-16980381D01*
X11317857Y-16980381D02*
X11317857Y-16923238D01*
X11317857Y-16923238D02*
X11327381Y-16904190D01*
X11327381Y-16904190D02*
X11336905Y-16894667D01*
X11336905Y-16894667D02*
X11355952Y-16885143D01*
X11355952Y-16885143D02*
X11384524Y-16885143D01*
X11384524Y-16885143D02*
X11403572Y-16894667D01*
X11403572Y-16894667D02*
X11413095Y-16904190D01*
X11413095Y-16904190D02*
X11422619Y-16923238D01*
X11422619Y-16923238D02*
X11422619Y-16980381D01*
X11422619Y-16980381D02*
X11413095Y-16999429D01*
X11413095Y-16999429D02*
X11403572Y-17008952D01*
X11403572Y-17008952D02*
X11384524Y-17018476D01*
X11384524Y-17018476D02*
X11355952Y-17018476D01*
X11536905Y-17018476D02*
X11517857Y-17008952D01*
X11517857Y-17008952D02*
X11508333Y-16989905D01*
X11508333Y-16989905D02*
X11508333Y-16818476D01*
X11689286Y-17008952D02*
X11670238Y-17018476D01*
X11670238Y-17018476D02*
X11632143Y-17018476D01*
X11632143Y-17018476D02*
X11613095Y-17008952D01*
X11613095Y-17008952D02*
X11603572Y-16989905D01*
X11603572Y-16989905D02*
X11603572Y-16913714D01*
X11603572Y-16913714D02*
X11613095Y-16894667D01*
X11613095Y-16894667D02*
X11632143Y-16885143D01*
X11632143Y-16885143D02*
X11670238Y-16885143D01*
X11670238Y-16885143D02*
X11689286Y-16894667D01*
X11689286Y-16894667D02*
X11698810Y-16913714D01*
X11698810Y-16913714D02*
X11698810Y-16932762D01*
X11698810Y-16932762D02*
X11603572Y-16951810D01*
X11775000Y-17008952D02*
X11794048Y-17018476D01*
X11794048Y-17018476D02*
X11832143Y-17018476D01*
X11832143Y-17018476D02*
X11851191Y-17008952D01*
X11851191Y-17008952D02*
X11860714Y-16989905D01*
X11860714Y-16989905D02*
X11860714Y-16980381D01*
X11860714Y-16980381D02*
X11851191Y-16961333D01*
X11851191Y-16961333D02*
X11832143Y-16951810D01*
X11832143Y-16951810D02*
X11803572Y-16951810D01*
X11803572Y-16951810D02*
X11784524Y-16942286D01*
X11784524Y-16942286D02*
X11775000Y-16923238D01*
X11775000Y-16923238D02*
X11775000Y-16913714D01*
X11775000Y-16913714D02*
X11784524Y-16894667D01*
X11784524Y-16894667D02*
X11803572Y-16885143D01*
X11803572Y-16885143D02*
X11832143Y-16885143D01*
X11832143Y-16885143D02*
X11851191Y-16894667D01*
X11927381Y-17094667D02*
X11936905Y-17085143D01*
X11936905Y-17085143D02*
X11955953Y-17056571D01*
X11955953Y-17056571D02*
X11965476Y-17037524D01*
X11965476Y-17037524D02*
X11975000Y-17008952D01*
X11975000Y-17008952D02*
X11984524Y-16961333D01*
X11984524Y-16961333D02*
X11984524Y-16923238D01*
X11984524Y-16923238D02*
X11975000Y-16875619D01*
X11975000Y-16875619D02*
X11965476Y-16847048D01*
X11965476Y-16847048D02*
X11955953Y-16828000D01*
X11955953Y-16828000D02*
X11936905Y-16799429D01*
X11936905Y-16799429D02*
X11927381Y-16789905D01*
X12256905Y-17094667D02*
X12247381Y-17085143D01*
X12247381Y-17085143D02*
X12228333Y-17056571D01*
X12228333Y-17056571D02*
X12218810Y-17037524D01*
X12218810Y-17037524D02*
X12209286Y-17008952D01*
X12209286Y-17008952D02*
X12199762Y-16961333D01*
X12199762Y-16961333D02*
X12199762Y-16923238D01*
X12199762Y-16923238D02*
X12209286Y-16875619D01*
X12209286Y-16875619D02*
X12218810Y-16847048D01*
X12218810Y-16847048D02*
X12228333Y-16828000D01*
X12228333Y-16828000D02*
X12247381Y-16799429D01*
X12247381Y-16799429D02*
X12256905Y-16789905D01*
X12333095Y-16885143D02*
X12333095Y-17018476D01*
X12333095Y-16904190D02*
X12342619Y-16894667D01*
X12342619Y-16894667D02*
X12361667Y-16885143D01*
X12361667Y-16885143D02*
X12390238Y-16885143D01*
X12390238Y-16885143D02*
X12409286Y-16894667D01*
X12409286Y-16894667D02*
X12418810Y-16913714D01*
X12418810Y-16913714D02*
X12418810Y-17018476D01*
X12542619Y-17018476D02*
X12523572Y-17008952D01*
X12523572Y-17008952D02*
X12514048Y-16999429D01*
X12514048Y-16999429D02*
X12504524Y-16980381D01*
X12504524Y-16980381D02*
X12504524Y-16923238D01*
X12504524Y-16923238D02*
X12514048Y-16904190D01*
X12514048Y-16904190D02*
X12523572Y-16894667D01*
X12523572Y-16894667D02*
X12542619Y-16885143D01*
X12542619Y-16885143D02*
X12571191Y-16885143D01*
X12571191Y-16885143D02*
X12590238Y-16894667D01*
X12590238Y-16894667D02*
X12599762Y-16904190D01*
X12599762Y-16904190D02*
X12609286Y-16923238D01*
X12609286Y-16923238D02*
X12609286Y-16980381D01*
X12609286Y-16980381D02*
X12599762Y-16999429D01*
X12599762Y-16999429D02*
X12590238Y-17008952D01*
X12590238Y-17008952D02*
X12571191Y-17018476D01*
X12571191Y-17018476D02*
X12542619Y-17018476D01*
X12666429Y-16885143D02*
X12742619Y-16885143D01*
X12695000Y-16818476D02*
X12695000Y-16989905D01*
X12695000Y-16989905D02*
X12704524Y-17008952D01*
X12704524Y-17008952D02*
X12723572Y-17018476D01*
X12723572Y-17018476D02*
X12742619Y-17018476D01*
X12929286Y-16885143D02*
X12929286Y-17085143D01*
X12929286Y-16894667D02*
X12948333Y-16885143D01*
X12948333Y-16885143D02*
X12986429Y-16885143D01*
X12986429Y-16885143D02*
X13005476Y-16894667D01*
X13005476Y-16894667D02*
X13015000Y-16904190D01*
X13015000Y-16904190D02*
X13024524Y-16923238D01*
X13024524Y-16923238D02*
X13024524Y-16980381D01*
X13024524Y-16980381D02*
X13015000Y-16999429D01*
X13015000Y-16999429D02*
X13005476Y-17008952D01*
X13005476Y-17008952D02*
X12986429Y-17018476D01*
X12986429Y-17018476D02*
X12948333Y-17018476D01*
X12948333Y-17018476D02*
X12929286Y-17008952D01*
X13138810Y-17018476D02*
X13119762Y-17008952D01*
X13119762Y-17008952D02*
X13110238Y-16989905D01*
X13110238Y-16989905D02*
X13110238Y-16818476D01*
X13300714Y-17018476D02*
X13300714Y-16913714D01*
X13300714Y-16913714D02*
X13291191Y-16894667D01*
X13291191Y-16894667D02*
X13272143Y-16885143D01*
X13272143Y-16885143D02*
X13234048Y-16885143D01*
X13234048Y-16885143D02*
X13215000Y-16894667D01*
X13300714Y-17008952D02*
X13281667Y-17018476D01*
X13281667Y-17018476D02*
X13234048Y-17018476D01*
X13234048Y-17018476D02*
X13215000Y-17008952D01*
X13215000Y-17008952D02*
X13205476Y-16989905D01*
X13205476Y-16989905D02*
X13205476Y-16970857D01*
X13205476Y-16970857D02*
X13215000Y-16951810D01*
X13215000Y-16951810D02*
X13234048Y-16942286D01*
X13234048Y-16942286D02*
X13281667Y-16942286D01*
X13281667Y-16942286D02*
X13300714Y-16932762D01*
X13367381Y-16885143D02*
X13443572Y-16885143D01*
X13395953Y-16818476D02*
X13395953Y-16989905D01*
X13395953Y-16989905D02*
X13405476Y-17008952D01*
X13405476Y-17008952D02*
X13424524Y-17018476D01*
X13424524Y-17018476D02*
X13443572Y-17018476D01*
X13586429Y-17008952D02*
X13567381Y-17018476D01*
X13567381Y-17018476D02*
X13529286Y-17018476D01*
X13529286Y-17018476D02*
X13510238Y-17008952D01*
X13510238Y-17008952D02*
X13500714Y-16989905D01*
X13500714Y-16989905D02*
X13500714Y-16913714D01*
X13500714Y-16913714D02*
X13510238Y-16894667D01*
X13510238Y-16894667D02*
X13529286Y-16885143D01*
X13529286Y-16885143D02*
X13567381Y-16885143D01*
X13567381Y-16885143D02*
X13586429Y-16894667D01*
X13586429Y-16894667D02*
X13595953Y-16913714D01*
X13595953Y-16913714D02*
X13595953Y-16932762D01*
X13595953Y-16932762D02*
X13500714Y-16951810D01*
X13767381Y-17018476D02*
X13767381Y-16818476D01*
X13767381Y-17008952D02*
X13748334Y-17018476D01*
X13748334Y-17018476D02*
X13710238Y-17018476D01*
X13710238Y-17018476D02*
X13691191Y-17008952D01*
X13691191Y-17008952D02*
X13681667Y-16999429D01*
X13681667Y-16999429D02*
X13672143Y-16980381D01*
X13672143Y-16980381D02*
X13672143Y-16923238D01*
X13672143Y-16923238D02*
X13681667Y-16904190D01*
X13681667Y-16904190D02*
X13691191Y-16894667D01*
X13691191Y-16894667D02*
X13710238Y-16885143D01*
X13710238Y-16885143D02*
X13748334Y-16885143D01*
X13748334Y-16885143D02*
X13767381Y-16894667D01*
X13843572Y-17094667D02*
X13853095Y-17085143D01*
X13853095Y-17085143D02*
X13872143Y-17056571D01*
X13872143Y-17056571D02*
X13881667Y-17037524D01*
X13881667Y-17037524D02*
X13891191Y-17008952D01*
X13891191Y-17008952D02*
X13900714Y-16961333D01*
X13900714Y-16961333D02*
X13900714Y-16923238D01*
X13900714Y-16923238D02*
X13891191Y-16875619D01*
X13891191Y-16875619D02*
X13881667Y-16847048D01*
X13881667Y-16847048D02*
X13872143Y-16828000D01*
X13872143Y-16828000D02*
X13853095Y-16799429D01*
X13853095Y-16799429D02*
X13843572Y-16789905D01*
X7295000Y-17209000D02*
G75*
G03*
X7295000Y-17209000I-100000J0D01*
G01*
X7523571Y-17082476D02*
X7647381Y-17082476D01*
X7647381Y-17082476D02*
X7580714Y-17158667D01*
X7580714Y-17158667D02*
X7609286Y-17158667D01*
X7609286Y-17158667D02*
X7628333Y-17168190D01*
X7628333Y-17168190D02*
X7637857Y-17177714D01*
X7637857Y-17177714D02*
X7647381Y-17196762D01*
X7647381Y-17196762D02*
X7647381Y-17244381D01*
X7647381Y-17244381D02*
X7637857Y-17263429D01*
X7637857Y-17263429D02*
X7628333Y-17272952D01*
X7628333Y-17272952D02*
X7609286Y-17282476D01*
X7609286Y-17282476D02*
X7552143Y-17282476D01*
X7552143Y-17282476D02*
X7533095Y-17272952D01*
X7533095Y-17272952D02*
X7523571Y-17263429D01*
X7733095Y-17263429D02*
X7742619Y-17272952D01*
X7742619Y-17272952D02*
X7733095Y-17282476D01*
X7733095Y-17282476D02*
X7723571Y-17272952D01*
X7723571Y-17272952D02*
X7733095Y-17263429D01*
X7733095Y-17263429D02*
X7733095Y-17282476D01*
X7866428Y-17082476D02*
X7885476Y-17082476D01*
X7885476Y-17082476D02*
X7904524Y-17092000D01*
X7904524Y-17092000D02*
X7914048Y-17101524D01*
X7914048Y-17101524D02*
X7923571Y-17120571D01*
X7923571Y-17120571D02*
X7933095Y-17158667D01*
X7933095Y-17158667D02*
X7933095Y-17206286D01*
X7933095Y-17206286D02*
X7923571Y-17244381D01*
X7923571Y-17244381D02*
X7914048Y-17263429D01*
X7914048Y-17263429D02*
X7904524Y-17272952D01*
X7904524Y-17272952D02*
X7885476Y-17282476D01*
X7885476Y-17282476D02*
X7866428Y-17282476D01*
X7866428Y-17282476D02*
X7847381Y-17272952D01*
X7847381Y-17272952D02*
X7837857Y-17263429D01*
X7837857Y-17263429D02*
X7828333Y-17244381D01*
X7828333Y-17244381D02*
X7818809Y-17206286D01*
X7818809Y-17206286D02*
X7818809Y-17158667D01*
X7818809Y-17158667D02*
X7828333Y-17120571D01*
X7828333Y-17120571D02*
X7837857Y-17101524D01*
X7837857Y-17101524D02*
X7847381Y-17092000D01*
X7847381Y-17092000D02*
X7866428Y-17082476D01*
X8056905Y-17082476D02*
X8075952Y-17082476D01*
X8075952Y-17082476D02*
X8095000Y-17092000D01*
X8095000Y-17092000D02*
X8104524Y-17101524D01*
X8104524Y-17101524D02*
X8114048Y-17120571D01*
X8114048Y-17120571D02*
X8123571Y-17158667D01*
X8123571Y-17158667D02*
X8123571Y-17206286D01*
X8123571Y-17206286D02*
X8114048Y-17244381D01*
X8114048Y-17244381D02*
X8104524Y-17263429D01*
X8104524Y-17263429D02*
X8095000Y-17272952D01*
X8095000Y-17272952D02*
X8075952Y-17282476D01*
X8075952Y-17282476D02*
X8056905Y-17282476D01*
X8056905Y-17282476D02*
X8037857Y-17272952D01*
X8037857Y-17272952D02*
X8028333Y-17263429D01*
X8028333Y-17263429D02*
X8018809Y-17244381D01*
X8018809Y-17244381D02*
X8009286Y-17206286D01*
X8009286Y-17206286D02*
X8009286Y-17158667D01*
X8009286Y-17158667D02*
X8018809Y-17120571D01*
X8018809Y-17120571D02*
X8028333Y-17101524D01*
X8028333Y-17101524D02*
X8037857Y-17092000D01*
X8037857Y-17092000D02*
X8056905Y-17082476D01*
X8247381Y-17082476D02*
X8266429Y-17082476D01*
X8266429Y-17082476D02*
X8285476Y-17092000D01*
X8285476Y-17092000D02*
X8295000Y-17101524D01*
X8295000Y-17101524D02*
X8304524Y-17120571D01*
X8304524Y-17120571D02*
X8314048Y-17158667D01*
X8314048Y-17158667D02*
X8314048Y-17206286D01*
X8314048Y-17206286D02*
X8304524Y-17244381D01*
X8304524Y-17244381D02*
X8295000Y-17263429D01*
X8295000Y-17263429D02*
X8285476Y-17272952D01*
X8285476Y-17272952D02*
X8266429Y-17282476D01*
X8266429Y-17282476D02*
X8247381Y-17282476D01*
X8247381Y-17282476D02*
X8228333Y-17272952D01*
X8228333Y-17272952D02*
X8218809Y-17263429D01*
X8218809Y-17263429D02*
X8209286Y-17244381D01*
X8209286Y-17244381D02*
X8199762Y-17206286D01*
X8199762Y-17206286D02*
X8199762Y-17158667D01*
X8199762Y-17158667D02*
X8209286Y-17120571D01*
X8209286Y-17120571D02*
X8218809Y-17101524D01*
X8218809Y-17101524D02*
X8228333Y-17092000D01*
X8228333Y-17092000D02*
X8247381Y-17082476D01*
X8399762Y-17282476D02*
X8399762Y-17149143D01*
X8399762Y-17168190D02*
X8409286Y-17158667D01*
X8409286Y-17158667D02*
X8428333Y-17149143D01*
X8428333Y-17149143D02*
X8456905Y-17149143D01*
X8456905Y-17149143D02*
X8475952Y-17158667D01*
X8475952Y-17158667D02*
X8485476Y-17177714D01*
X8485476Y-17177714D02*
X8485476Y-17282476D01*
X8485476Y-17177714D02*
X8495000Y-17158667D01*
X8495000Y-17158667D02*
X8514048Y-17149143D01*
X8514048Y-17149143D02*
X8542619Y-17149143D01*
X8542619Y-17149143D02*
X8561667Y-17158667D01*
X8561667Y-17158667D02*
X8571191Y-17177714D01*
X8571191Y-17177714D02*
X8571191Y-17282476D01*
X8666429Y-17282476D02*
X8666429Y-17149143D01*
X8666429Y-17168190D02*
X8675952Y-17158667D01*
X8675952Y-17158667D02*
X8695000Y-17149143D01*
X8695000Y-17149143D02*
X8723572Y-17149143D01*
X8723572Y-17149143D02*
X8742619Y-17158667D01*
X8742619Y-17158667D02*
X8752143Y-17177714D01*
X8752143Y-17177714D02*
X8752143Y-17282476D01*
X8752143Y-17177714D02*
X8761667Y-17158667D01*
X8761667Y-17158667D02*
X8780714Y-17149143D01*
X8780714Y-17149143D02*
X8809286Y-17149143D01*
X8809286Y-17149143D02*
X8828333Y-17158667D01*
X8828333Y-17158667D02*
X8837857Y-17177714D01*
X8837857Y-17177714D02*
X8837857Y-17282476D01*
X9195952Y-17072952D02*
X9024524Y-17330095D01*
X9420714Y-17082476D02*
X9439762Y-17082476D01*
X9439762Y-17082476D02*
X9458810Y-17092000D01*
X9458810Y-17092000D02*
X9468333Y-17101524D01*
X9468333Y-17101524D02*
X9477857Y-17120571D01*
X9477857Y-17120571D02*
X9487381Y-17158667D01*
X9487381Y-17158667D02*
X9487381Y-17206286D01*
X9487381Y-17206286D02*
X9477857Y-17244381D01*
X9477857Y-17244381D02*
X9468333Y-17263429D01*
X9468333Y-17263429D02*
X9458810Y-17272952D01*
X9458810Y-17272952D02*
X9439762Y-17282476D01*
X9439762Y-17282476D02*
X9420714Y-17282476D01*
X9420714Y-17282476D02*
X9401667Y-17272952D01*
X9401667Y-17272952D02*
X9392143Y-17263429D01*
X9392143Y-17263429D02*
X9382619Y-17244381D01*
X9382619Y-17244381D02*
X9373095Y-17206286D01*
X9373095Y-17206286D02*
X9373095Y-17158667D01*
X9373095Y-17158667D02*
X9382619Y-17120571D01*
X9382619Y-17120571D02*
X9392143Y-17101524D01*
X9392143Y-17101524D02*
X9401667Y-17092000D01*
X9401667Y-17092000D02*
X9420714Y-17082476D01*
X9573095Y-17263429D02*
X9582619Y-17272952D01*
X9582619Y-17272952D02*
X9573095Y-17282476D01*
X9573095Y-17282476D02*
X9563572Y-17272952D01*
X9563572Y-17272952D02*
X9573095Y-17263429D01*
X9573095Y-17263429D02*
X9573095Y-17282476D01*
X9773095Y-17282476D02*
X9658810Y-17282476D01*
X9715952Y-17282476D02*
X9715952Y-17082476D01*
X9715952Y-17082476D02*
X9696905Y-17111048D01*
X9696905Y-17111048D02*
X9677857Y-17130095D01*
X9677857Y-17130095D02*
X9658810Y-17139619D01*
X9963572Y-17282476D02*
X9849286Y-17282476D01*
X9906429Y-17282476D02*
X9906429Y-17082476D01*
X9906429Y-17082476D02*
X9887381Y-17111048D01*
X9887381Y-17111048D02*
X9868333Y-17130095D01*
X9868333Y-17130095D02*
X9849286Y-17139619D01*
X10077857Y-17168190D02*
X10058810Y-17158667D01*
X10058810Y-17158667D02*
X10049286Y-17149143D01*
X10049286Y-17149143D02*
X10039762Y-17130095D01*
X10039762Y-17130095D02*
X10039762Y-17120571D01*
X10039762Y-17120571D02*
X10049286Y-17101524D01*
X10049286Y-17101524D02*
X10058810Y-17092000D01*
X10058810Y-17092000D02*
X10077857Y-17082476D01*
X10077857Y-17082476D02*
X10115953Y-17082476D01*
X10115953Y-17082476D02*
X10135000Y-17092000D01*
X10135000Y-17092000D02*
X10144524Y-17101524D01*
X10144524Y-17101524D02*
X10154048Y-17120571D01*
X10154048Y-17120571D02*
X10154048Y-17130095D01*
X10154048Y-17130095D02*
X10144524Y-17149143D01*
X10144524Y-17149143D02*
X10135000Y-17158667D01*
X10135000Y-17158667D02*
X10115953Y-17168190D01*
X10115953Y-17168190D02*
X10077857Y-17168190D01*
X10077857Y-17168190D02*
X10058810Y-17177714D01*
X10058810Y-17177714D02*
X10049286Y-17187238D01*
X10049286Y-17187238D02*
X10039762Y-17206286D01*
X10039762Y-17206286D02*
X10039762Y-17244381D01*
X10039762Y-17244381D02*
X10049286Y-17263429D01*
X10049286Y-17263429D02*
X10058810Y-17272952D01*
X10058810Y-17272952D02*
X10077857Y-17282476D01*
X10077857Y-17282476D02*
X10115953Y-17282476D01*
X10115953Y-17282476D02*
X10135000Y-17272952D01*
X10135000Y-17272952D02*
X10144524Y-17263429D01*
X10144524Y-17263429D02*
X10154048Y-17244381D01*
X10154048Y-17244381D02*
X10154048Y-17206286D01*
X10154048Y-17206286D02*
X10144524Y-17187238D01*
X10144524Y-17187238D02*
X10135000Y-17177714D01*
X10135000Y-17177714D02*
X10115953Y-17168190D01*
X10344524Y-17282476D02*
X10230238Y-17282476D01*
X10287381Y-17282476D02*
X10287381Y-17082476D01*
X10287381Y-17082476D02*
X10268333Y-17111048D01*
X10268333Y-17111048D02*
X10249286Y-17130095D01*
X10249286Y-17130095D02*
X10230238Y-17139619D01*
X10420714Y-17082476D02*
X10420714Y-17120571D01*
X10496905Y-17082476D02*
X10496905Y-17120571D01*
X10759762Y-17358667D02*
X10750238Y-17349143D01*
X10750238Y-17349143D02*
X10731191Y-17320571D01*
X10731191Y-17320571D02*
X10721667Y-17301524D01*
X10721667Y-17301524D02*
X10712143Y-17272952D01*
X10712143Y-17272952D02*
X10702619Y-17225333D01*
X10702619Y-17225333D02*
X10702619Y-17187238D01*
X10702619Y-17187238D02*
X10712143Y-17139619D01*
X10712143Y-17139619D02*
X10721667Y-17111048D01*
X10721667Y-17111048D02*
X10731191Y-17092000D01*
X10731191Y-17092000D02*
X10750238Y-17063429D01*
X10750238Y-17063429D02*
X10759762Y-17053905D01*
X10921667Y-17149143D02*
X10921667Y-17282476D01*
X10874048Y-17072952D02*
X10826429Y-17215810D01*
X10826429Y-17215810D02*
X10950238Y-17215810D01*
X11146429Y-17282476D02*
X11146429Y-17082476D01*
X11232143Y-17282476D02*
X11232143Y-17177714D01*
X11232143Y-17177714D02*
X11222619Y-17158667D01*
X11222619Y-17158667D02*
X11203572Y-17149143D01*
X11203572Y-17149143D02*
X11175000Y-17149143D01*
X11175000Y-17149143D02*
X11155953Y-17158667D01*
X11155953Y-17158667D02*
X11146429Y-17168190D01*
X11355952Y-17282476D02*
X11336905Y-17272952D01*
X11336905Y-17272952D02*
X11327381Y-17263429D01*
X11327381Y-17263429D02*
X11317857Y-17244381D01*
X11317857Y-17244381D02*
X11317857Y-17187238D01*
X11317857Y-17187238D02*
X11327381Y-17168190D01*
X11327381Y-17168190D02*
X11336905Y-17158667D01*
X11336905Y-17158667D02*
X11355952Y-17149143D01*
X11355952Y-17149143D02*
X11384524Y-17149143D01*
X11384524Y-17149143D02*
X11403572Y-17158667D01*
X11403572Y-17158667D02*
X11413095Y-17168190D01*
X11413095Y-17168190D02*
X11422619Y-17187238D01*
X11422619Y-17187238D02*
X11422619Y-17244381D01*
X11422619Y-17244381D02*
X11413095Y-17263429D01*
X11413095Y-17263429D02*
X11403572Y-17272952D01*
X11403572Y-17272952D02*
X11384524Y-17282476D01*
X11384524Y-17282476D02*
X11355952Y-17282476D01*
X11536905Y-17282476D02*
X11517857Y-17272952D01*
X11517857Y-17272952D02*
X11508333Y-17253905D01*
X11508333Y-17253905D02*
X11508333Y-17082476D01*
X11689286Y-17272952D02*
X11670238Y-17282476D01*
X11670238Y-17282476D02*
X11632143Y-17282476D01*
X11632143Y-17282476D02*
X11613095Y-17272952D01*
X11613095Y-17272952D02*
X11603572Y-17253905D01*
X11603572Y-17253905D02*
X11603572Y-17177714D01*
X11603572Y-17177714D02*
X11613095Y-17158667D01*
X11613095Y-17158667D02*
X11632143Y-17149143D01*
X11632143Y-17149143D02*
X11670238Y-17149143D01*
X11670238Y-17149143D02*
X11689286Y-17158667D01*
X11689286Y-17158667D02*
X11698810Y-17177714D01*
X11698810Y-17177714D02*
X11698810Y-17196762D01*
X11698810Y-17196762D02*
X11603572Y-17215810D01*
X11775000Y-17272952D02*
X11794048Y-17282476D01*
X11794048Y-17282476D02*
X11832143Y-17282476D01*
X11832143Y-17282476D02*
X11851191Y-17272952D01*
X11851191Y-17272952D02*
X11860714Y-17253905D01*
X11860714Y-17253905D02*
X11860714Y-17244381D01*
X11860714Y-17244381D02*
X11851191Y-17225333D01*
X11851191Y-17225333D02*
X11832143Y-17215810D01*
X11832143Y-17215810D02*
X11803572Y-17215810D01*
X11803572Y-17215810D02*
X11784524Y-17206286D01*
X11784524Y-17206286D02*
X11775000Y-17187238D01*
X11775000Y-17187238D02*
X11775000Y-17177714D01*
X11775000Y-17177714D02*
X11784524Y-17158667D01*
X11784524Y-17158667D02*
X11803572Y-17149143D01*
X11803572Y-17149143D02*
X11832143Y-17149143D01*
X11832143Y-17149143D02*
X11851191Y-17158667D01*
X11927381Y-17358667D02*
X11936905Y-17349143D01*
X11936905Y-17349143D02*
X11955953Y-17320571D01*
X11955953Y-17320571D02*
X11965476Y-17301524D01*
X11965476Y-17301524D02*
X11975000Y-17272952D01*
X11975000Y-17272952D02*
X11984524Y-17225333D01*
X11984524Y-17225333D02*
X11984524Y-17187238D01*
X11984524Y-17187238D02*
X11975000Y-17139619D01*
X11975000Y-17139619D02*
X11965476Y-17111048D01*
X11965476Y-17111048D02*
X11955953Y-17092000D01*
X11955953Y-17092000D02*
X11936905Y-17063429D01*
X11936905Y-17063429D02*
X11927381Y-17053905D01*
X12256905Y-17358667D02*
X12247381Y-17349143D01*
X12247381Y-17349143D02*
X12228333Y-17320571D01*
X12228333Y-17320571D02*
X12218810Y-17301524D01*
X12218810Y-17301524D02*
X12209286Y-17272952D01*
X12209286Y-17272952D02*
X12199762Y-17225333D01*
X12199762Y-17225333D02*
X12199762Y-17187238D01*
X12199762Y-17187238D02*
X12209286Y-17139619D01*
X12209286Y-17139619D02*
X12218810Y-17111048D01*
X12218810Y-17111048D02*
X12228333Y-17092000D01*
X12228333Y-17092000D02*
X12247381Y-17063429D01*
X12247381Y-17063429D02*
X12256905Y-17053905D01*
X12333095Y-17149143D02*
X12333095Y-17282476D01*
X12333095Y-17168190D02*
X12342619Y-17158667D01*
X12342619Y-17158667D02*
X12361667Y-17149143D01*
X12361667Y-17149143D02*
X12390238Y-17149143D01*
X12390238Y-17149143D02*
X12409286Y-17158667D01*
X12409286Y-17158667D02*
X12418810Y-17177714D01*
X12418810Y-17177714D02*
X12418810Y-17282476D01*
X12542619Y-17282476D02*
X12523572Y-17272952D01*
X12523572Y-17272952D02*
X12514048Y-17263429D01*
X12514048Y-17263429D02*
X12504524Y-17244381D01*
X12504524Y-17244381D02*
X12504524Y-17187238D01*
X12504524Y-17187238D02*
X12514048Y-17168190D01*
X12514048Y-17168190D02*
X12523572Y-17158667D01*
X12523572Y-17158667D02*
X12542619Y-17149143D01*
X12542619Y-17149143D02*
X12571191Y-17149143D01*
X12571191Y-17149143D02*
X12590238Y-17158667D01*
X12590238Y-17158667D02*
X12599762Y-17168190D01*
X12599762Y-17168190D02*
X12609286Y-17187238D01*
X12609286Y-17187238D02*
X12609286Y-17244381D01*
X12609286Y-17244381D02*
X12599762Y-17263429D01*
X12599762Y-17263429D02*
X12590238Y-17272952D01*
X12590238Y-17272952D02*
X12571191Y-17282476D01*
X12571191Y-17282476D02*
X12542619Y-17282476D01*
X12666429Y-17149143D02*
X12742619Y-17149143D01*
X12695000Y-17082476D02*
X12695000Y-17253905D01*
X12695000Y-17253905D02*
X12704524Y-17272952D01*
X12704524Y-17272952D02*
X12723572Y-17282476D01*
X12723572Y-17282476D02*
X12742619Y-17282476D01*
X12929286Y-17149143D02*
X12929286Y-17349143D01*
X12929286Y-17158667D02*
X12948333Y-17149143D01*
X12948333Y-17149143D02*
X12986429Y-17149143D01*
X12986429Y-17149143D02*
X13005476Y-17158667D01*
X13005476Y-17158667D02*
X13015000Y-17168190D01*
X13015000Y-17168190D02*
X13024524Y-17187238D01*
X13024524Y-17187238D02*
X13024524Y-17244381D01*
X13024524Y-17244381D02*
X13015000Y-17263429D01*
X13015000Y-17263429D02*
X13005476Y-17272952D01*
X13005476Y-17272952D02*
X12986429Y-17282476D01*
X12986429Y-17282476D02*
X12948333Y-17282476D01*
X12948333Y-17282476D02*
X12929286Y-17272952D01*
X13138810Y-17282476D02*
X13119762Y-17272952D01*
X13119762Y-17272952D02*
X13110238Y-17253905D01*
X13110238Y-17253905D02*
X13110238Y-17082476D01*
X13300714Y-17282476D02*
X13300714Y-17177714D01*
X13300714Y-17177714D02*
X13291191Y-17158667D01*
X13291191Y-17158667D02*
X13272143Y-17149143D01*
X13272143Y-17149143D02*
X13234048Y-17149143D01*
X13234048Y-17149143D02*
X13215000Y-17158667D01*
X13300714Y-17272952D02*
X13281667Y-17282476D01*
X13281667Y-17282476D02*
X13234048Y-17282476D01*
X13234048Y-17282476D02*
X13215000Y-17272952D01*
X13215000Y-17272952D02*
X13205476Y-17253905D01*
X13205476Y-17253905D02*
X13205476Y-17234857D01*
X13205476Y-17234857D02*
X13215000Y-17215810D01*
X13215000Y-17215810D02*
X13234048Y-17206286D01*
X13234048Y-17206286D02*
X13281667Y-17206286D01*
X13281667Y-17206286D02*
X13300714Y-17196762D01*
X13367381Y-17149143D02*
X13443572Y-17149143D01*
X13395953Y-17082476D02*
X13395953Y-17253905D01*
X13395953Y-17253905D02*
X13405476Y-17272952D01*
X13405476Y-17272952D02*
X13424524Y-17282476D01*
X13424524Y-17282476D02*
X13443572Y-17282476D01*
X13586429Y-17272952D02*
X13567381Y-17282476D01*
X13567381Y-17282476D02*
X13529286Y-17282476D01*
X13529286Y-17282476D02*
X13510238Y-17272952D01*
X13510238Y-17272952D02*
X13500714Y-17253905D01*
X13500714Y-17253905D02*
X13500714Y-17177714D01*
X13500714Y-17177714D02*
X13510238Y-17158667D01*
X13510238Y-17158667D02*
X13529286Y-17149143D01*
X13529286Y-17149143D02*
X13567381Y-17149143D01*
X13567381Y-17149143D02*
X13586429Y-17158667D01*
X13586429Y-17158667D02*
X13595953Y-17177714D01*
X13595953Y-17177714D02*
X13595953Y-17196762D01*
X13595953Y-17196762D02*
X13500714Y-17215810D01*
X13767381Y-17282476D02*
X13767381Y-17082476D01*
X13767381Y-17272952D02*
X13748334Y-17282476D01*
X13748334Y-17282476D02*
X13710238Y-17282476D01*
X13710238Y-17282476D02*
X13691191Y-17272952D01*
X13691191Y-17272952D02*
X13681667Y-17263429D01*
X13681667Y-17263429D02*
X13672143Y-17244381D01*
X13672143Y-17244381D02*
X13672143Y-17187238D01*
X13672143Y-17187238D02*
X13681667Y-17168190D01*
X13681667Y-17168190D02*
X13691191Y-17158667D01*
X13691191Y-17158667D02*
X13710238Y-17149143D01*
X13710238Y-17149143D02*
X13748334Y-17149143D01*
X13748334Y-17149143D02*
X13767381Y-17158667D01*
X13843572Y-17358667D02*
X13853095Y-17349143D01*
X13853095Y-17349143D02*
X13872143Y-17320571D01*
X13872143Y-17320571D02*
X13881667Y-17301524D01*
X13881667Y-17301524D02*
X13891191Y-17272952D01*
X13891191Y-17272952D02*
X13900714Y-17225333D01*
X13900714Y-17225333D02*
X13900714Y-17187238D01*
X13900714Y-17187238D02*
X13891191Y-17139619D01*
X13891191Y-17139619D02*
X13881667Y-17111048D01*
X13881667Y-17111048D02*
X13872143Y-17092000D01*
X13872143Y-17092000D02*
X13853095Y-17063429D01*
X13853095Y-17063429D02*
X13843572Y-17053905D01*
M02*
