%TF.GenerationSoftware,KiCad,Pcbnew,(7.0.0-0)*%
%TF.CreationDate,2024-05-06T17:20:27-04:00*%
%TF.ProjectId,BFieldArduino,42466965-6c64-4417-9264-75696e6f2e6b,rev?*%
%TF.SameCoordinates,Original*%
%TF.FileFunction,Paste,Top*%
%TF.FilePolarity,Positive*%
%FSLAX46Y46*%
G04 Gerber Fmt 4.6, Leading zero omitted, Abs format (unit mm)*
G04 Created by KiCad (PCBNEW (7.0.0-0)) date 2024-05-06 17:20:27*
%MOMM*%
%LPD*%
G01*
G04 APERTURE LIST*
G04 Aperture macros list*
%AMRoundRect*
0 Rectangle with rounded corners*
0 $1 Rounding radius*
0 $2 $3 $4 $5 $6 $7 $8 $9 X,Y pos of 4 corners*
0 Add a 4 corners polygon primitive as box body*
4,1,4,$2,$3,$4,$5,$6,$7,$8,$9,$2,$3,0*
0 Add four circle primitives for the rounded corners*
1,1,$1+$1,$2,$3*
1,1,$1+$1,$4,$5*
1,1,$1+$1,$6,$7*
1,1,$1+$1,$8,$9*
0 Add four rect primitives between the rounded corners*
20,1,$1+$1,$2,$3,$4,$5,0*
20,1,$1+$1,$4,$5,$6,$7,0*
20,1,$1+$1,$6,$7,$8,$9,0*
20,1,$1+$1,$8,$9,$2,$3,0*%
G04 Aperture macros list end*
%ADD10O,5.842000X1.778000*%
%ADD11RoundRect,0.150000X-0.512500X-0.150000X0.512500X-0.150000X0.512500X0.150000X-0.512500X0.150000X0*%
%ADD12RoundRect,0.079500X-0.079500X-0.100500X0.079500X-0.100500X0.079500X0.100500X-0.079500X0.100500X0*%
%ADD13RoundRect,0.079500X0.079500X0.100500X-0.079500X0.100500X-0.079500X-0.100500X0.079500X-0.100500X0*%
%ADD14RoundRect,0.250000X0.850000X0.350000X-0.850000X0.350000X-0.850000X-0.350000X0.850000X-0.350000X0*%
%ADD15RoundRect,0.250000X1.275000X1.125000X-1.275000X1.125000X-1.275000X-1.125000X1.275000X-1.125000X0*%
G04 APERTURE END LIST*
D10*
%TO.C,U12*%
X185062999Y-134297299D03*
X192936999Y-134297299D03*
%TD*%
D11*
%TO.C,U2*%
X187920000Y-40780000D03*
X187920000Y-41730000D03*
X187920000Y-42680000D03*
X190195000Y-42680000D03*
X190195000Y-40780000D03*
%TD*%
%TO.C,U4*%
X187920000Y-68720000D03*
X187920000Y-69670000D03*
X187920000Y-70620000D03*
X190195000Y-70620000D03*
X190195000Y-68720000D03*
%TD*%
%TO.C,U8*%
X187920000Y-124600000D03*
X187920000Y-125550000D03*
X187920000Y-126500000D03*
X190195000Y-126500000D03*
X190195000Y-124600000D03*
%TD*%
%TO.C,U6*%
X187920000Y-96660000D03*
X187920000Y-97610000D03*
X187920000Y-98560000D03*
X190195000Y-98560000D03*
X190195000Y-96660000D03*
%TD*%
D12*
%TO.C,D4*%
X88000000Y-25640000D03*
X88690000Y-25640000D03*
%TD*%
D10*
%TO.C,U11*%
X93251999Y-134499999D03*
X101125999Y-134499999D03*
X108999999Y-134499999D03*
%TD*%
D13*
%TO.C,D2*%
X88690000Y-40880000D03*
X88000000Y-40880000D03*
%TD*%
D14*
%TO.C,U10*%
X118020000Y-78060000D03*
X118020000Y-75780000D03*
D15*
X113395000Y-77305000D03*
X113395000Y-74255000D03*
X110045000Y-77305000D03*
X110045000Y-74255000D03*
D14*
X118020000Y-73500000D03*
%TD*%
D12*
%TO.C,D1*%
X88000000Y-48500000D03*
X88690000Y-48500000D03*
%TD*%
D14*
%TO.C,U9*%
X118020000Y-117255000D03*
D15*
X113395000Y-116500000D03*
X113395000Y-113450000D03*
X110045000Y-116500000D03*
X110045000Y-113450000D03*
D14*
X118020000Y-112695000D03*
%TD*%
D12*
%TO.C,D3*%
X88000000Y-33260000D03*
X88690000Y-33260000D03*
%TD*%
M02*
