%TF.GenerationSoftware,KiCad,Pcbnew,(7.0.0-0)*%
%TF.CreationDate,2024-05-06T17:20:27-04:00*%
%TF.ProjectId,BFieldArduino,42466965-6c64-4417-9264-75696e6f2e6b,rev?*%
%TF.SameCoordinates,Original*%
%TF.FileFunction,Legend,Top*%
%TF.FilePolarity,Positive*%
%FSLAX46Y46*%
G04 Gerber Fmt 4.6, Leading zero omitted, Abs format (unit mm)*
G04 Created by KiCad (PCBNEW (7.0.0-0)) date 2024-05-06 17:20:27*
%MOMM*%
%LPD*%
G01*
G04 APERTURE LIST*
%ADD10C,0.150000*%
%ADD11C,0.100000*%
%ADD12C,0.120000*%
G04 APERTURE END LIST*
D10*
%TO.C,H8*%
X153978095Y-131097380D02*
X153978095Y-130097380D01*
X153978095Y-130573571D02*
X154549523Y-130573571D01*
X154549523Y-131097380D02*
X154549523Y-130097380D01*
X155168571Y-130525952D02*
X155073333Y-130478333D01*
X155073333Y-130478333D02*
X155025714Y-130430714D01*
X155025714Y-130430714D02*
X154978095Y-130335476D01*
X154978095Y-130335476D02*
X154978095Y-130287857D01*
X154978095Y-130287857D02*
X155025714Y-130192619D01*
X155025714Y-130192619D02*
X155073333Y-130145000D01*
X155073333Y-130145000D02*
X155168571Y-130097380D01*
X155168571Y-130097380D02*
X155359047Y-130097380D01*
X155359047Y-130097380D02*
X155454285Y-130145000D01*
X155454285Y-130145000D02*
X155501904Y-130192619D01*
X155501904Y-130192619D02*
X155549523Y-130287857D01*
X155549523Y-130287857D02*
X155549523Y-130335476D01*
X155549523Y-130335476D02*
X155501904Y-130430714D01*
X155501904Y-130430714D02*
X155454285Y-130478333D01*
X155454285Y-130478333D02*
X155359047Y-130525952D01*
X155359047Y-130525952D02*
X155168571Y-130525952D01*
X155168571Y-130525952D02*
X155073333Y-130573571D01*
X155073333Y-130573571D02*
X155025714Y-130621190D01*
X155025714Y-130621190D02*
X154978095Y-130716428D01*
X154978095Y-130716428D02*
X154978095Y-130906904D01*
X154978095Y-130906904D02*
X155025714Y-131002142D01*
X155025714Y-131002142D02*
X155073333Y-131049761D01*
X155073333Y-131049761D02*
X155168571Y-131097380D01*
X155168571Y-131097380D02*
X155359047Y-131097380D01*
X155359047Y-131097380D02*
X155454285Y-131049761D01*
X155454285Y-131049761D02*
X155501904Y-131002142D01*
X155501904Y-131002142D02*
X155549523Y-130906904D01*
X155549523Y-130906904D02*
X155549523Y-130716428D01*
X155549523Y-130716428D02*
X155501904Y-130621190D01*
X155501904Y-130621190D02*
X155454285Y-130573571D01*
X155454285Y-130573571D02*
X155359047Y-130525952D01*
%TO.C,H7*%
X202238095Y-132367380D02*
X202238095Y-131367380D01*
X202238095Y-131843571D02*
X202809523Y-131843571D01*
X202809523Y-132367380D02*
X202809523Y-131367380D01*
X203190476Y-131367380D02*
X203857142Y-131367380D01*
X203857142Y-131367380D02*
X203428571Y-132367380D01*
%TO.C,H6*%
X197158095Y-80297380D02*
X197158095Y-79297380D01*
X197158095Y-79773571D02*
X197729523Y-79773571D01*
X197729523Y-80297380D02*
X197729523Y-79297380D01*
X198634285Y-79297380D02*
X198443809Y-79297380D01*
X198443809Y-79297380D02*
X198348571Y-79345000D01*
X198348571Y-79345000D02*
X198300952Y-79392619D01*
X198300952Y-79392619D02*
X198205714Y-79535476D01*
X198205714Y-79535476D02*
X198158095Y-79725952D01*
X198158095Y-79725952D02*
X198158095Y-80106904D01*
X198158095Y-80106904D02*
X198205714Y-80202142D01*
X198205714Y-80202142D02*
X198253333Y-80249761D01*
X198253333Y-80249761D02*
X198348571Y-80297380D01*
X198348571Y-80297380D02*
X198539047Y-80297380D01*
X198539047Y-80297380D02*
X198634285Y-80249761D01*
X198634285Y-80249761D02*
X198681904Y-80202142D01*
X198681904Y-80202142D02*
X198729523Y-80106904D01*
X198729523Y-80106904D02*
X198729523Y-79868809D01*
X198729523Y-79868809D02*
X198681904Y-79773571D01*
X198681904Y-79773571D02*
X198634285Y-79725952D01*
X198634285Y-79725952D02*
X198539047Y-79678333D01*
X198539047Y-79678333D02*
X198348571Y-79678333D01*
X198348571Y-79678333D02*
X198253333Y-79725952D01*
X198253333Y-79725952D02*
X198205714Y-79773571D01*
X198205714Y-79773571D02*
X198158095Y-79868809D01*
%TO.C,H5*%
X169218095Y-80297380D02*
X169218095Y-79297380D01*
X169218095Y-79773571D02*
X169789523Y-79773571D01*
X169789523Y-80297380D02*
X169789523Y-79297380D01*
X170741904Y-79297380D02*
X170265714Y-79297380D01*
X170265714Y-79297380D02*
X170218095Y-79773571D01*
X170218095Y-79773571D02*
X170265714Y-79725952D01*
X170265714Y-79725952D02*
X170360952Y-79678333D01*
X170360952Y-79678333D02*
X170599047Y-79678333D01*
X170599047Y-79678333D02*
X170694285Y-79725952D01*
X170694285Y-79725952D02*
X170741904Y-79773571D01*
X170741904Y-79773571D02*
X170789523Y-79868809D01*
X170789523Y-79868809D02*
X170789523Y-80106904D01*
X170789523Y-80106904D02*
X170741904Y-80202142D01*
X170741904Y-80202142D02*
X170694285Y-80249761D01*
X170694285Y-80249761D02*
X170599047Y-80297380D01*
X170599047Y-80297380D02*
X170360952Y-80297380D01*
X170360952Y-80297380D02*
X170265714Y-80249761D01*
X170265714Y-80249761D02*
X170218095Y-80202142D01*
%TO.C,C7*%
X115353333Y-127467142D02*
X115305714Y-127514761D01*
X115305714Y-127514761D02*
X115162857Y-127562380D01*
X115162857Y-127562380D02*
X115067619Y-127562380D01*
X115067619Y-127562380D02*
X114924762Y-127514761D01*
X114924762Y-127514761D02*
X114829524Y-127419523D01*
X114829524Y-127419523D02*
X114781905Y-127324285D01*
X114781905Y-127324285D02*
X114734286Y-127133809D01*
X114734286Y-127133809D02*
X114734286Y-126990952D01*
X114734286Y-126990952D02*
X114781905Y-126800476D01*
X114781905Y-126800476D02*
X114829524Y-126705238D01*
X114829524Y-126705238D02*
X114924762Y-126610000D01*
X114924762Y-126610000D02*
X115067619Y-126562380D01*
X115067619Y-126562380D02*
X115162857Y-126562380D01*
X115162857Y-126562380D02*
X115305714Y-126610000D01*
X115305714Y-126610000D02*
X115353333Y-126657619D01*
X115686667Y-126562380D02*
X116353333Y-126562380D01*
X116353333Y-126562380D02*
X115924762Y-127562380D01*
%TO.C,R14*%
X176157142Y-68867380D02*
X175823809Y-68391190D01*
X175585714Y-68867380D02*
X175585714Y-67867380D01*
X175585714Y-67867380D02*
X175966666Y-67867380D01*
X175966666Y-67867380D02*
X176061904Y-67915000D01*
X176061904Y-67915000D02*
X176109523Y-67962619D01*
X176109523Y-67962619D02*
X176157142Y-68057857D01*
X176157142Y-68057857D02*
X176157142Y-68200714D01*
X176157142Y-68200714D02*
X176109523Y-68295952D01*
X176109523Y-68295952D02*
X176061904Y-68343571D01*
X176061904Y-68343571D02*
X175966666Y-68391190D01*
X175966666Y-68391190D02*
X175585714Y-68391190D01*
X177109523Y-68867380D02*
X176538095Y-68867380D01*
X176823809Y-68867380D02*
X176823809Y-67867380D01*
X176823809Y-67867380D02*
X176728571Y-68010238D01*
X176728571Y-68010238D02*
X176633333Y-68105476D01*
X176633333Y-68105476D02*
X176538095Y-68153095D01*
X177966666Y-68200714D02*
X177966666Y-68867380D01*
X177728571Y-67819761D02*
X177490476Y-68534047D01*
X177490476Y-68534047D02*
X178109523Y-68534047D01*
%TO.C,H4*%
X214238095Y-149367380D02*
X214238095Y-148367380D01*
X214238095Y-148843571D02*
X214809523Y-148843571D01*
X214809523Y-149367380D02*
X214809523Y-148367380D01*
X215714285Y-148700714D02*
X215714285Y-149367380D01*
X215476190Y-148319761D02*
X215238095Y-149034047D01*
X215238095Y-149034047D02*
X215857142Y-149034047D01*
%TO.C,U3*%
X160488095Y-72737380D02*
X160488095Y-73546904D01*
X160488095Y-73546904D02*
X160535714Y-73642142D01*
X160535714Y-73642142D02*
X160583333Y-73689761D01*
X160583333Y-73689761D02*
X160678571Y-73737380D01*
X160678571Y-73737380D02*
X160869047Y-73737380D01*
X160869047Y-73737380D02*
X160964285Y-73689761D01*
X160964285Y-73689761D02*
X161011904Y-73642142D01*
X161011904Y-73642142D02*
X161059523Y-73546904D01*
X161059523Y-73546904D02*
X161059523Y-72737380D01*
X161440476Y-72737380D02*
X162059523Y-72737380D01*
X162059523Y-72737380D02*
X161726190Y-73118333D01*
X161726190Y-73118333D02*
X161869047Y-73118333D01*
X161869047Y-73118333D02*
X161964285Y-73165952D01*
X161964285Y-73165952D02*
X162011904Y-73213571D01*
X162011904Y-73213571D02*
X162059523Y-73308809D01*
X162059523Y-73308809D02*
X162059523Y-73546904D01*
X162059523Y-73546904D02*
X162011904Y-73642142D01*
X162011904Y-73642142D02*
X161964285Y-73689761D01*
X161964285Y-73689761D02*
X161869047Y-73737380D01*
X161869047Y-73737380D02*
X161583333Y-73737380D01*
X161583333Y-73737380D02*
X161488095Y-73689761D01*
X161488095Y-73689761D02*
X161440476Y-73642142D01*
%TO.C,C19*%
X196272142Y-43362857D02*
X196319761Y-43410476D01*
X196319761Y-43410476D02*
X196367380Y-43553333D01*
X196367380Y-43553333D02*
X196367380Y-43648571D01*
X196367380Y-43648571D02*
X196319761Y-43791428D01*
X196319761Y-43791428D02*
X196224523Y-43886666D01*
X196224523Y-43886666D02*
X196129285Y-43934285D01*
X196129285Y-43934285D02*
X195938809Y-43981904D01*
X195938809Y-43981904D02*
X195795952Y-43981904D01*
X195795952Y-43981904D02*
X195605476Y-43934285D01*
X195605476Y-43934285D02*
X195510238Y-43886666D01*
X195510238Y-43886666D02*
X195415000Y-43791428D01*
X195415000Y-43791428D02*
X195367380Y-43648571D01*
X195367380Y-43648571D02*
X195367380Y-43553333D01*
X195367380Y-43553333D02*
X195415000Y-43410476D01*
X195415000Y-43410476D02*
X195462619Y-43362857D01*
X196367380Y-42410476D02*
X196367380Y-42981904D01*
X196367380Y-42696190D02*
X195367380Y-42696190D01*
X195367380Y-42696190D02*
X195510238Y-42791428D01*
X195510238Y-42791428D02*
X195605476Y-42886666D01*
X195605476Y-42886666D02*
X195653095Y-42981904D01*
X196367380Y-41934285D02*
X196367380Y-41743809D01*
X196367380Y-41743809D02*
X196319761Y-41648571D01*
X196319761Y-41648571D02*
X196272142Y-41600952D01*
X196272142Y-41600952D02*
X196129285Y-41505714D01*
X196129285Y-41505714D02*
X195938809Y-41458095D01*
X195938809Y-41458095D02*
X195557857Y-41458095D01*
X195557857Y-41458095D02*
X195462619Y-41505714D01*
X195462619Y-41505714D02*
X195415000Y-41553333D01*
X195415000Y-41553333D02*
X195367380Y-41648571D01*
X195367380Y-41648571D02*
X195367380Y-41839047D01*
X195367380Y-41839047D02*
X195415000Y-41934285D01*
X195415000Y-41934285D02*
X195462619Y-41981904D01*
X195462619Y-41981904D02*
X195557857Y-42029523D01*
X195557857Y-42029523D02*
X195795952Y-42029523D01*
X195795952Y-42029523D02*
X195891190Y-41981904D01*
X195891190Y-41981904D02*
X195938809Y-41934285D01*
X195938809Y-41934285D02*
X195986428Y-41839047D01*
X195986428Y-41839047D02*
X195986428Y-41648571D01*
X195986428Y-41648571D02*
X195938809Y-41553333D01*
X195938809Y-41553333D02*
X195891190Y-41505714D01*
X195891190Y-41505714D02*
X195795952Y-41458095D01*
%TO.C,R11*%
X178157142Y-35867380D02*
X177823809Y-35391190D01*
X177585714Y-35867380D02*
X177585714Y-34867380D01*
X177585714Y-34867380D02*
X177966666Y-34867380D01*
X177966666Y-34867380D02*
X178061904Y-34915000D01*
X178061904Y-34915000D02*
X178109523Y-34962619D01*
X178109523Y-34962619D02*
X178157142Y-35057857D01*
X178157142Y-35057857D02*
X178157142Y-35200714D01*
X178157142Y-35200714D02*
X178109523Y-35295952D01*
X178109523Y-35295952D02*
X178061904Y-35343571D01*
X178061904Y-35343571D02*
X177966666Y-35391190D01*
X177966666Y-35391190D02*
X177585714Y-35391190D01*
X179109523Y-35867380D02*
X178538095Y-35867380D01*
X178823809Y-35867380D02*
X178823809Y-34867380D01*
X178823809Y-34867380D02*
X178728571Y-35010238D01*
X178728571Y-35010238D02*
X178633333Y-35105476D01*
X178633333Y-35105476D02*
X178538095Y-35153095D01*
X180061904Y-35867380D02*
X179490476Y-35867380D01*
X179776190Y-35867380D02*
X179776190Y-34867380D01*
X179776190Y-34867380D02*
X179680952Y-35010238D01*
X179680952Y-35010238D02*
X179585714Y-35105476D01*
X179585714Y-35105476D02*
X179490476Y-35153095D01*
%TO.C,R8*%
X157273333Y-116877380D02*
X156940000Y-116401190D01*
X156701905Y-116877380D02*
X156701905Y-115877380D01*
X156701905Y-115877380D02*
X157082857Y-115877380D01*
X157082857Y-115877380D02*
X157178095Y-115925000D01*
X157178095Y-115925000D02*
X157225714Y-115972619D01*
X157225714Y-115972619D02*
X157273333Y-116067857D01*
X157273333Y-116067857D02*
X157273333Y-116210714D01*
X157273333Y-116210714D02*
X157225714Y-116305952D01*
X157225714Y-116305952D02*
X157178095Y-116353571D01*
X157178095Y-116353571D02*
X157082857Y-116401190D01*
X157082857Y-116401190D02*
X156701905Y-116401190D01*
X157844762Y-116305952D02*
X157749524Y-116258333D01*
X157749524Y-116258333D02*
X157701905Y-116210714D01*
X157701905Y-116210714D02*
X157654286Y-116115476D01*
X157654286Y-116115476D02*
X157654286Y-116067857D01*
X157654286Y-116067857D02*
X157701905Y-115972619D01*
X157701905Y-115972619D02*
X157749524Y-115925000D01*
X157749524Y-115925000D02*
X157844762Y-115877380D01*
X157844762Y-115877380D02*
X158035238Y-115877380D01*
X158035238Y-115877380D02*
X158130476Y-115925000D01*
X158130476Y-115925000D02*
X158178095Y-115972619D01*
X158178095Y-115972619D02*
X158225714Y-116067857D01*
X158225714Y-116067857D02*
X158225714Y-116115476D01*
X158225714Y-116115476D02*
X158178095Y-116210714D01*
X158178095Y-116210714D02*
X158130476Y-116258333D01*
X158130476Y-116258333D02*
X158035238Y-116305952D01*
X158035238Y-116305952D02*
X157844762Y-116305952D01*
X157844762Y-116305952D02*
X157749524Y-116353571D01*
X157749524Y-116353571D02*
X157701905Y-116401190D01*
X157701905Y-116401190D02*
X157654286Y-116496428D01*
X157654286Y-116496428D02*
X157654286Y-116686904D01*
X157654286Y-116686904D02*
X157701905Y-116782142D01*
X157701905Y-116782142D02*
X157749524Y-116829761D01*
X157749524Y-116829761D02*
X157844762Y-116877380D01*
X157844762Y-116877380D02*
X158035238Y-116877380D01*
X158035238Y-116877380D02*
X158130476Y-116829761D01*
X158130476Y-116829761D02*
X158178095Y-116782142D01*
X158178095Y-116782142D02*
X158225714Y-116686904D01*
X158225714Y-116686904D02*
X158225714Y-116496428D01*
X158225714Y-116496428D02*
X158178095Y-116401190D01*
X158178095Y-116401190D02*
X158130476Y-116353571D01*
X158130476Y-116353571D02*
X158035238Y-116305952D01*
%TO.C,R3*%
X144573333Y-76447380D02*
X144240000Y-75971190D01*
X144001905Y-76447380D02*
X144001905Y-75447380D01*
X144001905Y-75447380D02*
X144382857Y-75447380D01*
X144382857Y-75447380D02*
X144478095Y-75495000D01*
X144478095Y-75495000D02*
X144525714Y-75542619D01*
X144525714Y-75542619D02*
X144573333Y-75637857D01*
X144573333Y-75637857D02*
X144573333Y-75780714D01*
X144573333Y-75780714D02*
X144525714Y-75875952D01*
X144525714Y-75875952D02*
X144478095Y-75923571D01*
X144478095Y-75923571D02*
X144382857Y-75971190D01*
X144382857Y-75971190D02*
X144001905Y-75971190D01*
X144906667Y-75447380D02*
X145525714Y-75447380D01*
X145525714Y-75447380D02*
X145192381Y-75828333D01*
X145192381Y-75828333D02*
X145335238Y-75828333D01*
X145335238Y-75828333D02*
X145430476Y-75875952D01*
X145430476Y-75875952D02*
X145478095Y-75923571D01*
X145478095Y-75923571D02*
X145525714Y-76018809D01*
X145525714Y-76018809D02*
X145525714Y-76256904D01*
X145525714Y-76256904D02*
X145478095Y-76352142D01*
X145478095Y-76352142D02*
X145430476Y-76399761D01*
X145430476Y-76399761D02*
X145335238Y-76447380D01*
X145335238Y-76447380D02*
X145049524Y-76447380D01*
X145049524Y-76447380D02*
X144954286Y-76399761D01*
X144954286Y-76399761D02*
X144906667Y-76352142D01*
%TO.C,R22*%
X176157142Y-124867380D02*
X175823809Y-124391190D01*
X175585714Y-124867380D02*
X175585714Y-123867380D01*
X175585714Y-123867380D02*
X175966666Y-123867380D01*
X175966666Y-123867380D02*
X176061904Y-123915000D01*
X176061904Y-123915000D02*
X176109523Y-123962619D01*
X176109523Y-123962619D02*
X176157142Y-124057857D01*
X176157142Y-124057857D02*
X176157142Y-124200714D01*
X176157142Y-124200714D02*
X176109523Y-124295952D01*
X176109523Y-124295952D02*
X176061904Y-124343571D01*
X176061904Y-124343571D02*
X175966666Y-124391190D01*
X175966666Y-124391190D02*
X175585714Y-124391190D01*
X176538095Y-123962619D02*
X176585714Y-123915000D01*
X176585714Y-123915000D02*
X176680952Y-123867380D01*
X176680952Y-123867380D02*
X176919047Y-123867380D01*
X176919047Y-123867380D02*
X177014285Y-123915000D01*
X177014285Y-123915000D02*
X177061904Y-123962619D01*
X177061904Y-123962619D02*
X177109523Y-124057857D01*
X177109523Y-124057857D02*
X177109523Y-124153095D01*
X177109523Y-124153095D02*
X177061904Y-124295952D01*
X177061904Y-124295952D02*
X176490476Y-124867380D01*
X176490476Y-124867380D02*
X177109523Y-124867380D01*
X177490476Y-123962619D02*
X177538095Y-123915000D01*
X177538095Y-123915000D02*
X177633333Y-123867380D01*
X177633333Y-123867380D02*
X177871428Y-123867380D01*
X177871428Y-123867380D02*
X177966666Y-123915000D01*
X177966666Y-123915000D02*
X178014285Y-123962619D01*
X178014285Y-123962619D02*
X178061904Y-124057857D01*
X178061904Y-124057857D02*
X178061904Y-124153095D01*
X178061904Y-124153095D02*
X178014285Y-124295952D01*
X178014285Y-124295952D02*
X177442857Y-124867380D01*
X177442857Y-124867380D02*
X178061904Y-124867380D01*
%TO.C,U7*%
X162248095Y-128237380D02*
X162248095Y-129046904D01*
X162248095Y-129046904D02*
X162295714Y-129142142D01*
X162295714Y-129142142D02*
X162343333Y-129189761D01*
X162343333Y-129189761D02*
X162438571Y-129237380D01*
X162438571Y-129237380D02*
X162629047Y-129237380D01*
X162629047Y-129237380D02*
X162724285Y-129189761D01*
X162724285Y-129189761D02*
X162771904Y-129142142D01*
X162771904Y-129142142D02*
X162819523Y-129046904D01*
X162819523Y-129046904D02*
X162819523Y-128237380D01*
X163200476Y-128237380D02*
X163867142Y-128237380D01*
X163867142Y-128237380D02*
X163438571Y-129237380D01*
%TO.C,U2*%
X188295595Y-38697380D02*
X188295595Y-39506904D01*
X188295595Y-39506904D02*
X188343214Y-39602142D01*
X188343214Y-39602142D02*
X188390833Y-39649761D01*
X188390833Y-39649761D02*
X188486071Y-39697380D01*
X188486071Y-39697380D02*
X188676547Y-39697380D01*
X188676547Y-39697380D02*
X188771785Y-39649761D01*
X188771785Y-39649761D02*
X188819404Y-39602142D01*
X188819404Y-39602142D02*
X188867023Y-39506904D01*
X188867023Y-39506904D02*
X188867023Y-38697380D01*
X189295595Y-38792619D02*
X189343214Y-38745000D01*
X189343214Y-38745000D02*
X189438452Y-38697380D01*
X189438452Y-38697380D02*
X189676547Y-38697380D01*
X189676547Y-38697380D02*
X189771785Y-38745000D01*
X189771785Y-38745000D02*
X189819404Y-38792619D01*
X189819404Y-38792619D02*
X189867023Y-38887857D01*
X189867023Y-38887857D02*
X189867023Y-38983095D01*
X189867023Y-38983095D02*
X189819404Y-39125952D01*
X189819404Y-39125952D02*
X189247976Y-39697380D01*
X189247976Y-39697380D02*
X189867023Y-39697380D01*
%TO.C,R24*%
X191367380Y-121142857D02*
X190891190Y-121476190D01*
X191367380Y-121714285D02*
X190367380Y-121714285D01*
X190367380Y-121714285D02*
X190367380Y-121333333D01*
X190367380Y-121333333D02*
X190415000Y-121238095D01*
X190415000Y-121238095D02*
X190462619Y-121190476D01*
X190462619Y-121190476D02*
X190557857Y-121142857D01*
X190557857Y-121142857D02*
X190700714Y-121142857D01*
X190700714Y-121142857D02*
X190795952Y-121190476D01*
X190795952Y-121190476D02*
X190843571Y-121238095D01*
X190843571Y-121238095D02*
X190891190Y-121333333D01*
X190891190Y-121333333D02*
X190891190Y-121714285D01*
X190462619Y-120761904D02*
X190415000Y-120714285D01*
X190415000Y-120714285D02*
X190367380Y-120619047D01*
X190367380Y-120619047D02*
X190367380Y-120380952D01*
X190367380Y-120380952D02*
X190415000Y-120285714D01*
X190415000Y-120285714D02*
X190462619Y-120238095D01*
X190462619Y-120238095D02*
X190557857Y-120190476D01*
X190557857Y-120190476D02*
X190653095Y-120190476D01*
X190653095Y-120190476D02*
X190795952Y-120238095D01*
X190795952Y-120238095D02*
X191367380Y-120809523D01*
X191367380Y-120809523D02*
X191367380Y-120190476D01*
X190700714Y-119333333D02*
X191367380Y-119333333D01*
X190319761Y-119571428D02*
X191034047Y-119809523D01*
X191034047Y-119809523D02*
X191034047Y-119190476D01*
%TO.C,C20*%
X196272142Y-71302857D02*
X196319761Y-71350476D01*
X196319761Y-71350476D02*
X196367380Y-71493333D01*
X196367380Y-71493333D02*
X196367380Y-71588571D01*
X196367380Y-71588571D02*
X196319761Y-71731428D01*
X196319761Y-71731428D02*
X196224523Y-71826666D01*
X196224523Y-71826666D02*
X196129285Y-71874285D01*
X196129285Y-71874285D02*
X195938809Y-71921904D01*
X195938809Y-71921904D02*
X195795952Y-71921904D01*
X195795952Y-71921904D02*
X195605476Y-71874285D01*
X195605476Y-71874285D02*
X195510238Y-71826666D01*
X195510238Y-71826666D02*
X195415000Y-71731428D01*
X195415000Y-71731428D02*
X195367380Y-71588571D01*
X195367380Y-71588571D02*
X195367380Y-71493333D01*
X195367380Y-71493333D02*
X195415000Y-71350476D01*
X195415000Y-71350476D02*
X195462619Y-71302857D01*
X195462619Y-70921904D02*
X195415000Y-70874285D01*
X195415000Y-70874285D02*
X195367380Y-70779047D01*
X195367380Y-70779047D02*
X195367380Y-70540952D01*
X195367380Y-70540952D02*
X195415000Y-70445714D01*
X195415000Y-70445714D02*
X195462619Y-70398095D01*
X195462619Y-70398095D02*
X195557857Y-70350476D01*
X195557857Y-70350476D02*
X195653095Y-70350476D01*
X195653095Y-70350476D02*
X195795952Y-70398095D01*
X195795952Y-70398095D02*
X196367380Y-70969523D01*
X196367380Y-70969523D02*
X196367380Y-70350476D01*
X195367380Y-69731428D02*
X195367380Y-69636190D01*
X195367380Y-69636190D02*
X195415000Y-69540952D01*
X195415000Y-69540952D02*
X195462619Y-69493333D01*
X195462619Y-69493333D02*
X195557857Y-69445714D01*
X195557857Y-69445714D02*
X195748333Y-69398095D01*
X195748333Y-69398095D02*
X195986428Y-69398095D01*
X195986428Y-69398095D02*
X196176904Y-69445714D01*
X196176904Y-69445714D02*
X196272142Y-69493333D01*
X196272142Y-69493333D02*
X196319761Y-69540952D01*
X196319761Y-69540952D02*
X196367380Y-69636190D01*
X196367380Y-69636190D02*
X196367380Y-69731428D01*
X196367380Y-69731428D02*
X196319761Y-69826666D01*
X196319761Y-69826666D02*
X196272142Y-69874285D01*
X196272142Y-69874285D02*
X196176904Y-69921904D01*
X196176904Y-69921904D02*
X195986428Y-69969523D01*
X195986428Y-69969523D02*
X195748333Y-69969523D01*
X195748333Y-69969523D02*
X195557857Y-69921904D01*
X195557857Y-69921904D02*
X195462619Y-69874285D01*
X195462619Y-69874285D02*
X195415000Y-69826666D01*
X195415000Y-69826666D02*
X195367380Y-69731428D01*
%TO.C,R28*%
X101537142Y-29377380D02*
X101203809Y-28901190D01*
X100965714Y-29377380D02*
X100965714Y-28377380D01*
X100965714Y-28377380D02*
X101346666Y-28377380D01*
X101346666Y-28377380D02*
X101441904Y-28425000D01*
X101441904Y-28425000D02*
X101489523Y-28472619D01*
X101489523Y-28472619D02*
X101537142Y-28567857D01*
X101537142Y-28567857D02*
X101537142Y-28710714D01*
X101537142Y-28710714D02*
X101489523Y-28805952D01*
X101489523Y-28805952D02*
X101441904Y-28853571D01*
X101441904Y-28853571D02*
X101346666Y-28901190D01*
X101346666Y-28901190D02*
X100965714Y-28901190D01*
X101918095Y-28472619D02*
X101965714Y-28425000D01*
X101965714Y-28425000D02*
X102060952Y-28377380D01*
X102060952Y-28377380D02*
X102299047Y-28377380D01*
X102299047Y-28377380D02*
X102394285Y-28425000D01*
X102394285Y-28425000D02*
X102441904Y-28472619D01*
X102441904Y-28472619D02*
X102489523Y-28567857D01*
X102489523Y-28567857D02*
X102489523Y-28663095D01*
X102489523Y-28663095D02*
X102441904Y-28805952D01*
X102441904Y-28805952D02*
X101870476Y-29377380D01*
X101870476Y-29377380D02*
X102489523Y-29377380D01*
X103060952Y-28805952D02*
X102965714Y-28758333D01*
X102965714Y-28758333D02*
X102918095Y-28710714D01*
X102918095Y-28710714D02*
X102870476Y-28615476D01*
X102870476Y-28615476D02*
X102870476Y-28567857D01*
X102870476Y-28567857D02*
X102918095Y-28472619D01*
X102918095Y-28472619D02*
X102965714Y-28425000D01*
X102965714Y-28425000D02*
X103060952Y-28377380D01*
X103060952Y-28377380D02*
X103251428Y-28377380D01*
X103251428Y-28377380D02*
X103346666Y-28425000D01*
X103346666Y-28425000D02*
X103394285Y-28472619D01*
X103394285Y-28472619D02*
X103441904Y-28567857D01*
X103441904Y-28567857D02*
X103441904Y-28615476D01*
X103441904Y-28615476D02*
X103394285Y-28710714D01*
X103394285Y-28710714D02*
X103346666Y-28758333D01*
X103346666Y-28758333D02*
X103251428Y-28805952D01*
X103251428Y-28805952D02*
X103060952Y-28805952D01*
X103060952Y-28805952D02*
X102965714Y-28853571D01*
X102965714Y-28853571D02*
X102918095Y-28901190D01*
X102918095Y-28901190D02*
X102870476Y-28996428D01*
X102870476Y-28996428D02*
X102870476Y-29186904D01*
X102870476Y-29186904D02*
X102918095Y-29282142D01*
X102918095Y-29282142D02*
X102965714Y-29329761D01*
X102965714Y-29329761D02*
X103060952Y-29377380D01*
X103060952Y-29377380D02*
X103251428Y-29377380D01*
X103251428Y-29377380D02*
X103346666Y-29329761D01*
X103346666Y-29329761D02*
X103394285Y-29282142D01*
X103394285Y-29282142D02*
X103441904Y-29186904D01*
X103441904Y-29186904D02*
X103441904Y-28996428D01*
X103441904Y-28996428D02*
X103394285Y-28901190D01*
X103394285Y-28901190D02*
X103346666Y-28853571D01*
X103346666Y-28853571D02*
X103251428Y-28805952D01*
%TO.C,U4*%
X188295595Y-66637380D02*
X188295595Y-67446904D01*
X188295595Y-67446904D02*
X188343214Y-67542142D01*
X188343214Y-67542142D02*
X188390833Y-67589761D01*
X188390833Y-67589761D02*
X188486071Y-67637380D01*
X188486071Y-67637380D02*
X188676547Y-67637380D01*
X188676547Y-67637380D02*
X188771785Y-67589761D01*
X188771785Y-67589761D02*
X188819404Y-67542142D01*
X188819404Y-67542142D02*
X188867023Y-67446904D01*
X188867023Y-67446904D02*
X188867023Y-66637380D01*
X189771785Y-66970714D02*
X189771785Y-67637380D01*
X189533690Y-66589761D02*
X189295595Y-67304047D01*
X189295595Y-67304047D02*
X189914642Y-67304047D01*
%TO.C,C3*%
X87103333Y-71492142D02*
X87055714Y-71539761D01*
X87055714Y-71539761D02*
X86912857Y-71587380D01*
X86912857Y-71587380D02*
X86817619Y-71587380D01*
X86817619Y-71587380D02*
X86674762Y-71539761D01*
X86674762Y-71539761D02*
X86579524Y-71444523D01*
X86579524Y-71444523D02*
X86531905Y-71349285D01*
X86531905Y-71349285D02*
X86484286Y-71158809D01*
X86484286Y-71158809D02*
X86484286Y-71015952D01*
X86484286Y-71015952D02*
X86531905Y-70825476D01*
X86531905Y-70825476D02*
X86579524Y-70730238D01*
X86579524Y-70730238D02*
X86674762Y-70635000D01*
X86674762Y-70635000D02*
X86817619Y-70587380D01*
X86817619Y-70587380D02*
X86912857Y-70587380D01*
X86912857Y-70587380D02*
X87055714Y-70635000D01*
X87055714Y-70635000D02*
X87103333Y-70682619D01*
X87436667Y-70587380D02*
X88055714Y-70587380D01*
X88055714Y-70587380D02*
X87722381Y-70968333D01*
X87722381Y-70968333D02*
X87865238Y-70968333D01*
X87865238Y-70968333D02*
X87960476Y-71015952D01*
X87960476Y-71015952D02*
X88008095Y-71063571D01*
X88008095Y-71063571D02*
X88055714Y-71158809D01*
X88055714Y-71158809D02*
X88055714Y-71396904D01*
X88055714Y-71396904D02*
X88008095Y-71492142D01*
X88008095Y-71492142D02*
X87960476Y-71539761D01*
X87960476Y-71539761D02*
X87865238Y-71587380D01*
X87865238Y-71587380D02*
X87579524Y-71587380D01*
X87579524Y-71587380D02*
X87484286Y-71539761D01*
X87484286Y-71539761D02*
X87436667Y-71492142D01*
%TO.C,C18*%
X147592142Y-137262857D02*
X147639761Y-137310476D01*
X147639761Y-137310476D02*
X147687380Y-137453333D01*
X147687380Y-137453333D02*
X147687380Y-137548571D01*
X147687380Y-137548571D02*
X147639761Y-137691428D01*
X147639761Y-137691428D02*
X147544523Y-137786666D01*
X147544523Y-137786666D02*
X147449285Y-137834285D01*
X147449285Y-137834285D02*
X147258809Y-137881904D01*
X147258809Y-137881904D02*
X147115952Y-137881904D01*
X147115952Y-137881904D02*
X146925476Y-137834285D01*
X146925476Y-137834285D02*
X146830238Y-137786666D01*
X146830238Y-137786666D02*
X146735000Y-137691428D01*
X146735000Y-137691428D02*
X146687380Y-137548571D01*
X146687380Y-137548571D02*
X146687380Y-137453333D01*
X146687380Y-137453333D02*
X146735000Y-137310476D01*
X146735000Y-137310476D02*
X146782619Y-137262857D01*
X147687380Y-136310476D02*
X147687380Y-136881904D01*
X147687380Y-136596190D02*
X146687380Y-136596190D01*
X146687380Y-136596190D02*
X146830238Y-136691428D01*
X146830238Y-136691428D02*
X146925476Y-136786666D01*
X146925476Y-136786666D02*
X146973095Y-136881904D01*
X147115952Y-135739047D02*
X147068333Y-135834285D01*
X147068333Y-135834285D02*
X147020714Y-135881904D01*
X147020714Y-135881904D02*
X146925476Y-135929523D01*
X146925476Y-135929523D02*
X146877857Y-135929523D01*
X146877857Y-135929523D02*
X146782619Y-135881904D01*
X146782619Y-135881904D02*
X146735000Y-135834285D01*
X146735000Y-135834285D02*
X146687380Y-135739047D01*
X146687380Y-135739047D02*
X146687380Y-135548571D01*
X146687380Y-135548571D02*
X146735000Y-135453333D01*
X146735000Y-135453333D02*
X146782619Y-135405714D01*
X146782619Y-135405714D02*
X146877857Y-135358095D01*
X146877857Y-135358095D02*
X146925476Y-135358095D01*
X146925476Y-135358095D02*
X147020714Y-135405714D01*
X147020714Y-135405714D02*
X147068333Y-135453333D01*
X147068333Y-135453333D02*
X147115952Y-135548571D01*
X147115952Y-135548571D02*
X147115952Y-135739047D01*
X147115952Y-135739047D02*
X147163571Y-135834285D01*
X147163571Y-135834285D02*
X147211190Y-135881904D01*
X147211190Y-135881904D02*
X147306428Y-135929523D01*
X147306428Y-135929523D02*
X147496904Y-135929523D01*
X147496904Y-135929523D02*
X147592142Y-135881904D01*
X147592142Y-135881904D02*
X147639761Y-135834285D01*
X147639761Y-135834285D02*
X147687380Y-135739047D01*
X147687380Y-135739047D02*
X147687380Y-135548571D01*
X147687380Y-135548571D02*
X147639761Y-135453333D01*
X147639761Y-135453333D02*
X147592142Y-135405714D01*
X147592142Y-135405714D02*
X147496904Y-135358095D01*
X147496904Y-135358095D02*
X147306428Y-135358095D01*
X147306428Y-135358095D02*
X147211190Y-135405714D01*
X147211190Y-135405714D02*
X147163571Y-135453333D01*
X147163571Y-135453333D02*
X147115952Y-135548571D01*
%TO.C,C16*%
X147592142Y-109402857D02*
X147639761Y-109450476D01*
X147639761Y-109450476D02*
X147687380Y-109593333D01*
X147687380Y-109593333D02*
X147687380Y-109688571D01*
X147687380Y-109688571D02*
X147639761Y-109831428D01*
X147639761Y-109831428D02*
X147544523Y-109926666D01*
X147544523Y-109926666D02*
X147449285Y-109974285D01*
X147449285Y-109974285D02*
X147258809Y-110021904D01*
X147258809Y-110021904D02*
X147115952Y-110021904D01*
X147115952Y-110021904D02*
X146925476Y-109974285D01*
X146925476Y-109974285D02*
X146830238Y-109926666D01*
X146830238Y-109926666D02*
X146735000Y-109831428D01*
X146735000Y-109831428D02*
X146687380Y-109688571D01*
X146687380Y-109688571D02*
X146687380Y-109593333D01*
X146687380Y-109593333D02*
X146735000Y-109450476D01*
X146735000Y-109450476D02*
X146782619Y-109402857D01*
X147687380Y-108450476D02*
X147687380Y-109021904D01*
X147687380Y-108736190D02*
X146687380Y-108736190D01*
X146687380Y-108736190D02*
X146830238Y-108831428D01*
X146830238Y-108831428D02*
X146925476Y-108926666D01*
X146925476Y-108926666D02*
X146973095Y-109021904D01*
X146687380Y-107593333D02*
X146687380Y-107783809D01*
X146687380Y-107783809D02*
X146735000Y-107879047D01*
X146735000Y-107879047D02*
X146782619Y-107926666D01*
X146782619Y-107926666D02*
X146925476Y-108021904D01*
X146925476Y-108021904D02*
X147115952Y-108069523D01*
X147115952Y-108069523D02*
X147496904Y-108069523D01*
X147496904Y-108069523D02*
X147592142Y-108021904D01*
X147592142Y-108021904D02*
X147639761Y-107974285D01*
X147639761Y-107974285D02*
X147687380Y-107879047D01*
X147687380Y-107879047D02*
X147687380Y-107688571D01*
X147687380Y-107688571D02*
X147639761Y-107593333D01*
X147639761Y-107593333D02*
X147592142Y-107545714D01*
X147592142Y-107545714D02*
X147496904Y-107498095D01*
X147496904Y-107498095D02*
X147258809Y-107498095D01*
X147258809Y-107498095D02*
X147163571Y-107545714D01*
X147163571Y-107545714D02*
X147115952Y-107593333D01*
X147115952Y-107593333D02*
X147068333Y-107688571D01*
X147068333Y-107688571D02*
X147068333Y-107879047D01*
X147068333Y-107879047D02*
X147115952Y-107974285D01*
X147115952Y-107974285D02*
X147163571Y-108021904D01*
X147163571Y-108021904D02*
X147258809Y-108069523D01*
%TO.C,H3*%
X80238095Y-149367380D02*
X80238095Y-148367380D01*
X80238095Y-148843571D02*
X80809523Y-148843571D01*
X80809523Y-149367380D02*
X80809523Y-148367380D01*
X81190476Y-148367380D02*
X81809523Y-148367380D01*
X81809523Y-148367380D02*
X81476190Y-148748333D01*
X81476190Y-148748333D02*
X81619047Y-148748333D01*
X81619047Y-148748333D02*
X81714285Y-148795952D01*
X81714285Y-148795952D02*
X81761904Y-148843571D01*
X81761904Y-148843571D02*
X81809523Y-148938809D01*
X81809523Y-148938809D02*
X81809523Y-149176904D01*
X81809523Y-149176904D02*
X81761904Y-149272142D01*
X81761904Y-149272142D02*
X81714285Y-149319761D01*
X81714285Y-149319761D02*
X81619047Y-149367380D01*
X81619047Y-149367380D02*
X81333333Y-149367380D01*
X81333333Y-149367380D02*
X81238095Y-149319761D01*
X81238095Y-149319761D02*
X81190476Y-149272142D01*
%TO.C,C13*%
X151757142Y-70852142D02*
X151709523Y-70899761D01*
X151709523Y-70899761D02*
X151566666Y-70947380D01*
X151566666Y-70947380D02*
X151471428Y-70947380D01*
X151471428Y-70947380D02*
X151328571Y-70899761D01*
X151328571Y-70899761D02*
X151233333Y-70804523D01*
X151233333Y-70804523D02*
X151185714Y-70709285D01*
X151185714Y-70709285D02*
X151138095Y-70518809D01*
X151138095Y-70518809D02*
X151138095Y-70375952D01*
X151138095Y-70375952D02*
X151185714Y-70185476D01*
X151185714Y-70185476D02*
X151233333Y-70090238D01*
X151233333Y-70090238D02*
X151328571Y-69995000D01*
X151328571Y-69995000D02*
X151471428Y-69947380D01*
X151471428Y-69947380D02*
X151566666Y-69947380D01*
X151566666Y-69947380D02*
X151709523Y-69995000D01*
X151709523Y-69995000D02*
X151757142Y-70042619D01*
X152709523Y-70947380D02*
X152138095Y-70947380D01*
X152423809Y-70947380D02*
X152423809Y-69947380D01*
X152423809Y-69947380D02*
X152328571Y-70090238D01*
X152328571Y-70090238D02*
X152233333Y-70185476D01*
X152233333Y-70185476D02*
X152138095Y-70233095D01*
X153042857Y-69947380D02*
X153661904Y-69947380D01*
X153661904Y-69947380D02*
X153328571Y-70328333D01*
X153328571Y-70328333D02*
X153471428Y-70328333D01*
X153471428Y-70328333D02*
X153566666Y-70375952D01*
X153566666Y-70375952D02*
X153614285Y-70423571D01*
X153614285Y-70423571D02*
X153661904Y-70518809D01*
X153661904Y-70518809D02*
X153661904Y-70756904D01*
X153661904Y-70756904D02*
X153614285Y-70852142D01*
X153614285Y-70852142D02*
X153566666Y-70899761D01*
X153566666Y-70899761D02*
X153471428Y-70947380D01*
X153471428Y-70947380D02*
X153185714Y-70947380D01*
X153185714Y-70947380D02*
X153090476Y-70899761D01*
X153090476Y-70899761D02*
X153042857Y-70852142D01*
%TO.C,U8*%
X188295595Y-122517380D02*
X188295595Y-123326904D01*
X188295595Y-123326904D02*
X188343214Y-123422142D01*
X188343214Y-123422142D02*
X188390833Y-123469761D01*
X188390833Y-123469761D02*
X188486071Y-123517380D01*
X188486071Y-123517380D02*
X188676547Y-123517380D01*
X188676547Y-123517380D02*
X188771785Y-123469761D01*
X188771785Y-123469761D02*
X188819404Y-123422142D01*
X188819404Y-123422142D02*
X188867023Y-123326904D01*
X188867023Y-123326904D02*
X188867023Y-122517380D01*
X189486071Y-122945952D02*
X189390833Y-122898333D01*
X189390833Y-122898333D02*
X189343214Y-122850714D01*
X189343214Y-122850714D02*
X189295595Y-122755476D01*
X189295595Y-122755476D02*
X189295595Y-122707857D01*
X189295595Y-122707857D02*
X189343214Y-122612619D01*
X189343214Y-122612619D02*
X189390833Y-122565000D01*
X189390833Y-122565000D02*
X189486071Y-122517380D01*
X189486071Y-122517380D02*
X189676547Y-122517380D01*
X189676547Y-122517380D02*
X189771785Y-122565000D01*
X189771785Y-122565000D02*
X189819404Y-122612619D01*
X189819404Y-122612619D02*
X189867023Y-122707857D01*
X189867023Y-122707857D02*
X189867023Y-122755476D01*
X189867023Y-122755476D02*
X189819404Y-122850714D01*
X189819404Y-122850714D02*
X189771785Y-122898333D01*
X189771785Y-122898333D02*
X189676547Y-122945952D01*
X189676547Y-122945952D02*
X189486071Y-122945952D01*
X189486071Y-122945952D02*
X189390833Y-122993571D01*
X189390833Y-122993571D02*
X189343214Y-123041190D01*
X189343214Y-123041190D02*
X189295595Y-123136428D01*
X189295595Y-123136428D02*
X189295595Y-123326904D01*
X189295595Y-123326904D02*
X189343214Y-123422142D01*
X189343214Y-123422142D02*
X189390833Y-123469761D01*
X189390833Y-123469761D02*
X189486071Y-123517380D01*
X189486071Y-123517380D02*
X189676547Y-123517380D01*
X189676547Y-123517380D02*
X189771785Y-123469761D01*
X189771785Y-123469761D02*
X189819404Y-123422142D01*
X189819404Y-123422142D02*
X189867023Y-123326904D01*
X189867023Y-123326904D02*
X189867023Y-123136428D01*
X189867023Y-123136428D02*
X189819404Y-123041190D01*
X189819404Y-123041190D02*
X189771785Y-122993571D01*
X189771785Y-122993571D02*
X189676547Y-122945952D01*
%TO.C,R31*%
X131397142Y-104177380D02*
X131063809Y-103701190D01*
X130825714Y-104177380D02*
X130825714Y-103177380D01*
X130825714Y-103177380D02*
X131206666Y-103177380D01*
X131206666Y-103177380D02*
X131301904Y-103225000D01*
X131301904Y-103225000D02*
X131349523Y-103272619D01*
X131349523Y-103272619D02*
X131397142Y-103367857D01*
X131397142Y-103367857D02*
X131397142Y-103510714D01*
X131397142Y-103510714D02*
X131349523Y-103605952D01*
X131349523Y-103605952D02*
X131301904Y-103653571D01*
X131301904Y-103653571D02*
X131206666Y-103701190D01*
X131206666Y-103701190D02*
X130825714Y-103701190D01*
X131730476Y-103177380D02*
X132349523Y-103177380D01*
X132349523Y-103177380D02*
X132016190Y-103558333D01*
X132016190Y-103558333D02*
X132159047Y-103558333D01*
X132159047Y-103558333D02*
X132254285Y-103605952D01*
X132254285Y-103605952D02*
X132301904Y-103653571D01*
X132301904Y-103653571D02*
X132349523Y-103748809D01*
X132349523Y-103748809D02*
X132349523Y-103986904D01*
X132349523Y-103986904D02*
X132301904Y-104082142D01*
X132301904Y-104082142D02*
X132254285Y-104129761D01*
X132254285Y-104129761D02*
X132159047Y-104177380D01*
X132159047Y-104177380D02*
X131873333Y-104177380D01*
X131873333Y-104177380D02*
X131778095Y-104129761D01*
X131778095Y-104129761D02*
X131730476Y-104082142D01*
X133301904Y-104177380D02*
X132730476Y-104177380D01*
X133016190Y-104177380D02*
X133016190Y-103177380D01*
X133016190Y-103177380D02*
X132920952Y-103320238D01*
X132920952Y-103320238D02*
X132825714Y-103415476D01*
X132825714Y-103415476D02*
X132730476Y-103463095D01*
%TO.C,R18*%
X176157142Y-96867380D02*
X175823809Y-96391190D01*
X175585714Y-96867380D02*
X175585714Y-95867380D01*
X175585714Y-95867380D02*
X175966666Y-95867380D01*
X175966666Y-95867380D02*
X176061904Y-95915000D01*
X176061904Y-95915000D02*
X176109523Y-95962619D01*
X176109523Y-95962619D02*
X176157142Y-96057857D01*
X176157142Y-96057857D02*
X176157142Y-96200714D01*
X176157142Y-96200714D02*
X176109523Y-96295952D01*
X176109523Y-96295952D02*
X176061904Y-96343571D01*
X176061904Y-96343571D02*
X175966666Y-96391190D01*
X175966666Y-96391190D02*
X175585714Y-96391190D01*
X177109523Y-96867380D02*
X176538095Y-96867380D01*
X176823809Y-96867380D02*
X176823809Y-95867380D01*
X176823809Y-95867380D02*
X176728571Y-96010238D01*
X176728571Y-96010238D02*
X176633333Y-96105476D01*
X176633333Y-96105476D02*
X176538095Y-96153095D01*
X177680952Y-96295952D02*
X177585714Y-96248333D01*
X177585714Y-96248333D02*
X177538095Y-96200714D01*
X177538095Y-96200714D02*
X177490476Y-96105476D01*
X177490476Y-96105476D02*
X177490476Y-96057857D01*
X177490476Y-96057857D02*
X177538095Y-95962619D01*
X177538095Y-95962619D02*
X177585714Y-95915000D01*
X177585714Y-95915000D02*
X177680952Y-95867380D01*
X177680952Y-95867380D02*
X177871428Y-95867380D01*
X177871428Y-95867380D02*
X177966666Y-95915000D01*
X177966666Y-95915000D02*
X178014285Y-95962619D01*
X178014285Y-95962619D02*
X178061904Y-96057857D01*
X178061904Y-96057857D02*
X178061904Y-96105476D01*
X178061904Y-96105476D02*
X178014285Y-96200714D01*
X178014285Y-96200714D02*
X177966666Y-96248333D01*
X177966666Y-96248333D02*
X177871428Y-96295952D01*
X177871428Y-96295952D02*
X177680952Y-96295952D01*
X177680952Y-96295952D02*
X177585714Y-96343571D01*
X177585714Y-96343571D02*
X177538095Y-96391190D01*
X177538095Y-96391190D02*
X177490476Y-96486428D01*
X177490476Y-96486428D02*
X177490476Y-96676904D01*
X177490476Y-96676904D02*
X177538095Y-96772142D01*
X177538095Y-96772142D02*
X177585714Y-96819761D01*
X177585714Y-96819761D02*
X177680952Y-96867380D01*
X177680952Y-96867380D02*
X177871428Y-96867380D01*
X177871428Y-96867380D02*
X177966666Y-96819761D01*
X177966666Y-96819761D02*
X178014285Y-96772142D01*
X178014285Y-96772142D02*
X178061904Y-96676904D01*
X178061904Y-96676904D02*
X178061904Y-96486428D01*
X178061904Y-96486428D02*
X178014285Y-96391190D01*
X178014285Y-96391190D02*
X177966666Y-96343571D01*
X177966666Y-96343571D02*
X177871428Y-96295952D01*
%TO.C,R20*%
X191367380Y-93142857D02*
X190891190Y-93476190D01*
X191367380Y-93714285D02*
X190367380Y-93714285D01*
X190367380Y-93714285D02*
X190367380Y-93333333D01*
X190367380Y-93333333D02*
X190415000Y-93238095D01*
X190415000Y-93238095D02*
X190462619Y-93190476D01*
X190462619Y-93190476D02*
X190557857Y-93142857D01*
X190557857Y-93142857D02*
X190700714Y-93142857D01*
X190700714Y-93142857D02*
X190795952Y-93190476D01*
X190795952Y-93190476D02*
X190843571Y-93238095D01*
X190843571Y-93238095D02*
X190891190Y-93333333D01*
X190891190Y-93333333D02*
X190891190Y-93714285D01*
X190462619Y-92761904D02*
X190415000Y-92714285D01*
X190415000Y-92714285D02*
X190367380Y-92619047D01*
X190367380Y-92619047D02*
X190367380Y-92380952D01*
X190367380Y-92380952D02*
X190415000Y-92285714D01*
X190415000Y-92285714D02*
X190462619Y-92238095D01*
X190462619Y-92238095D02*
X190557857Y-92190476D01*
X190557857Y-92190476D02*
X190653095Y-92190476D01*
X190653095Y-92190476D02*
X190795952Y-92238095D01*
X190795952Y-92238095D02*
X191367380Y-92809523D01*
X191367380Y-92809523D02*
X191367380Y-92190476D01*
X190367380Y-91571428D02*
X190367380Y-91476190D01*
X190367380Y-91476190D02*
X190415000Y-91380952D01*
X190415000Y-91380952D02*
X190462619Y-91333333D01*
X190462619Y-91333333D02*
X190557857Y-91285714D01*
X190557857Y-91285714D02*
X190748333Y-91238095D01*
X190748333Y-91238095D02*
X190986428Y-91238095D01*
X190986428Y-91238095D02*
X191176904Y-91285714D01*
X191176904Y-91285714D02*
X191272142Y-91333333D01*
X191272142Y-91333333D02*
X191319761Y-91380952D01*
X191319761Y-91380952D02*
X191367380Y-91476190D01*
X191367380Y-91476190D02*
X191367380Y-91571428D01*
X191367380Y-91571428D02*
X191319761Y-91666666D01*
X191319761Y-91666666D02*
X191272142Y-91714285D01*
X191272142Y-91714285D02*
X191176904Y-91761904D01*
X191176904Y-91761904D02*
X190986428Y-91809523D01*
X190986428Y-91809523D02*
X190748333Y-91809523D01*
X190748333Y-91809523D02*
X190557857Y-91761904D01*
X190557857Y-91761904D02*
X190462619Y-91714285D01*
X190462619Y-91714285D02*
X190415000Y-91666666D01*
X190415000Y-91666666D02*
X190367380Y-91571428D01*
%TO.C,U6*%
X188295595Y-94577380D02*
X188295595Y-95386904D01*
X188295595Y-95386904D02*
X188343214Y-95482142D01*
X188343214Y-95482142D02*
X188390833Y-95529761D01*
X188390833Y-95529761D02*
X188486071Y-95577380D01*
X188486071Y-95577380D02*
X188676547Y-95577380D01*
X188676547Y-95577380D02*
X188771785Y-95529761D01*
X188771785Y-95529761D02*
X188819404Y-95482142D01*
X188819404Y-95482142D02*
X188867023Y-95386904D01*
X188867023Y-95386904D02*
X188867023Y-94577380D01*
X189771785Y-94577380D02*
X189581309Y-94577380D01*
X189581309Y-94577380D02*
X189486071Y-94625000D01*
X189486071Y-94625000D02*
X189438452Y-94672619D01*
X189438452Y-94672619D02*
X189343214Y-94815476D01*
X189343214Y-94815476D02*
X189295595Y-95005952D01*
X189295595Y-95005952D02*
X189295595Y-95386904D01*
X189295595Y-95386904D02*
X189343214Y-95482142D01*
X189343214Y-95482142D02*
X189390833Y-95529761D01*
X189390833Y-95529761D02*
X189486071Y-95577380D01*
X189486071Y-95577380D02*
X189676547Y-95577380D01*
X189676547Y-95577380D02*
X189771785Y-95529761D01*
X189771785Y-95529761D02*
X189819404Y-95482142D01*
X189819404Y-95482142D02*
X189867023Y-95386904D01*
X189867023Y-95386904D02*
X189867023Y-95148809D01*
X189867023Y-95148809D02*
X189819404Y-95053571D01*
X189819404Y-95053571D02*
X189771785Y-95005952D01*
X189771785Y-95005952D02*
X189676547Y-94958333D01*
X189676547Y-94958333D02*
X189486071Y-94958333D01*
X189486071Y-94958333D02*
X189390833Y-95005952D01*
X189390833Y-95005952D02*
X189343214Y-95053571D01*
X189343214Y-95053571D02*
X189295595Y-95148809D01*
%TO.C,TP7*%
X161958095Y-97887380D02*
X162529523Y-97887380D01*
X162243809Y-98887380D02*
X162243809Y-97887380D01*
X162862857Y-98887380D02*
X162862857Y-97887380D01*
X162862857Y-97887380D02*
X163243809Y-97887380D01*
X163243809Y-97887380D02*
X163339047Y-97935000D01*
X163339047Y-97935000D02*
X163386666Y-97982619D01*
X163386666Y-97982619D02*
X163434285Y-98077857D01*
X163434285Y-98077857D02*
X163434285Y-98220714D01*
X163434285Y-98220714D02*
X163386666Y-98315952D01*
X163386666Y-98315952D02*
X163339047Y-98363571D01*
X163339047Y-98363571D02*
X163243809Y-98411190D01*
X163243809Y-98411190D02*
X162862857Y-98411190D01*
X163767619Y-97887380D02*
X164434285Y-97887380D01*
X164434285Y-97887380D02*
X164005714Y-98887380D01*
%TO.C,C10*%
X116377142Y-70022142D02*
X116329523Y-70069761D01*
X116329523Y-70069761D02*
X116186666Y-70117380D01*
X116186666Y-70117380D02*
X116091428Y-70117380D01*
X116091428Y-70117380D02*
X115948571Y-70069761D01*
X115948571Y-70069761D02*
X115853333Y-69974523D01*
X115853333Y-69974523D02*
X115805714Y-69879285D01*
X115805714Y-69879285D02*
X115758095Y-69688809D01*
X115758095Y-69688809D02*
X115758095Y-69545952D01*
X115758095Y-69545952D02*
X115805714Y-69355476D01*
X115805714Y-69355476D02*
X115853333Y-69260238D01*
X115853333Y-69260238D02*
X115948571Y-69165000D01*
X115948571Y-69165000D02*
X116091428Y-69117380D01*
X116091428Y-69117380D02*
X116186666Y-69117380D01*
X116186666Y-69117380D02*
X116329523Y-69165000D01*
X116329523Y-69165000D02*
X116377142Y-69212619D01*
X117329523Y-70117380D02*
X116758095Y-70117380D01*
X117043809Y-70117380D02*
X117043809Y-69117380D01*
X117043809Y-69117380D02*
X116948571Y-69260238D01*
X116948571Y-69260238D02*
X116853333Y-69355476D01*
X116853333Y-69355476D02*
X116758095Y-69403095D01*
X117948571Y-69117380D02*
X118043809Y-69117380D01*
X118043809Y-69117380D02*
X118139047Y-69165000D01*
X118139047Y-69165000D02*
X118186666Y-69212619D01*
X118186666Y-69212619D02*
X118234285Y-69307857D01*
X118234285Y-69307857D02*
X118281904Y-69498333D01*
X118281904Y-69498333D02*
X118281904Y-69736428D01*
X118281904Y-69736428D02*
X118234285Y-69926904D01*
X118234285Y-69926904D02*
X118186666Y-70022142D01*
X118186666Y-70022142D02*
X118139047Y-70069761D01*
X118139047Y-70069761D02*
X118043809Y-70117380D01*
X118043809Y-70117380D02*
X117948571Y-70117380D01*
X117948571Y-70117380D02*
X117853333Y-70069761D01*
X117853333Y-70069761D02*
X117805714Y-70022142D01*
X117805714Y-70022142D02*
X117758095Y-69926904D01*
X117758095Y-69926904D02*
X117710476Y-69736428D01*
X117710476Y-69736428D02*
X117710476Y-69498333D01*
X117710476Y-69498333D02*
X117758095Y-69307857D01*
X117758095Y-69307857D02*
X117805714Y-69212619D01*
X117805714Y-69212619D02*
X117853333Y-69165000D01*
X117853333Y-69165000D02*
X117948571Y-69117380D01*
%TO.C,TP1*%
X116058095Y-48227380D02*
X116629523Y-48227380D01*
X116343809Y-49227380D02*
X116343809Y-48227380D01*
X116962857Y-49227380D02*
X116962857Y-48227380D01*
X116962857Y-48227380D02*
X117343809Y-48227380D01*
X117343809Y-48227380D02*
X117439047Y-48275000D01*
X117439047Y-48275000D02*
X117486666Y-48322619D01*
X117486666Y-48322619D02*
X117534285Y-48417857D01*
X117534285Y-48417857D02*
X117534285Y-48560714D01*
X117534285Y-48560714D02*
X117486666Y-48655952D01*
X117486666Y-48655952D02*
X117439047Y-48703571D01*
X117439047Y-48703571D02*
X117343809Y-48751190D01*
X117343809Y-48751190D02*
X116962857Y-48751190D01*
X118486666Y-49227380D02*
X117915238Y-49227380D01*
X118200952Y-49227380D02*
X118200952Y-48227380D01*
X118200952Y-48227380D02*
X118105714Y-48370238D01*
X118105714Y-48370238D02*
X118010476Y-48465476D01*
X118010476Y-48465476D02*
X117915238Y-48513095D01*
%TO.C,C22*%
X196272142Y-127182857D02*
X196319761Y-127230476D01*
X196319761Y-127230476D02*
X196367380Y-127373333D01*
X196367380Y-127373333D02*
X196367380Y-127468571D01*
X196367380Y-127468571D02*
X196319761Y-127611428D01*
X196319761Y-127611428D02*
X196224523Y-127706666D01*
X196224523Y-127706666D02*
X196129285Y-127754285D01*
X196129285Y-127754285D02*
X195938809Y-127801904D01*
X195938809Y-127801904D02*
X195795952Y-127801904D01*
X195795952Y-127801904D02*
X195605476Y-127754285D01*
X195605476Y-127754285D02*
X195510238Y-127706666D01*
X195510238Y-127706666D02*
X195415000Y-127611428D01*
X195415000Y-127611428D02*
X195367380Y-127468571D01*
X195367380Y-127468571D02*
X195367380Y-127373333D01*
X195367380Y-127373333D02*
X195415000Y-127230476D01*
X195415000Y-127230476D02*
X195462619Y-127182857D01*
X195462619Y-126801904D02*
X195415000Y-126754285D01*
X195415000Y-126754285D02*
X195367380Y-126659047D01*
X195367380Y-126659047D02*
X195367380Y-126420952D01*
X195367380Y-126420952D02*
X195415000Y-126325714D01*
X195415000Y-126325714D02*
X195462619Y-126278095D01*
X195462619Y-126278095D02*
X195557857Y-126230476D01*
X195557857Y-126230476D02*
X195653095Y-126230476D01*
X195653095Y-126230476D02*
X195795952Y-126278095D01*
X195795952Y-126278095D02*
X196367380Y-126849523D01*
X196367380Y-126849523D02*
X196367380Y-126230476D01*
X195462619Y-125849523D02*
X195415000Y-125801904D01*
X195415000Y-125801904D02*
X195367380Y-125706666D01*
X195367380Y-125706666D02*
X195367380Y-125468571D01*
X195367380Y-125468571D02*
X195415000Y-125373333D01*
X195415000Y-125373333D02*
X195462619Y-125325714D01*
X195462619Y-125325714D02*
X195557857Y-125278095D01*
X195557857Y-125278095D02*
X195653095Y-125278095D01*
X195653095Y-125278095D02*
X195795952Y-125325714D01*
X195795952Y-125325714D02*
X196367380Y-125897142D01*
X196367380Y-125897142D02*
X196367380Y-125278095D01*
%TO.C,D4*%
X87606905Y-24957380D02*
X87606905Y-23957380D01*
X87606905Y-23957380D02*
X87845000Y-23957380D01*
X87845000Y-23957380D02*
X87987857Y-24005000D01*
X87987857Y-24005000D02*
X88083095Y-24100238D01*
X88083095Y-24100238D02*
X88130714Y-24195476D01*
X88130714Y-24195476D02*
X88178333Y-24385952D01*
X88178333Y-24385952D02*
X88178333Y-24528809D01*
X88178333Y-24528809D02*
X88130714Y-24719285D01*
X88130714Y-24719285D02*
X88083095Y-24814523D01*
X88083095Y-24814523D02*
X87987857Y-24909761D01*
X87987857Y-24909761D02*
X87845000Y-24957380D01*
X87845000Y-24957380D02*
X87606905Y-24957380D01*
X89035476Y-24290714D02*
X89035476Y-24957380D01*
X88797381Y-23909761D02*
X88559286Y-24624047D01*
X88559286Y-24624047D02*
X89178333Y-24624047D01*
%TO.C,H2*%
X80238095Y-15367380D02*
X80238095Y-14367380D01*
X80238095Y-14843571D02*
X80809523Y-14843571D01*
X80809523Y-15367380D02*
X80809523Y-14367380D01*
X81238095Y-14462619D02*
X81285714Y-14415000D01*
X81285714Y-14415000D02*
X81380952Y-14367380D01*
X81380952Y-14367380D02*
X81619047Y-14367380D01*
X81619047Y-14367380D02*
X81714285Y-14415000D01*
X81714285Y-14415000D02*
X81761904Y-14462619D01*
X81761904Y-14462619D02*
X81809523Y-14557857D01*
X81809523Y-14557857D02*
X81809523Y-14653095D01*
X81809523Y-14653095D02*
X81761904Y-14795952D01*
X81761904Y-14795952D02*
X81190476Y-15367380D01*
X81190476Y-15367380D02*
X81809523Y-15367380D01*
%TO.C,R5*%
X144573333Y-104387380D02*
X144240000Y-103911190D01*
X144001905Y-104387380D02*
X144001905Y-103387380D01*
X144001905Y-103387380D02*
X144382857Y-103387380D01*
X144382857Y-103387380D02*
X144478095Y-103435000D01*
X144478095Y-103435000D02*
X144525714Y-103482619D01*
X144525714Y-103482619D02*
X144573333Y-103577857D01*
X144573333Y-103577857D02*
X144573333Y-103720714D01*
X144573333Y-103720714D02*
X144525714Y-103815952D01*
X144525714Y-103815952D02*
X144478095Y-103863571D01*
X144478095Y-103863571D02*
X144382857Y-103911190D01*
X144382857Y-103911190D02*
X144001905Y-103911190D01*
X145478095Y-103387380D02*
X145001905Y-103387380D01*
X145001905Y-103387380D02*
X144954286Y-103863571D01*
X144954286Y-103863571D02*
X145001905Y-103815952D01*
X145001905Y-103815952D02*
X145097143Y-103768333D01*
X145097143Y-103768333D02*
X145335238Y-103768333D01*
X145335238Y-103768333D02*
X145430476Y-103815952D01*
X145430476Y-103815952D02*
X145478095Y-103863571D01*
X145478095Y-103863571D02*
X145525714Y-103958809D01*
X145525714Y-103958809D02*
X145525714Y-104196904D01*
X145525714Y-104196904D02*
X145478095Y-104292142D01*
X145478095Y-104292142D02*
X145430476Y-104339761D01*
X145430476Y-104339761D02*
X145335238Y-104387380D01*
X145335238Y-104387380D02*
X145097143Y-104387380D01*
X145097143Y-104387380D02*
X145001905Y-104339761D01*
X145001905Y-104339761D02*
X144954286Y-104292142D01*
%TO.C,C12*%
X147592142Y-53522857D02*
X147639761Y-53570476D01*
X147639761Y-53570476D02*
X147687380Y-53713333D01*
X147687380Y-53713333D02*
X147687380Y-53808571D01*
X147687380Y-53808571D02*
X147639761Y-53951428D01*
X147639761Y-53951428D02*
X147544523Y-54046666D01*
X147544523Y-54046666D02*
X147449285Y-54094285D01*
X147449285Y-54094285D02*
X147258809Y-54141904D01*
X147258809Y-54141904D02*
X147115952Y-54141904D01*
X147115952Y-54141904D02*
X146925476Y-54094285D01*
X146925476Y-54094285D02*
X146830238Y-54046666D01*
X146830238Y-54046666D02*
X146735000Y-53951428D01*
X146735000Y-53951428D02*
X146687380Y-53808571D01*
X146687380Y-53808571D02*
X146687380Y-53713333D01*
X146687380Y-53713333D02*
X146735000Y-53570476D01*
X146735000Y-53570476D02*
X146782619Y-53522857D01*
X147687380Y-52570476D02*
X147687380Y-53141904D01*
X147687380Y-52856190D02*
X146687380Y-52856190D01*
X146687380Y-52856190D02*
X146830238Y-52951428D01*
X146830238Y-52951428D02*
X146925476Y-53046666D01*
X146925476Y-53046666D02*
X146973095Y-53141904D01*
X146782619Y-52189523D02*
X146735000Y-52141904D01*
X146735000Y-52141904D02*
X146687380Y-52046666D01*
X146687380Y-52046666D02*
X146687380Y-51808571D01*
X146687380Y-51808571D02*
X146735000Y-51713333D01*
X146735000Y-51713333D02*
X146782619Y-51665714D01*
X146782619Y-51665714D02*
X146877857Y-51618095D01*
X146877857Y-51618095D02*
X146973095Y-51618095D01*
X146973095Y-51618095D02*
X147115952Y-51665714D01*
X147115952Y-51665714D02*
X147687380Y-52237142D01*
X147687380Y-52237142D02*
X147687380Y-51618095D01*
%TO.C,J2*%
X201417380Y-64613333D02*
X202131666Y-64613333D01*
X202131666Y-64613333D02*
X202274523Y-64660952D01*
X202274523Y-64660952D02*
X202369761Y-64756190D01*
X202369761Y-64756190D02*
X202417380Y-64899047D01*
X202417380Y-64899047D02*
X202417380Y-64994285D01*
X201512619Y-64184761D02*
X201465000Y-64137142D01*
X201465000Y-64137142D02*
X201417380Y-64041904D01*
X201417380Y-64041904D02*
X201417380Y-63803809D01*
X201417380Y-63803809D02*
X201465000Y-63708571D01*
X201465000Y-63708571D02*
X201512619Y-63660952D01*
X201512619Y-63660952D02*
X201607857Y-63613333D01*
X201607857Y-63613333D02*
X201703095Y-63613333D01*
X201703095Y-63613333D02*
X201845952Y-63660952D01*
X201845952Y-63660952D02*
X202417380Y-64232380D01*
X202417380Y-64232380D02*
X202417380Y-63613333D01*
%TO.C,TP8*%
X161958095Y-125827380D02*
X162529523Y-125827380D01*
X162243809Y-126827380D02*
X162243809Y-125827380D01*
X162862857Y-126827380D02*
X162862857Y-125827380D01*
X162862857Y-125827380D02*
X163243809Y-125827380D01*
X163243809Y-125827380D02*
X163339047Y-125875000D01*
X163339047Y-125875000D02*
X163386666Y-125922619D01*
X163386666Y-125922619D02*
X163434285Y-126017857D01*
X163434285Y-126017857D02*
X163434285Y-126160714D01*
X163434285Y-126160714D02*
X163386666Y-126255952D01*
X163386666Y-126255952D02*
X163339047Y-126303571D01*
X163339047Y-126303571D02*
X163243809Y-126351190D01*
X163243809Y-126351190D02*
X162862857Y-126351190D01*
X164005714Y-126255952D02*
X163910476Y-126208333D01*
X163910476Y-126208333D02*
X163862857Y-126160714D01*
X163862857Y-126160714D02*
X163815238Y-126065476D01*
X163815238Y-126065476D02*
X163815238Y-126017857D01*
X163815238Y-126017857D02*
X163862857Y-125922619D01*
X163862857Y-125922619D02*
X163910476Y-125875000D01*
X163910476Y-125875000D02*
X164005714Y-125827380D01*
X164005714Y-125827380D02*
X164196190Y-125827380D01*
X164196190Y-125827380D02*
X164291428Y-125875000D01*
X164291428Y-125875000D02*
X164339047Y-125922619D01*
X164339047Y-125922619D02*
X164386666Y-126017857D01*
X164386666Y-126017857D02*
X164386666Y-126065476D01*
X164386666Y-126065476D02*
X164339047Y-126160714D01*
X164339047Y-126160714D02*
X164291428Y-126208333D01*
X164291428Y-126208333D02*
X164196190Y-126255952D01*
X164196190Y-126255952D02*
X164005714Y-126255952D01*
X164005714Y-126255952D02*
X163910476Y-126303571D01*
X163910476Y-126303571D02*
X163862857Y-126351190D01*
X163862857Y-126351190D02*
X163815238Y-126446428D01*
X163815238Y-126446428D02*
X163815238Y-126636904D01*
X163815238Y-126636904D02*
X163862857Y-126732142D01*
X163862857Y-126732142D02*
X163910476Y-126779761D01*
X163910476Y-126779761D02*
X164005714Y-126827380D01*
X164005714Y-126827380D02*
X164196190Y-126827380D01*
X164196190Y-126827380D02*
X164291428Y-126779761D01*
X164291428Y-126779761D02*
X164339047Y-126732142D01*
X164339047Y-126732142D02*
X164386666Y-126636904D01*
X164386666Y-126636904D02*
X164386666Y-126446428D01*
X164386666Y-126446428D02*
X164339047Y-126351190D01*
X164339047Y-126351190D02*
X164291428Y-126303571D01*
X164291428Y-126303571D02*
X164196190Y-126255952D01*
%TO.C,H1*%
X214238095Y-15367380D02*
X214238095Y-14367380D01*
X214238095Y-14843571D02*
X214809523Y-14843571D01*
X214809523Y-15367380D02*
X214809523Y-14367380D01*
X215809523Y-15367380D02*
X215238095Y-15367380D01*
X215523809Y-15367380D02*
X215523809Y-14367380D01*
X215523809Y-14367380D02*
X215428571Y-14510238D01*
X215428571Y-14510238D02*
X215333333Y-14605476D01*
X215333333Y-14605476D02*
X215238095Y-14653095D01*
%TO.C,TP2*%
X116058095Y-40607380D02*
X116629523Y-40607380D01*
X116343809Y-41607380D02*
X116343809Y-40607380D01*
X116962857Y-41607380D02*
X116962857Y-40607380D01*
X116962857Y-40607380D02*
X117343809Y-40607380D01*
X117343809Y-40607380D02*
X117439047Y-40655000D01*
X117439047Y-40655000D02*
X117486666Y-40702619D01*
X117486666Y-40702619D02*
X117534285Y-40797857D01*
X117534285Y-40797857D02*
X117534285Y-40940714D01*
X117534285Y-40940714D02*
X117486666Y-41035952D01*
X117486666Y-41035952D02*
X117439047Y-41083571D01*
X117439047Y-41083571D02*
X117343809Y-41131190D01*
X117343809Y-41131190D02*
X116962857Y-41131190D01*
X117915238Y-40702619D02*
X117962857Y-40655000D01*
X117962857Y-40655000D02*
X118058095Y-40607380D01*
X118058095Y-40607380D02*
X118296190Y-40607380D01*
X118296190Y-40607380D02*
X118391428Y-40655000D01*
X118391428Y-40655000D02*
X118439047Y-40702619D01*
X118439047Y-40702619D02*
X118486666Y-40797857D01*
X118486666Y-40797857D02*
X118486666Y-40893095D01*
X118486666Y-40893095D02*
X118439047Y-41035952D01*
X118439047Y-41035952D02*
X117867619Y-41607380D01*
X117867619Y-41607380D02*
X118486666Y-41607380D01*
%TO.C,C8*%
X115353333Y-107467142D02*
X115305714Y-107514761D01*
X115305714Y-107514761D02*
X115162857Y-107562380D01*
X115162857Y-107562380D02*
X115067619Y-107562380D01*
X115067619Y-107562380D02*
X114924762Y-107514761D01*
X114924762Y-107514761D02*
X114829524Y-107419523D01*
X114829524Y-107419523D02*
X114781905Y-107324285D01*
X114781905Y-107324285D02*
X114734286Y-107133809D01*
X114734286Y-107133809D02*
X114734286Y-106990952D01*
X114734286Y-106990952D02*
X114781905Y-106800476D01*
X114781905Y-106800476D02*
X114829524Y-106705238D01*
X114829524Y-106705238D02*
X114924762Y-106610000D01*
X114924762Y-106610000D02*
X115067619Y-106562380D01*
X115067619Y-106562380D02*
X115162857Y-106562380D01*
X115162857Y-106562380D02*
X115305714Y-106610000D01*
X115305714Y-106610000D02*
X115353333Y-106657619D01*
X115924762Y-106990952D02*
X115829524Y-106943333D01*
X115829524Y-106943333D02*
X115781905Y-106895714D01*
X115781905Y-106895714D02*
X115734286Y-106800476D01*
X115734286Y-106800476D02*
X115734286Y-106752857D01*
X115734286Y-106752857D02*
X115781905Y-106657619D01*
X115781905Y-106657619D02*
X115829524Y-106610000D01*
X115829524Y-106610000D02*
X115924762Y-106562380D01*
X115924762Y-106562380D02*
X116115238Y-106562380D01*
X116115238Y-106562380D02*
X116210476Y-106610000D01*
X116210476Y-106610000D02*
X116258095Y-106657619D01*
X116258095Y-106657619D02*
X116305714Y-106752857D01*
X116305714Y-106752857D02*
X116305714Y-106800476D01*
X116305714Y-106800476D02*
X116258095Y-106895714D01*
X116258095Y-106895714D02*
X116210476Y-106943333D01*
X116210476Y-106943333D02*
X116115238Y-106990952D01*
X116115238Y-106990952D02*
X115924762Y-106990952D01*
X115924762Y-106990952D02*
X115829524Y-107038571D01*
X115829524Y-107038571D02*
X115781905Y-107086190D01*
X115781905Y-107086190D02*
X115734286Y-107181428D01*
X115734286Y-107181428D02*
X115734286Y-107371904D01*
X115734286Y-107371904D02*
X115781905Y-107467142D01*
X115781905Y-107467142D02*
X115829524Y-107514761D01*
X115829524Y-107514761D02*
X115924762Y-107562380D01*
X115924762Y-107562380D02*
X116115238Y-107562380D01*
X116115238Y-107562380D02*
X116210476Y-107514761D01*
X116210476Y-107514761D02*
X116258095Y-107467142D01*
X116258095Y-107467142D02*
X116305714Y-107371904D01*
X116305714Y-107371904D02*
X116305714Y-107181428D01*
X116305714Y-107181428D02*
X116258095Y-107086190D01*
X116258095Y-107086190D02*
X116210476Y-107038571D01*
X116210476Y-107038571D02*
X116115238Y-106990952D01*
%TO.C,R21*%
X174577142Y-129867380D02*
X174243809Y-129391190D01*
X174005714Y-129867380D02*
X174005714Y-128867380D01*
X174005714Y-128867380D02*
X174386666Y-128867380D01*
X174386666Y-128867380D02*
X174481904Y-128915000D01*
X174481904Y-128915000D02*
X174529523Y-128962619D01*
X174529523Y-128962619D02*
X174577142Y-129057857D01*
X174577142Y-129057857D02*
X174577142Y-129200714D01*
X174577142Y-129200714D02*
X174529523Y-129295952D01*
X174529523Y-129295952D02*
X174481904Y-129343571D01*
X174481904Y-129343571D02*
X174386666Y-129391190D01*
X174386666Y-129391190D02*
X174005714Y-129391190D01*
X174958095Y-128962619D02*
X175005714Y-128915000D01*
X175005714Y-128915000D02*
X175100952Y-128867380D01*
X175100952Y-128867380D02*
X175339047Y-128867380D01*
X175339047Y-128867380D02*
X175434285Y-128915000D01*
X175434285Y-128915000D02*
X175481904Y-128962619D01*
X175481904Y-128962619D02*
X175529523Y-129057857D01*
X175529523Y-129057857D02*
X175529523Y-129153095D01*
X175529523Y-129153095D02*
X175481904Y-129295952D01*
X175481904Y-129295952D02*
X174910476Y-129867380D01*
X174910476Y-129867380D02*
X175529523Y-129867380D01*
X176481904Y-129867380D02*
X175910476Y-129867380D01*
X176196190Y-129867380D02*
X176196190Y-128867380D01*
X176196190Y-128867380D02*
X176100952Y-129010238D01*
X176100952Y-129010238D02*
X176005714Y-129105476D01*
X176005714Y-129105476D02*
X175910476Y-129153095D01*
%TO.C,R30*%
X131397142Y-76237380D02*
X131063809Y-75761190D01*
X130825714Y-76237380D02*
X130825714Y-75237380D01*
X130825714Y-75237380D02*
X131206666Y-75237380D01*
X131206666Y-75237380D02*
X131301904Y-75285000D01*
X131301904Y-75285000D02*
X131349523Y-75332619D01*
X131349523Y-75332619D02*
X131397142Y-75427857D01*
X131397142Y-75427857D02*
X131397142Y-75570714D01*
X131397142Y-75570714D02*
X131349523Y-75665952D01*
X131349523Y-75665952D02*
X131301904Y-75713571D01*
X131301904Y-75713571D02*
X131206666Y-75761190D01*
X131206666Y-75761190D02*
X130825714Y-75761190D01*
X131730476Y-75237380D02*
X132349523Y-75237380D01*
X132349523Y-75237380D02*
X132016190Y-75618333D01*
X132016190Y-75618333D02*
X132159047Y-75618333D01*
X132159047Y-75618333D02*
X132254285Y-75665952D01*
X132254285Y-75665952D02*
X132301904Y-75713571D01*
X132301904Y-75713571D02*
X132349523Y-75808809D01*
X132349523Y-75808809D02*
X132349523Y-76046904D01*
X132349523Y-76046904D02*
X132301904Y-76142142D01*
X132301904Y-76142142D02*
X132254285Y-76189761D01*
X132254285Y-76189761D02*
X132159047Y-76237380D01*
X132159047Y-76237380D02*
X131873333Y-76237380D01*
X131873333Y-76237380D02*
X131778095Y-76189761D01*
X131778095Y-76189761D02*
X131730476Y-76142142D01*
X132968571Y-75237380D02*
X133063809Y-75237380D01*
X133063809Y-75237380D02*
X133159047Y-75285000D01*
X133159047Y-75285000D02*
X133206666Y-75332619D01*
X133206666Y-75332619D02*
X133254285Y-75427857D01*
X133254285Y-75427857D02*
X133301904Y-75618333D01*
X133301904Y-75618333D02*
X133301904Y-75856428D01*
X133301904Y-75856428D02*
X133254285Y-76046904D01*
X133254285Y-76046904D02*
X133206666Y-76142142D01*
X133206666Y-76142142D02*
X133159047Y-76189761D01*
X133159047Y-76189761D02*
X133063809Y-76237380D01*
X133063809Y-76237380D02*
X132968571Y-76237380D01*
X132968571Y-76237380D02*
X132873333Y-76189761D01*
X132873333Y-76189761D02*
X132825714Y-76142142D01*
X132825714Y-76142142D02*
X132778095Y-76046904D01*
X132778095Y-76046904D02*
X132730476Y-75856428D01*
X132730476Y-75856428D02*
X132730476Y-75618333D01*
X132730476Y-75618333D02*
X132778095Y-75427857D01*
X132778095Y-75427857D02*
X132825714Y-75332619D01*
X132825714Y-75332619D02*
X132873333Y-75285000D01*
X132873333Y-75285000D02*
X132968571Y-75237380D01*
%TO.C,C6*%
X100603333Y-62692142D02*
X100555714Y-62739761D01*
X100555714Y-62739761D02*
X100412857Y-62787380D01*
X100412857Y-62787380D02*
X100317619Y-62787380D01*
X100317619Y-62787380D02*
X100174762Y-62739761D01*
X100174762Y-62739761D02*
X100079524Y-62644523D01*
X100079524Y-62644523D02*
X100031905Y-62549285D01*
X100031905Y-62549285D02*
X99984286Y-62358809D01*
X99984286Y-62358809D02*
X99984286Y-62215952D01*
X99984286Y-62215952D02*
X100031905Y-62025476D01*
X100031905Y-62025476D02*
X100079524Y-61930238D01*
X100079524Y-61930238D02*
X100174762Y-61835000D01*
X100174762Y-61835000D02*
X100317619Y-61787380D01*
X100317619Y-61787380D02*
X100412857Y-61787380D01*
X100412857Y-61787380D02*
X100555714Y-61835000D01*
X100555714Y-61835000D02*
X100603333Y-61882619D01*
X101460476Y-61787380D02*
X101270000Y-61787380D01*
X101270000Y-61787380D02*
X101174762Y-61835000D01*
X101174762Y-61835000D02*
X101127143Y-61882619D01*
X101127143Y-61882619D02*
X101031905Y-62025476D01*
X101031905Y-62025476D02*
X100984286Y-62215952D01*
X100984286Y-62215952D02*
X100984286Y-62596904D01*
X100984286Y-62596904D02*
X101031905Y-62692142D01*
X101031905Y-62692142D02*
X101079524Y-62739761D01*
X101079524Y-62739761D02*
X101174762Y-62787380D01*
X101174762Y-62787380D02*
X101365238Y-62787380D01*
X101365238Y-62787380D02*
X101460476Y-62739761D01*
X101460476Y-62739761D02*
X101508095Y-62692142D01*
X101508095Y-62692142D02*
X101555714Y-62596904D01*
X101555714Y-62596904D02*
X101555714Y-62358809D01*
X101555714Y-62358809D02*
X101508095Y-62263571D01*
X101508095Y-62263571D02*
X101460476Y-62215952D01*
X101460476Y-62215952D02*
X101365238Y-62168333D01*
X101365238Y-62168333D02*
X101174762Y-62168333D01*
X101174762Y-62168333D02*
X101079524Y-62215952D01*
X101079524Y-62215952D02*
X101031905Y-62263571D01*
X101031905Y-62263571D02*
X100984286Y-62358809D01*
%TO.C,R6*%
X157273333Y-88937380D02*
X156940000Y-88461190D01*
X156701905Y-88937380D02*
X156701905Y-87937380D01*
X156701905Y-87937380D02*
X157082857Y-87937380D01*
X157082857Y-87937380D02*
X157178095Y-87985000D01*
X157178095Y-87985000D02*
X157225714Y-88032619D01*
X157225714Y-88032619D02*
X157273333Y-88127857D01*
X157273333Y-88127857D02*
X157273333Y-88270714D01*
X157273333Y-88270714D02*
X157225714Y-88365952D01*
X157225714Y-88365952D02*
X157178095Y-88413571D01*
X157178095Y-88413571D02*
X157082857Y-88461190D01*
X157082857Y-88461190D02*
X156701905Y-88461190D01*
X158130476Y-87937380D02*
X157940000Y-87937380D01*
X157940000Y-87937380D02*
X157844762Y-87985000D01*
X157844762Y-87985000D02*
X157797143Y-88032619D01*
X157797143Y-88032619D02*
X157701905Y-88175476D01*
X157701905Y-88175476D02*
X157654286Y-88365952D01*
X157654286Y-88365952D02*
X157654286Y-88746904D01*
X157654286Y-88746904D02*
X157701905Y-88842142D01*
X157701905Y-88842142D02*
X157749524Y-88889761D01*
X157749524Y-88889761D02*
X157844762Y-88937380D01*
X157844762Y-88937380D02*
X158035238Y-88937380D01*
X158035238Y-88937380D02*
X158130476Y-88889761D01*
X158130476Y-88889761D02*
X158178095Y-88842142D01*
X158178095Y-88842142D02*
X158225714Y-88746904D01*
X158225714Y-88746904D02*
X158225714Y-88508809D01*
X158225714Y-88508809D02*
X158178095Y-88413571D01*
X158178095Y-88413571D02*
X158130476Y-88365952D01*
X158130476Y-88365952D02*
X158035238Y-88318333D01*
X158035238Y-88318333D02*
X157844762Y-88318333D01*
X157844762Y-88318333D02*
X157749524Y-88365952D01*
X157749524Y-88365952D02*
X157701905Y-88413571D01*
X157701905Y-88413571D02*
X157654286Y-88508809D01*
%TO.C,R10*%
X176157142Y-40867380D02*
X175823809Y-40391190D01*
X175585714Y-40867380D02*
X175585714Y-39867380D01*
X175585714Y-39867380D02*
X175966666Y-39867380D01*
X175966666Y-39867380D02*
X176061904Y-39915000D01*
X176061904Y-39915000D02*
X176109523Y-39962619D01*
X176109523Y-39962619D02*
X176157142Y-40057857D01*
X176157142Y-40057857D02*
X176157142Y-40200714D01*
X176157142Y-40200714D02*
X176109523Y-40295952D01*
X176109523Y-40295952D02*
X176061904Y-40343571D01*
X176061904Y-40343571D02*
X175966666Y-40391190D01*
X175966666Y-40391190D02*
X175585714Y-40391190D01*
X177109523Y-40867380D02*
X176538095Y-40867380D01*
X176823809Y-40867380D02*
X176823809Y-39867380D01*
X176823809Y-39867380D02*
X176728571Y-40010238D01*
X176728571Y-40010238D02*
X176633333Y-40105476D01*
X176633333Y-40105476D02*
X176538095Y-40153095D01*
X177728571Y-39867380D02*
X177823809Y-39867380D01*
X177823809Y-39867380D02*
X177919047Y-39915000D01*
X177919047Y-39915000D02*
X177966666Y-39962619D01*
X177966666Y-39962619D02*
X178014285Y-40057857D01*
X178014285Y-40057857D02*
X178061904Y-40248333D01*
X178061904Y-40248333D02*
X178061904Y-40486428D01*
X178061904Y-40486428D02*
X178014285Y-40676904D01*
X178014285Y-40676904D02*
X177966666Y-40772142D01*
X177966666Y-40772142D02*
X177919047Y-40819761D01*
X177919047Y-40819761D02*
X177823809Y-40867380D01*
X177823809Y-40867380D02*
X177728571Y-40867380D01*
X177728571Y-40867380D02*
X177633333Y-40819761D01*
X177633333Y-40819761D02*
X177585714Y-40772142D01*
X177585714Y-40772142D02*
X177538095Y-40676904D01*
X177538095Y-40676904D02*
X177490476Y-40486428D01*
X177490476Y-40486428D02*
X177490476Y-40248333D01*
X177490476Y-40248333D02*
X177538095Y-40057857D01*
X177538095Y-40057857D02*
X177585714Y-39962619D01*
X177585714Y-39962619D02*
X177633333Y-39915000D01*
X177633333Y-39915000D02*
X177728571Y-39867380D01*
%TO.C,R29*%
X131397142Y-48297380D02*
X131063809Y-47821190D01*
X130825714Y-48297380D02*
X130825714Y-47297380D01*
X130825714Y-47297380D02*
X131206666Y-47297380D01*
X131206666Y-47297380D02*
X131301904Y-47345000D01*
X131301904Y-47345000D02*
X131349523Y-47392619D01*
X131349523Y-47392619D02*
X131397142Y-47487857D01*
X131397142Y-47487857D02*
X131397142Y-47630714D01*
X131397142Y-47630714D02*
X131349523Y-47725952D01*
X131349523Y-47725952D02*
X131301904Y-47773571D01*
X131301904Y-47773571D02*
X131206666Y-47821190D01*
X131206666Y-47821190D02*
X130825714Y-47821190D01*
X131778095Y-47392619D02*
X131825714Y-47345000D01*
X131825714Y-47345000D02*
X131920952Y-47297380D01*
X131920952Y-47297380D02*
X132159047Y-47297380D01*
X132159047Y-47297380D02*
X132254285Y-47345000D01*
X132254285Y-47345000D02*
X132301904Y-47392619D01*
X132301904Y-47392619D02*
X132349523Y-47487857D01*
X132349523Y-47487857D02*
X132349523Y-47583095D01*
X132349523Y-47583095D02*
X132301904Y-47725952D01*
X132301904Y-47725952D02*
X131730476Y-48297380D01*
X131730476Y-48297380D02*
X132349523Y-48297380D01*
X132825714Y-48297380D02*
X133016190Y-48297380D01*
X133016190Y-48297380D02*
X133111428Y-48249761D01*
X133111428Y-48249761D02*
X133159047Y-48202142D01*
X133159047Y-48202142D02*
X133254285Y-48059285D01*
X133254285Y-48059285D02*
X133301904Y-47868809D01*
X133301904Y-47868809D02*
X133301904Y-47487857D01*
X133301904Y-47487857D02*
X133254285Y-47392619D01*
X133254285Y-47392619D02*
X133206666Y-47345000D01*
X133206666Y-47345000D02*
X133111428Y-47297380D01*
X133111428Y-47297380D02*
X132920952Y-47297380D01*
X132920952Y-47297380D02*
X132825714Y-47345000D01*
X132825714Y-47345000D02*
X132778095Y-47392619D01*
X132778095Y-47392619D02*
X132730476Y-47487857D01*
X132730476Y-47487857D02*
X132730476Y-47725952D01*
X132730476Y-47725952D02*
X132778095Y-47821190D01*
X132778095Y-47821190D02*
X132825714Y-47868809D01*
X132825714Y-47868809D02*
X132920952Y-47916428D01*
X132920952Y-47916428D02*
X133111428Y-47916428D01*
X133111428Y-47916428D02*
X133206666Y-47868809D01*
X133206666Y-47868809D02*
X133254285Y-47821190D01*
X133254285Y-47821190D02*
X133301904Y-47725952D01*
%TO.C,D2*%
X87606905Y-42297380D02*
X87606905Y-41297380D01*
X87606905Y-41297380D02*
X87845000Y-41297380D01*
X87845000Y-41297380D02*
X87987857Y-41345000D01*
X87987857Y-41345000D02*
X88083095Y-41440238D01*
X88083095Y-41440238D02*
X88130714Y-41535476D01*
X88130714Y-41535476D02*
X88178333Y-41725952D01*
X88178333Y-41725952D02*
X88178333Y-41868809D01*
X88178333Y-41868809D02*
X88130714Y-42059285D01*
X88130714Y-42059285D02*
X88083095Y-42154523D01*
X88083095Y-42154523D02*
X87987857Y-42249761D01*
X87987857Y-42249761D02*
X87845000Y-42297380D01*
X87845000Y-42297380D02*
X87606905Y-42297380D01*
X88559286Y-41392619D02*
X88606905Y-41345000D01*
X88606905Y-41345000D02*
X88702143Y-41297380D01*
X88702143Y-41297380D02*
X88940238Y-41297380D01*
X88940238Y-41297380D02*
X89035476Y-41345000D01*
X89035476Y-41345000D02*
X89083095Y-41392619D01*
X89083095Y-41392619D02*
X89130714Y-41487857D01*
X89130714Y-41487857D02*
X89130714Y-41583095D01*
X89130714Y-41583095D02*
X89083095Y-41725952D01*
X89083095Y-41725952D02*
X88511667Y-42297380D01*
X88511667Y-42297380D02*
X89130714Y-42297380D01*
%TO.C,R25*%
X101537142Y-52237380D02*
X101203809Y-51761190D01*
X100965714Y-52237380D02*
X100965714Y-51237380D01*
X100965714Y-51237380D02*
X101346666Y-51237380D01*
X101346666Y-51237380D02*
X101441904Y-51285000D01*
X101441904Y-51285000D02*
X101489523Y-51332619D01*
X101489523Y-51332619D02*
X101537142Y-51427857D01*
X101537142Y-51427857D02*
X101537142Y-51570714D01*
X101537142Y-51570714D02*
X101489523Y-51665952D01*
X101489523Y-51665952D02*
X101441904Y-51713571D01*
X101441904Y-51713571D02*
X101346666Y-51761190D01*
X101346666Y-51761190D02*
X100965714Y-51761190D01*
X101918095Y-51332619D02*
X101965714Y-51285000D01*
X101965714Y-51285000D02*
X102060952Y-51237380D01*
X102060952Y-51237380D02*
X102299047Y-51237380D01*
X102299047Y-51237380D02*
X102394285Y-51285000D01*
X102394285Y-51285000D02*
X102441904Y-51332619D01*
X102441904Y-51332619D02*
X102489523Y-51427857D01*
X102489523Y-51427857D02*
X102489523Y-51523095D01*
X102489523Y-51523095D02*
X102441904Y-51665952D01*
X102441904Y-51665952D02*
X101870476Y-52237380D01*
X101870476Y-52237380D02*
X102489523Y-52237380D01*
X103394285Y-51237380D02*
X102918095Y-51237380D01*
X102918095Y-51237380D02*
X102870476Y-51713571D01*
X102870476Y-51713571D02*
X102918095Y-51665952D01*
X102918095Y-51665952D02*
X103013333Y-51618333D01*
X103013333Y-51618333D02*
X103251428Y-51618333D01*
X103251428Y-51618333D02*
X103346666Y-51665952D01*
X103346666Y-51665952D02*
X103394285Y-51713571D01*
X103394285Y-51713571D02*
X103441904Y-51808809D01*
X103441904Y-51808809D02*
X103441904Y-52046904D01*
X103441904Y-52046904D02*
X103394285Y-52142142D01*
X103394285Y-52142142D02*
X103346666Y-52189761D01*
X103346666Y-52189761D02*
X103251428Y-52237380D01*
X103251428Y-52237380D02*
X103013333Y-52237380D01*
X103013333Y-52237380D02*
X102918095Y-52189761D01*
X102918095Y-52189761D02*
X102870476Y-52142142D01*
%TO.C,R9*%
X175053333Y-45867380D02*
X174720000Y-45391190D01*
X174481905Y-45867380D02*
X174481905Y-44867380D01*
X174481905Y-44867380D02*
X174862857Y-44867380D01*
X174862857Y-44867380D02*
X174958095Y-44915000D01*
X174958095Y-44915000D02*
X175005714Y-44962619D01*
X175005714Y-44962619D02*
X175053333Y-45057857D01*
X175053333Y-45057857D02*
X175053333Y-45200714D01*
X175053333Y-45200714D02*
X175005714Y-45295952D01*
X175005714Y-45295952D02*
X174958095Y-45343571D01*
X174958095Y-45343571D02*
X174862857Y-45391190D01*
X174862857Y-45391190D02*
X174481905Y-45391190D01*
X175529524Y-45867380D02*
X175720000Y-45867380D01*
X175720000Y-45867380D02*
X175815238Y-45819761D01*
X175815238Y-45819761D02*
X175862857Y-45772142D01*
X175862857Y-45772142D02*
X175958095Y-45629285D01*
X175958095Y-45629285D02*
X176005714Y-45438809D01*
X176005714Y-45438809D02*
X176005714Y-45057857D01*
X176005714Y-45057857D02*
X175958095Y-44962619D01*
X175958095Y-44962619D02*
X175910476Y-44915000D01*
X175910476Y-44915000D02*
X175815238Y-44867380D01*
X175815238Y-44867380D02*
X175624762Y-44867380D01*
X175624762Y-44867380D02*
X175529524Y-44915000D01*
X175529524Y-44915000D02*
X175481905Y-44962619D01*
X175481905Y-44962619D02*
X175434286Y-45057857D01*
X175434286Y-45057857D02*
X175434286Y-45295952D01*
X175434286Y-45295952D02*
X175481905Y-45391190D01*
X175481905Y-45391190D02*
X175529524Y-45438809D01*
X175529524Y-45438809D02*
X175624762Y-45486428D01*
X175624762Y-45486428D02*
X175815238Y-45486428D01*
X175815238Y-45486428D02*
X175910476Y-45438809D01*
X175910476Y-45438809D02*
X175958095Y-45391190D01*
X175958095Y-45391190D02*
X176005714Y-45295952D01*
%TO.C,R17*%
X174577142Y-101867380D02*
X174243809Y-101391190D01*
X174005714Y-101867380D02*
X174005714Y-100867380D01*
X174005714Y-100867380D02*
X174386666Y-100867380D01*
X174386666Y-100867380D02*
X174481904Y-100915000D01*
X174481904Y-100915000D02*
X174529523Y-100962619D01*
X174529523Y-100962619D02*
X174577142Y-101057857D01*
X174577142Y-101057857D02*
X174577142Y-101200714D01*
X174577142Y-101200714D02*
X174529523Y-101295952D01*
X174529523Y-101295952D02*
X174481904Y-101343571D01*
X174481904Y-101343571D02*
X174386666Y-101391190D01*
X174386666Y-101391190D02*
X174005714Y-101391190D01*
X175529523Y-101867380D02*
X174958095Y-101867380D01*
X175243809Y-101867380D02*
X175243809Y-100867380D01*
X175243809Y-100867380D02*
X175148571Y-101010238D01*
X175148571Y-101010238D02*
X175053333Y-101105476D01*
X175053333Y-101105476D02*
X174958095Y-101153095D01*
X175862857Y-100867380D02*
X176529523Y-100867380D01*
X176529523Y-100867380D02*
X176100952Y-101867380D01*
%TO.C,TP4*%
X116058095Y-25367380D02*
X116629523Y-25367380D01*
X116343809Y-26367380D02*
X116343809Y-25367380D01*
X116962857Y-26367380D02*
X116962857Y-25367380D01*
X116962857Y-25367380D02*
X117343809Y-25367380D01*
X117343809Y-25367380D02*
X117439047Y-25415000D01*
X117439047Y-25415000D02*
X117486666Y-25462619D01*
X117486666Y-25462619D02*
X117534285Y-25557857D01*
X117534285Y-25557857D02*
X117534285Y-25700714D01*
X117534285Y-25700714D02*
X117486666Y-25795952D01*
X117486666Y-25795952D02*
X117439047Y-25843571D01*
X117439047Y-25843571D02*
X117343809Y-25891190D01*
X117343809Y-25891190D02*
X116962857Y-25891190D01*
X118391428Y-25700714D02*
X118391428Y-26367380D01*
X118153333Y-25319761D02*
X117915238Y-26034047D01*
X117915238Y-26034047D02*
X118534285Y-26034047D01*
%TO.C,R13*%
X174577142Y-73867380D02*
X174243809Y-73391190D01*
X174005714Y-73867380D02*
X174005714Y-72867380D01*
X174005714Y-72867380D02*
X174386666Y-72867380D01*
X174386666Y-72867380D02*
X174481904Y-72915000D01*
X174481904Y-72915000D02*
X174529523Y-72962619D01*
X174529523Y-72962619D02*
X174577142Y-73057857D01*
X174577142Y-73057857D02*
X174577142Y-73200714D01*
X174577142Y-73200714D02*
X174529523Y-73295952D01*
X174529523Y-73295952D02*
X174481904Y-73343571D01*
X174481904Y-73343571D02*
X174386666Y-73391190D01*
X174386666Y-73391190D02*
X174005714Y-73391190D01*
X175529523Y-73867380D02*
X174958095Y-73867380D01*
X175243809Y-73867380D02*
X175243809Y-72867380D01*
X175243809Y-72867380D02*
X175148571Y-73010238D01*
X175148571Y-73010238D02*
X175053333Y-73105476D01*
X175053333Y-73105476D02*
X174958095Y-73153095D01*
X175862857Y-72867380D02*
X176481904Y-72867380D01*
X176481904Y-72867380D02*
X176148571Y-73248333D01*
X176148571Y-73248333D02*
X176291428Y-73248333D01*
X176291428Y-73248333D02*
X176386666Y-73295952D01*
X176386666Y-73295952D02*
X176434285Y-73343571D01*
X176434285Y-73343571D02*
X176481904Y-73438809D01*
X176481904Y-73438809D02*
X176481904Y-73676904D01*
X176481904Y-73676904D02*
X176434285Y-73772142D01*
X176434285Y-73772142D02*
X176386666Y-73819761D01*
X176386666Y-73819761D02*
X176291428Y-73867380D01*
X176291428Y-73867380D02*
X176005714Y-73867380D01*
X176005714Y-73867380D02*
X175910476Y-73819761D01*
X175910476Y-73819761D02*
X175862857Y-73772142D01*
%TO.C,L1*%
X83287380Y-89486666D02*
X83287380Y-89962856D01*
X83287380Y-89962856D02*
X82287380Y-89962856D01*
X83287380Y-88629523D02*
X83287380Y-89200951D01*
X83287380Y-88915237D02*
X82287380Y-88915237D01*
X82287380Y-88915237D02*
X82430238Y-89010475D01*
X82430238Y-89010475D02*
X82525476Y-89105713D01*
X82525476Y-89105713D02*
X82573095Y-89200951D01*
%TO.C,R19*%
X178157142Y-91867380D02*
X177823809Y-91391190D01*
X177585714Y-91867380D02*
X177585714Y-90867380D01*
X177585714Y-90867380D02*
X177966666Y-90867380D01*
X177966666Y-90867380D02*
X178061904Y-90915000D01*
X178061904Y-90915000D02*
X178109523Y-90962619D01*
X178109523Y-90962619D02*
X178157142Y-91057857D01*
X178157142Y-91057857D02*
X178157142Y-91200714D01*
X178157142Y-91200714D02*
X178109523Y-91295952D01*
X178109523Y-91295952D02*
X178061904Y-91343571D01*
X178061904Y-91343571D02*
X177966666Y-91391190D01*
X177966666Y-91391190D02*
X177585714Y-91391190D01*
X179109523Y-91867380D02*
X178538095Y-91867380D01*
X178823809Y-91867380D02*
X178823809Y-90867380D01*
X178823809Y-90867380D02*
X178728571Y-91010238D01*
X178728571Y-91010238D02*
X178633333Y-91105476D01*
X178633333Y-91105476D02*
X178538095Y-91153095D01*
X179585714Y-91867380D02*
X179776190Y-91867380D01*
X179776190Y-91867380D02*
X179871428Y-91819761D01*
X179871428Y-91819761D02*
X179919047Y-91772142D01*
X179919047Y-91772142D02*
X180014285Y-91629285D01*
X180014285Y-91629285D02*
X180061904Y-91438809D01*
X180061904Y-91438809D02*
X180061904Y-91057857D01*
X180061904Y-91057857D02*
X180014285Y-90962619D01*
X180014285Y-90962619D02*
X179966666Y-90915000D01*
X179966666Y-90915000D02*
X179871428Y-90867380D01*
X179871428Y-90867380D02*
X179680952Y-90867380D01*
X179680952Y-90867380D02*
X179585714Y-90915000D01*
X179585714Y-90915000D02*
X179538095Y-90962619D01*
X179538095Y-90962619D02*
X179490476Y-91057857D01*
X179490476Y-91057857D02*
X179490476Y-91295952D01*
X179490476Y-91295952D02*
X179538095Y-91391190D01*
X179538095Y-91391190D02*
X179585714Y-91438809D01*
X179585714Y-91438809D02*
X179680952Y-91486428D01*
X179680952Y-91486428D02*
X179871428Y-91486428D01*
X179871428Y-91486428D02*
X179966666Y-91438809D01*
X179966666Y-91438809D02*
X180014285Y-91391190D01*
X180014285Y-91391190D02*
X180061904Y-91295952D01*
%TO.C,C17*%
X151677142Y-126732142D02*
X151629523Y-126779761D01*
X151629523Y-126779761D02*
X151486666Y-126827380D01*
X151486666Y-126827380D02*
X151391428Y-126827380D01*
X151391428Y-126827380D02*
X151248571Y-126779761D01*
X151248571Y-126779761D02*
X151153333Y-126684523D01*
X151153333Y-126684523D02*
X151105714Y-126589285D01*
X151105714Y-126589285D02*
X151058095Y-126398809D01*
X151058095Y-126398809D02*
X151058095Y-126255952D01*
X151058095Y-126255952D02*
X151105714Y-126065476D01*
X151105714Y-126065476D02*
X151153333Y-125970238D01*
X151153333Y-125970238D02*
X151248571Y-125875000D01*
X151248571Y-125875000D02*
X151391428Y-125827380D01*
X151391428Y-125827380D02*
X151486666Y-125827380D01*
X151486666Y-125827380D02*
X151629523Y-125875000D01*
X151629523Y-125875000D02*
X151677142Y-125922619D01*
X152629523Y-126827380D02*
X152058095Y-126827380D01*
X152343809Y-126827380D02*
X152343809Y-125827380D01*
X152343809Y-125827380D02*
X152248571Y-125970238D01*
X152248571Y-125970238D02*
X152153333Y-126065476D01*
X152153333Y-126065476D02*
X152058095Y-126113095D01*
X152962857Y-125827380D02*
X153629523Y-125827380D01*
X153629523Y-125827380D02*
X153200952Y-126827380D01*
%TO.C,R1*%
X144573333Y-48507380D02*
X144240000Y-48031190D01*
X144001905Y-48507380D02*
X144001905Y-47507380D01*
X144001905Y-47507380D02*
X144382857Y-47507380D01*
X144382857Y-47507380D02*
X144478095Y-47555000D01*
X144478095Y-47555000D02*
X144525714Y-47602619D01*
X144525714Y-47602619D02*
X144573333Y-47697857D01*
X144573333Y-47697857D02*
X144573333Y-47840714D01*
X144573333Y-47840714D02*
X144525714Y-47935952D01*
X144525714Y-47935952D02*
X144478095Y-47983571D01*
X144478095Y-47983571D02*
X144382857Y-48031190D01*
X144382857Y-48031190D02*
X144001905Y-48031190D01*
X145525714Y-48507380D02*
X144954286Y-48507380D01*
X145240000Y-48507380D02*
X145240000Y-47507380D01*
X145240000Y-47507380D02*
X145144762Y-47650238D01*
X145144762Y-47650238D02*
X145049524Y-47745476D01*
X145049524Y-47745476D02*
X144954286Y-47793095D01*
%TO.C,C21*%
X196272142Y-99162857D02*
X196319761Y-99210476D01*
X196319761Y-99210476D02*
X196367380Y-99353333D01*
X196367380Y-99353333D02*
X196367380Y-99448571D01*
X196367380Y-99448571D02*
X196319761Y-99591428D01*
X196319761Y-99591428D02*
X196224523Y-99686666D01*
X196224523Y-99686666D02*
X196129285Y-99734285D01*
X196129285Y-99734285D02*
X195938809Y-99781904D01*
X195938809Y-99781904D02*
X195795952Y-99781904D01*
X195795952Y-99781904D02*
X195605476Y-99734285D01*
X195605476Y-99734285D02*
X195510238Y-99686666D01*
X195510238Y-99686666D02*
X195415000Y-99591428D01*
X195415000Y-99591428D02*
X195367380Y-99448571D01*
X195367380Y-99448571D02*
X195367380Y-99353333D01*
X195367380Y-99353333D02*
X195415000Y-99210476D01*
X195415000Y-99210476D02*
X195462619Y-99162857D01*
X195462619Y-98781904D02*
X195415000Y-98734285D01*
X195415000Y-98734285D02*
X195367380Y-98639047D01*
X195367380Y-98639047D02*
X195367380Y-98400952D01*
X195367380Y-98400952D02*
X195415000Y-98305714D01*
X195415000Y-98305714D02*
X195462619Y-98258095D01*
X195462619Y-98258095D02*
X195557857Y-98210476D01*
X195557857Y-98210476D02*
X195653095Y-98210476D01*
X195653095Y-98210476D02*
X195795952Y-98258095D01*
X195795952Y-98258095D02*
X196367380Y-98829523D01*
X196367380Y-98829523D02*
X196367380Y-98210476D01*
X196367380Y-97258095D02*
X196367380Y-97829523D01*
X196367380Y-97543809D02*
X195367380Y-97543809D01*
X195367380Y-97543809D02*
X195510238Y-97639047D01*
X195510238Y-97639047D02*
X195605476Y-97734285D01*
X195605476Y-97734285D02*
X195653095Y-97829523D01*
%TO.C,C15*%
X151757142Y-98792142D02*
X151709523Y-98839761D01*
X151709523Y-98839761D02*
X151566666Y-98887380D01*
X151566666Y-98887380D02*
X151471428Y-98887380D01*
X151471428Y-98887380D02*
X151328571Y-98839761D01*
X151328571Y-98839761D02*
X151233333Y-98744523D01*
X151233333Y-98744523D02*
X151185714Y-98649285D01*
X151185714Y-98649285D02*
X151138095Y-98458809D01*
X151138095Y-98458809D02*
X151138095Y-98315952D01*
X151138095Y-98315952D02*
X151185714Y-98125476D01*
X151185714Y-98125476D02*
X151233333Y-98030238D01*
X151233333Y-98030238D02*
X151328571Y-97935000D01*
X151328571Y-97935000D02*
X151471428Y-97887380D01*
X151471428Y-97887380D02*
X151566666Y-97887380D01*
X151566666Y-97887380D02*
X151709523Y-97935000D01*
X151709523Y-97935000D02*
X151757142Y-97982619D01*
X152709523Y-98887380D02*
X152138095Y-98887380D01*
X152423809Y-98887380D02*
X152423809Y-97887380D01*
X152423809Y-97887380D02*
X152328571Y-98030238D01*
X152328571Y-98030238D02*
X152233333Y-98125476D01*
X152233333Y-98125476D02*
X152138095Y-98173095D01*
X153614285Y-97887380D02*
X153138095Y-97887380D01*
X153138095Y-97887380D02*
X153090476Y-98363571D01*
X153090476Y-98363571D02*
X153138095Y-98315952D01*
X153138095Y-98315952D02*
X153233333Y-98268333D01*
X153233333Y-98268333D02*
X153471428Y-98268333D01*
X153471428Y-98268333D02*
X153566666Y-98315952D01*
X153566666Y-98315952D02*
X153614285Y-98363571D01*
X153614285Y-98363571D02*
X153661904Y-98458809D01*
X153661904Y-98458809D02*
X153661904Y-98696904D01*
X153661904Y-98696904D02*
X153614285Y-98792142D01*
X153614285Y-98792142D02*
X153566666Y-98839761D01*
X153566666Y-98839761D02*
X153471428Y-98887380D01*
X153471428Y-98887380D02*
X153233333Y-98887380D01*
X153233333Y-98887380D02*
X153138095Y-98839761D01*
X153138095Y-98839761D02*
X153090476Y-98792142D01*
%TO.C,U10*%
X111741905Y-79647380D02*
X111741905Y-80456904D01*
X111741905Y-80456904D02*
X111789524Y-80552142D01*
X111789524Y-80552142D02*
X111837143Y-80599761D01*
X111837143Y-80599761D02*
X111932381Y-80647380D01*
X111932381Y-80647380D02*
X112122857Y-80647380D01*
X112122857Y-80647380D02*
X112218095Y-80599761D01*
X112218095Y-80599761D02*
X112265714Y-80552142D01*
X112265714Y-80552142D02*
X112313333Y-80456904D01*
X112313333Y-80456904D02*
X112313333Y-79647380D01*
X113313333Y-80647380D02*
X112741905Y-80647380D01*
X113027619Y-80647380D02*
X113027619Y-79647380D01*
X113027619Y-79647380D02*
X112932381Y-79790238D01*
X112932381Y-79790238D02*
X112837143Y-79885476D01*
X112837143Y-79885476D02*
X112741905Y-79933095D01*
X113932381Y-79647380D02*
X114027619Y-79647380D01*
X114027619Y-79647380D02*
X114122857Y-79695000D01*
X114122857Y-79695000D02*
X114170476Y-79742619D01*
X114170476Y-79742619D02*
X114218095Y-79837857D01*
X114218095Y-79837857D02*
X114265714Y-80028333D01*
X114265714Y-80028333D02*
X114265714Y-80266428D01*
X114265714Y-80266428D02*
X114218095Y-80456904D01*
X114218095Y-80456904D02*
X114170476Y-80552142D01*
X114170476Y-80552142D02*
X114122857Y-80599761D01*
X114122857Y-80599761D02*
X114027619Y-80647380D01*
X114027619Y-80647380D02*
X113932381Y-80647380D01*
X113932381Y-80647380D02*
X113837143Y-80599761D01*
X113837143Y-80599761D02*
X113789524Y-80552142D01*
X113789524Y-80552142D02*
X113741905Y-80456904D01*
X113741905Y-80456904D02*
X113694286Y-80266428D01*
X113694286Y-80266428D02*
X113694286Y-80028333D01*
X113694286Y-80028333D02*
X113741905Y-79837857D01*
X113741905Y-79837857D02*
X113789524Y-79742619D01*
X113789524Y-79742619D02*
X113837143Y-79695000D01*
X113837143Y-79695000D02*
X113932381Y-79647380D01*
%TO.C,R2*%
X157273333Y-33057380D02*
X156940000Y-32581190D01*
X156701905Y-33057380D02*
X156701905Y-32057380D01*
X156701905Y-32057380D02*
X157082857Y-32057380D01*
X157082857Y-32057380D02*
X157178095Y-32105000D01*
X157178095Y-32105000D02*
X157225714Y-32152619D01*
X157225714Y-32152619D02*
X157273333Y-32247857D01*
X157273333Y-32247857D02*
X157273333Y-32390714D01*
X157273333Y-32390714D02*
X157225714Y-32485952D01*
X157225714Y-32485952D02*
X157178095Y-32533571D01*
X157178095Y-32533571D02*
X157082857Y-32581190D01*
X157082857Y-32581190D02*
X156701905Y-32581190D01*
X157654286Y-32152619D02*
X157701905Y-32105000D01*
X157701905Y-32105000D02*
X157797143Y-32057380D01*
X157797143Y-32057380D02*
X158035238Y-32057380D01*
X158035238Y-32057380D02*
X158130476Y-32105000D01*
X158130476Y-32105000D02*
X158178095Y-32152619D01*
X158178095Y-32152619D02*
X158225714Y-32247857D01*
X158225714Y-32247857D02*
X158225714Y-32343095D01*
X158225714Y-32343095D02*
X158178095Y-32485952D01*
X158178095Y-32485952D02*
X157606667Y-33057380D01*
X157606667Y-33057380D02*
X158225714Y-33057380D01*
%TO.C,D1*%
X87606905Y-47817380D02*
X87606905Y-46817380D01*
X87606905Y-46817380D02*
X87845000Y-46817380D01*
X87845000Y-46817380D02*
X87987857Y-46865000D01*
X87987857Y-46865000D02*
X88083095Y-46960238D01*
X88083095Y-46960238D02*
X88130714Y-47055476D01*
X88130714Y-47055476D02*
X88178333Y-47245952D01*
X88178333Y-47245952D02*
X88178333Y-47388809D01*
X88178333Y-47388809D02*
X88130714Y-47579285D01*
X88130714Y-47579285D02*
X88083095Y-47674523D01*
X88083095Y-47674523D02*
X87987857Y-47769761D01*
X87987857Y-47769761D02*
X87845000Y-47817380D01*
X87845000Y-47817380D02*
X87606905Y-47817380D01*
X89130714Y-47817380D02*
X88559286Y-47817380D01*
X88845000Y-47817380D02*
X88845000Y-46817380D01*
X88845000Y-46817380D02*
X88749762Y-46960238D01*
X88749762Y-46960238D02*
X88654524Y-47055476D01*
X88654524Y-47055476D02*
X88559286Y-47103095D01*
%TO.C,C9*%
X116853333Y-89522142D02*
X116805714Y-89569761D01*
X116805714Y-89569761D02*
X116662857Y-89617380D01*
X116662857Y-89617380D02*
X116567619Y-89617380D01*
X116567619Y-89617380D02*
X116424762Y-89569761D01*
X116424762Y-89569761D02*
X116329524Y-89474523D01*
X116329524Y-89474523D02*
X116281905Y-89379285D01*
X116281905Y-89379285D02*
X116234286Y-89188809D01*
X116234286Y-89188809D02*
X116234286Y-89045952D01*
X116234286Y-89045952D02*
X116281905Y-88855476D01*
X116281905Y-88855476D02*
X116329524Y-88760238D01*
X116329524Y-88760238D02*
X116424762Y-88665000D01*
X116424762Y-88665000D02*
X116567619Y-88617380D01*
X116567619Y-88617380D02*
X116662857Y-88617380D01*
X116662857Y-88617380D02*
X116805714Y-88665000D01*
X116805714Y-88665000D02*
X116853333Y-88712619D01*
X117329524Y-89617380D02*
X117520000Y-89617380D01*
X117520000Y-89617380D02*
X117615238Y-89569761D01*
X117615238Y-89569761D02*
X117662857Y-89522142D01*
X117662857Y-89522142D02*
X117758095Y-89379285D01*
X117758095Y-89379285D02*
X117805714Y-89188809D01*
X117805714Y-89188809D02*
X117805714Y-88807857D01*
X117805714Y-88807857D02*
X117758095Y-88712619D01*
X117758095Y-88712619D02*
X117710476Y-88665000D01*
X117710476Y-88665000D02*
X117615238Y-88617380D01*
X117615238Y-88617380D02*
X117424762Y-88617380D01*
X117424762Y-88617380D02*
X117329524Y-88665000D01*
X117329524Y-88665000D02*
X117281905Y-88712619D01*
X117281905Y-88712619D02*
X117234286Y-88807857D01*
X117234286Y-88807857D02*
X117234286Y-89045952D01*
X117234286Y-89045952D02*
X117281905Y-89141190D01*
X117281905Y-89141190D02*
X117329524Y-89188809D01*
X117329524Y-89188809D02*
X117424762Y-89236428D01*
X117424762Y-89236428D02*
X117615238Y-89236428D01*
X117615238Y-89236428D02*
X117710476Y-89188809D01*
X117710476Y-89188809D02*
X117758095Y-89141190D01*
X117758095Y-89141190D02*
X117805714Y-89045952D01*
%TO.C,R32*%
X131397142Y-132117380D02*
X131063809Y-131641190D01*
X130825714Y-132117380D02*
X130825714Y-131117380D01*
X130825714Y-131117380D02*
X131206666Y-131117380D01*
X131206666Y-131117380D02*
X131301904Y-131165000D01*
X131301904Y-131165000D02*
X131349523Y-131212619D01*
X131349523Y-131212619D02*
X131397142Y-131307857D01*
X131397142Y-131307857D02*
X131397142Y-131450714D01*
X131397142Y-131450714D02*
X131349523Y-131545952D01*
X131349523Y-131545952D02*
X131301904Y-131593571D01*
X131301904Y-131593571D02*
X131206666Y-131641190D01*
X131206666Y-131641190D02*
X130825714Y-131641190D01*
X131730476Y-131117380D02*
X132349523Y-131117380D01*
X132349523Y-131117380D02*
X132016190Y-131498333D01*
X132016190Y-131498333D02*
X132159047Y-131498333D01*
X132159047Y-131498333D02*
X132254285Y-131545952D01*
X132254285Y-131545952D02*
X132301904Y-131593571D01*
X132301904Y-131593571D02*
X132349523Y-131688809D01*
X132349523Y-131688809D02*
X132349523Y-131926904D01*
X132349523Y-131926904D02*
X132301904Y-132022142D01*
X132301904Y-132022142D02*
X132254285Y-132069761D01*
X132254285Y-132069761D02*
X132159047Y-132117380D01*
X132159047Y-132117380D02*
X131873333Y-132117380D01*
X131873333Y-132117380D02*
X131778095Y-132069761D01*
X131778095Y-132069761D02*
X131730476Y-132022142D01*
X132730476Y-131212619D02*
X132778095Y-131165000D01*
X132778095Y-131165000D02*
X132873333Y-131117380D01*
X132873333Y-131117380D02*
X133111428Y-131117380D01*
X133111428Y-131117380D02*
X133206666Y-131165000D01*
X133206666Y-131165000D02*
X133254285Y-131212619D01*
X133254285Y-131212619D02*
X133301904Y-131307857D01*
X133301904Y-131307857D02*
X133301904Y-131403095D01*
X133301904Y-131403095D02*
X133254285Y-131545952D01*
X133254285Y-131545952D02*
X132682857Y-132117380D01*
X132682857Y-132117380D02*
X133301904Y-132117380D01*
%TO.C,R12*%
X191367380Y-37142857D02*
X190891190Y-37476190D01*
X191367380Y-37714285D02*
X190367380Y-37714285D01*
X190367380Y-37714285D02*
X190367380Y-37333333D01*
X190367380Y-37333333D02*
X190415000Y-37238095D01*
X190415000Y-37238095D02*
X190462619Y-37190476D01*
X190462619Y-37190476D02*
X190557857Y-37142857D01*
X190557857Y-37142857D02*
X190700714Y-37142857D01*
X190700714Y-37142857D02*
X190795952Y-37190476D01*
X190795952Y-37190476D02*
X190843571Y-37238095D01*
X190843571Y-37238095D02*
X190891190Y-37333333D01*
X190891190Y-37333333D02*
X190891190Y-37714285D01*
X191367380Y-36190476D02*
X191367380Y-36761904D01*
X191367380Y-36476190D02*
X190367380Y-36476190D01*
X190367380Y-36476190D02*
X190510238Y-36571428D01*
X190510238Y-36571428D02*
X190605476Y-36666666D01*
X190605476Y-36666666D02*
X190653095Y-36761904D01*
X190462619Y-35809523D02*
X190415000Y-35761904D01*
X190415000Y-35761904D02*
X190367380Y-35666666D01*
X190367380Y-35666666D02*
X190367380Y-35428571D01*
X190367380Y-35428571D02*
X190415000Y-35333333D01*
X190415000Y-35333333D02*
X190462619Y-35285714D01*
X190462619Y-35285714D02*
X190557857Y-35238095D01*
X190557857Y-35238095D02*
X190653095Y-35238095D01*
X190653095Y-35238095D02*
X190795952Y-35285714D01*
X190795952Y-35285714D02*
X191367380Y-35857142D01*
X191367380Y-35857142D02*
X191367380Y-35238095D01*
%TO.C,U5*%
X160488095Y-100677380D02*
X160488095Y-101486904D01*
X160488095Y-101486904D02*
X160535714Y-101582142D01*
X160535714Y-101582142D02*
X160583333Y-101629761D01*
X160583333Y-101629761D02*
X160678571Y-101677380D01*
X160678571Y-101677380D02*
X160869047Y-101677380D01*
X160869047Y-101677380D02*
X160964285Y-101629761D01*
X160964285Y-101629761D02*
X161011904Y-101582142D01*
X161011904Y-101582142D02*
X161059523Y-101486904D01*
X161059523Y-101486904D02*
X161059523Y-100677380D01*
X162011904Y-100677380D02*
X161535714Y-100677380D01*
X161535714Y-100677380D02*
X161488095Y-101153571D01*
X161488095Y-101153571D02*
X161535714Y-101105952D01*
X161535714Y-101105952D02*
X161630952Y-101058333D01*
X161630952Y-101058333D02*
X161869047Y-101058333D01*
X161869047Y-101058333D02*
X161964285Y-101105952D01*
X161964285Y-101105952D02*
X162011904Y-101153571D01*
X162011904Y-101153571D02*
X162059523Y-101248809D01*
X162059523Y-101248809D02*
X162059523Y-101486904D01*
X162059523Y-101486904D02*
X162011904Y-101582142D01*
X162011904Y-101582142D02*
X161964285Y-101629761D01*
X161964285Y-101629761D02*
X161869047Y-101677380D01*
X161869047Y-101677380D02*
X161630952Y-101677380D01*
X161630952Y-101677380D02*
X161535714Y-101629761D01*
X161535714Y-101629761D02*
X161488095Y-101582142D01*
%TO.C,U9*%
X112218095Y-118842380D02*
X112218095Y-119651904D01*
X112218095Y-119651904D02*
X112265714Y-119747142D01*
X112265714Y-119747142D02*
X112313333Y-119794761D01*
X112313333Y-119794761D02*
X112408571Y-119842380D01*
X112408571Y-119842380D02*
X112599047Y-119842380D01*
X112599047Y-119842380D02*
X112694285Y-119794761D01*
X112694285Y-119794761D02*
X112741904Y-119747142D01*
X112741904Y-119747142D02*
X112789523Y-119651904D01*
X112789523Y-119651904D02*
X112789523Y-118842380D01*
X113313333Y-119842380D02*
X113503809Y-119842380D01*
X113503809Y-119842380D02*
X113599047Y-119794761D01*
X113599047Y-119794761D02*
X113646666Y-119747142D01*
X113646666Y-119747142D02*
X113741904Y-119604285D01*
X113741904Y-119604285D02*
X113789523Y-119413809D01*
X113789523Y-119413809D02*
X113789523Y-119032857D01*
X113789523Y-119032857D02*
X113741904Y-118937619D01*
X113741904Y-118937619D02*
X113694285Y-118890000D01*
X113694285Y-118890000D02*
X113599047Y-118842380D01*
X113599047Y-118842380D02*
X113408571Y-118842380D01*
X113408571Y-118842380D02*
X113313333Y-118890000D01*
X113313333Y-118890000D02*
X113265714Y-118937619D01*
X113265714Y-118937619D02*
X113218095Y-119032857D01*
X113218095Y-119032857D02*
X113218095Y-119270952D01*
X113218095Y-119270952D02*
X113265714Y-119366190D01*
X113265714Y-119366190D02*
X113313333Y-119413809D01*
X113313333Y-119413809D02*
X113408571Y-119461428D01*
X113408571Y-119461428D02*
X113599047Y-119461428D01*
X113599047Y-119461428D02*
X113694285Y-119413809D01*
X113694285Y-119413809D02*
X113741904Y-119366190D01*
X113741904Y-119366190D02*
X113789523Y-119270952D01*
%TO.C,C11*%
X151757142Y-42912142D02*
X151709523Y-42959761D01*
X151709523Y-42959761D02*
X151566666Y-43007380D01*
X151566666Y-43007380D02*
X151471428Y-43007380D01*
X151471428Y-43007380D02*
X151328571Y-42959761D01*
X151328571Y-42959761D02*
X151233333Y-42864523D01*
X151233333Y-42864523D02*
X151185714Y-42769285D01*
X151185714Y-42769285D02*
X151138095Y-42578809D01*
X151138095Y-42578809D02*
X151138095Y-42435952D01*
X151138095Y-42435952D02*
X151185714Y-42245476D01*
X151185714Y-42245476D02*
X151233333Y-42150238D01*
X151233333Y-42150238D02*
X151328571Y-42055000D01*
X151328571Y-42055000D02*
X151471428Y-42007380D01*
X151471428Y-42007380D02*
X151566666Y-42007380D01*
X151566666Y-42007380D02*
X151709523Y-42055000D01*
X151709523Y-42055000D02*
X151757142Y-42102619D01*
X152709523Y-43007380D02*
X152138095Y-43007380D01*
X152423809Y-43007380D02*
X152423809Y-42007380D01*
X152423809Y-42007380D02*
X152328571Y-42150238D01*
X152328571Y-42150238D02*
X152233333Y-42245476D01*
X152233333Y-42245476D02*
X152138095Y-42293095D01*
X153661904Y-43007380D02*
X153090476Y-43007380D01*
X153376190Y-43007380D02*
X153376190Y-42007380D01*
X153376190Y-42007380D02*
X153280952Y-42150238D01*
X153280952Y-42150238D02*
X153185714Y-42245476D01*
X153185714Y-42245476D02*
X153090476Y-42293095D01*
%TO.C,C1*%
X87103333Y-105172142D02*
X87055714Y-105219761D01*
X87055714Y-105219761D02*
X86912857Y-105267380D01*
X86912857Y-105267380D02*
X86817619Y-105267380D01*
X86817619Y-105267380D02*
X86674762Y-105219761D01*
X86674762Y-105219761D02*
X86579524Y-105124523D01*
X86579524Y-105124523D02*
X86531905Y-105029285D01*
X86531905Y-105029285D02*
X86484286Y-104838809D01*
X86484286Y-104838809D02*
X86484286Y-104695952D01*
X86484286Y-104695952D02*
X86531905Y-104505476D01*
X86531905Y-104505476D02*
X86579524Y-104410238D01*
X86579524Y-104410238D02*
X86674762Y-104315000D01*
X86674762Y-104315000D02*
X86817619Y-104267380D01*
X86817619Y-104267380D02*
X86912857Y-104267380D01*
X86912857Y-104267380D02*
X87055714Y-104315000D01*
X87055714Y-104315000D02*
X87103333Y-104362619D01*
X88055714Y-105267380D02*
X87484286Y-105267380D01*
X87770000Y-105267380D02*
X87770000Y-104267380D01*
X87770000Y-104267380D02*
X87674762Y-104410238D01*
X87674762Y-104410238D02*
X87579524Y-104505476D01*
X87579524Y-104505476D02*
X87484286Y-104553095D01*
%TO.C,C4*%
X100603333Y-96372142D02*
X100555714Y-96419761D01*
X100555714Y-96419761D02*
X100412857Y-96467380D01*
X100412857Y-96467380D02*
X100317619Y-96467380D01*
X100317619Y-96467380D02*
X100174762Y-96419761D01*
X100174762Y-96419761D02*
X100079524Y-96324523D01*
X100079524Y-96324523D02*
X100031905Y-96229285D01*
X100031905Y-96229285D02*
X99984286Y-96038809D01*
X99984286Y-96038809D02*
X99984286Y-95895952D01*
X99984286Y-95895952D02*
X100031905Y-95705476D01*
X100031905Y-95705476D02*
X100079524Y-95610238D01*
X100079524Y-95610238D02*
X100174762Y-95515000D01*
X100174762Y-95515000D02*
X100317619Y-95467380D01*
X100317619Y-95467380D02*
X100412857Y-95467380D01*
X100412857Y-95467380D02*
X100555714Y-95515000D01*
X100555714Y-95515000D02*
X100603333Y-95562619D01*
X101460476Y-95800714D02*
X101460476Y-96467380D01*
X101222381Y-95419761D02*
X100984286Y-96134047D01*
X100984286Y-96134047D02*
X101603333Y-96134047D01*
%TO.C,TP6*%
X161958095Y-69947380D02*
X162529523Y-69947380D01*
X162243809Y-70947380D02*
X162243809Y-69947380D01*
X162862857Y-70947380D02*
X162862857Y-69947380D01*
X162862857Y-69947380D02*
X163243809Y-69947380D01*
X163243809Y-69947380D02*
X163339047Y-69995000D01*
X163339047Y-69995000D02*
X163386666Y-70042619D01*
X163386666Y-70042619D02*
X163434285Y-70137857D01*
X163434285Y-70137857D02*
X163434285Y-70280714D01*
X163434285Y-70280714D02*
X163386666Y-70375952D01*
X163386666Y-70375952D02*
X163339047Y-70423571D01*
X163339047Y-70423571D02*
X163243809Y-70471190D01*
X163243809Y-70471190D02*
X162862857Y-70471190D01*
X164291428Y-69947380D02*
X164100952Y-69947380D01*
X164100952Y-69947380D02*
X164005714Y-69995000D01*
X164005714Y-69995000D02*
X163958095Y-70042619D01*
X163958095Y-70042619D02*
X163862857Y-70185476D01*
X163862857Y-70185476D02*
X163815238Y-70375952D01*
X163815238Y-70375952D02*
X163815238Y-70756904D01*
X163815238Y-70756904D02*
X163862857Y-70852142D01*
X163862857Y-70852142D02*
X163910476Y-70899761D01*
X163910476Y-70899761D02*
X164005714Y-70947380D01*
X164005714Y-70947380D02*
X164196190Y-70947380D01*
X164196190Y-70947380D02*
X164291428Y-70899761D01*
X164291428Y-70899761D02*
X164339047Y-70852142D01*
X164339047Y-70852142D02*
X164386666Y-70756904D01*
X164386666Y-70756904D02*
X164386666Y-70518809D01*
X164386666Y-70518809D02*
X164339047Y-70423571D01*
X164339047Y-70423571D02*
X164291428Y-70375952D01*
X164291428Y-70375952D02*
X164196190Y-70328333D01*
X164196190Y-70328333D02*
X164005714Y-70328333D01*
X164005714Y-70328333D02*
X163910476Y-70375952D01*
X163910476Y-70375952D02*
X163862857Y-70423571D01*
X163862857Y-70423571D02*
X163815238Y-70518809D01*
%TO.C,R23*%
X178157142Y-119867380D02*
X177823809Y-119391190D01*
X177585714Y-119867380D02*
X177585714Y-118867380D01*
X177585714Y-118867380D02*
X177966666Y-118867380D01*
X177966666Y-118867380D02*
X178061904Y-118915000D01*
X178061904Y-118915000D02*
X178109523Y-118962619D01*
X178109523Y-118962619D02*
X178157142Y-119057857D01*
X178157142Y-119057857D02*
X178157142Y-119200714D01*
X178157142Y-119200714D02*
X178109523Y-119295952D01*
X178109523Y-119295952D02*
X178061904Y-119343571D01*
X178061904Y-119343571D02*
X177966666Y-119391190D01*
X177966666Y-119391190D02*
X177585714Y-119391190D01*
X178538095Y-118962619D02*
X178585714Y-118915000D01*
X178585714Y-118915000D02*
X178680952Y-118867380D01*
X178680952Y-118867380D02*
X178919047Y-118867380D01*
X178919047Y-118867380D02*
X179014285Y-118915000D01*
X179014285Y-118915000D02*
X179061904Y-118962619D01*
X179061904Y-118962619D02*
X179109523Y-119057857D01*
X179109523Y-119057857D02*
X179109523Y-119153095D01*
X179109523Y-119153095D02*
X179061904Y-119295952D01*
X179061904Y-119295952D02*
X178490476Y-119867380D01*
X178490476Y-119867380D02*
X179109523Y-119867380D01*
X179442857Y-118867380D02*
X180061904Y-118867380D01*
X180061904Y-118867380D02*
X179728571Y-119248333D01*
X179728571Y-119248333D02*
X179871428Y-119248333D01*
X179871428Y-119248333D02*
X179966666Y-119295952D01*
X179966666Y-119295952D02*
X180014285Y-119343571D01*
X180014285Y-119343571D02*
X180061904Y-119438809D01*
X180061904Y-119438809D02*
X180061904Y-119676904D01*
X180061904Y-119676904D02*
X180014285Y-119772142D01*
X180014285Y-119772142D02*
X179966666Y-119819761D01*
X179966666Y-119819761D02*
X179871428Y-119867380D01*
X179871428Y-119867380D02*
X179585714Y-119867380D01*
X179585714Y-119867380D02*
X179490476Y-119819761D01*
X179490476Y-119819761D02*
X179442857Y-119772142D01*
%TO.C,U1*%
X160488095Y-44797380D02*
X160488095Y-45606904D01*
X160488095Y-45606904D02*
X160535714Y-45702142D01*
X160535714Y-45702142D02*
X160583333Y-45749761D01*
X160583333Y-45749761D02*
X160678571Y-45797380D01*
X160678571Y-45797380D02*
X160869047Y-45797380D01*
X160869047Y-45797380D02*
X160964285Y-45749761D01*
X160964285Y-45749761D02*
X161011904Y-45702142D01*
X161011904Y-45702142D02*
X161059523Y-45606904D01*
X161059523Y-45606904D02*
X161059523Y-44797380D01*
X162059523Y-45797380D02*
X161488095Y-45797380D01*
X161773809Y-45797380D02*
X161773809Y-44797380D01*
X161773809Y-44797380D02*
X161678571Y-44940238D01*
X161678571Y-44940238D02*
X161583333Y-45035476D01*
X161583333Y-45035476D02*
X161488095Y-45083095D01*
%TO.C,R27*%
X101537142Y-36997380D02*
X101203809Y-36521190D01*
X100965714Y-36997380D02*
X100965714Y-35997380D01*
X100965714Y-35997380D02*
X101346666Y-35997380D01*
X101346666Y-35997380D02*
X101441904Y-36045000D01*
X101441904Y-36045000D02*
X101489523Y-36092619D01*
X101489523Y-36092619D02*
X101537142Y-36187857D01*
X101537142Y-36187857D02*
X101537142Y-36330714D01*
X101537142Y-36330714D02*
X101489523Y-36425952D01*
X101489523Y-36425952D02*
X101441904Y-36473571D01*
X101441904Y-36473571D02*
X101346666Y-36521190D01*
X101346666Y-36521190D02*
X100965714Y-36521190D01*
X101918095Y-36092619D02*
X101965714Y-36045000D01*
X101965714Y-36045000D02*
X102060952Y-35997380D01*
X102060952Y-35997380D02*
X102299047Y-35997380D01*
X102299047Y-35997380D02*
X102394285Y-36045000D01*
X102394285Y-36045000D02*
X102441904Y-36092619D01*
X102441904Y-36092619D02*
X102489523Y-36187857D01*
X102489523Y-36187857D02*
X102489523Y-36283095D01*
X102489523Y-36283095D02*
X102441904Y-36425952D01*
X102441904Y-36425952D02*
X101870476Y-36997380D01*
X101870476Y-36997380D02*
X102489523Y-36997380D01*
X102822857Y-35997380D02*
X103489523Y-35997380D01*
X103489523Y-35997380D02*
X103060952Y-36997380D01*
%TO.C,R26*%
X101537142Y-44617380D02*
X101203809Y-44141190D01*
X100965714Y-44617380D02*
X100965714Y-43617380D01*
X100965714Y-43617380D02*
X101346666Y-43617380D01*
X101346666Y-43617380D02*
X101441904Y-43665000D01*
X101441904Y-43665000D02*
X101489523Y-43712619D01*
X101489523Y-43712619D02*
X101537142Y-43807857D01*
X101537142Y-43807857D02*
X101537142Y-43950714D01*
X101537142Y-43950714D02*
X101489523Y-44045952D01*
X101489523Y-44045952D02*
X101441904Y-44093571D01*
X101441904Y-44093571D02*
X101346666Y-44141190D01*
X101346666Y-44141190D02*
X100965714Y-44141190D01*
X101918095Y-43712619D02*
X101965714Y-43665000D01*
X101965714Y-43665000D02*
X102060952Y-43617380D01*
X102060952Y-43617380D02*
X102299047Y-43617380D01*
X102299047Y-43617380D02*
X102394285Y-43665000D01*
X102394285Y-43665000D02*
X102441904Y-43712619D01*
X102441904Y-43712619D02*
X102489523Y-43807857D01*
X102489523Y-43807857D02*
X102489523Y-43903095D01*
X102489523Y-43903095D02*
X102441904Y-44045952D01*
X102441904Y-44045952D02*
X101870476Y-44617380D01*
X101870476Y-44617380D02*
X102489523Y-44617380D01*
X103346666Y-43617380D02*
X103156190Y-43617380D01*
X103156190Y-43617380D02*
X103060952Y-43665000D01*
X103060952Y-43665000D02*
X103013333Y-43712619D01*
X103013333Y-43712619D02*
X102918095Y-43855476D01*
X102918095Y-43855476D02*
X102870476Y-44045952D01*
X102870476Y-44045952D02*
X102870476Y-44426904D01*
X102870476Y-44426904D02*
X102918095Y-44522142D01*
X102918095Y-44522142D02*
X102965714Y-44569761D01*
X102965714Y-44569761D02*
X103060952Y-44617380D01*
X103060952Y-44617380D02*
X103251428Y-44617380D01*
X103251428Y-44617380D02*
X103346666Y-44569761D01*
X103346666Y-44569761D02*
X103394285Y-44522142D01*
X103394285Y-44522142D02*
X103441904Y-44426904D01*
X103441904Y-44426904D02*
X103441904Y-44188809D01*
X103441904Y-44188809D02*
X103394285Y-44093571D01*
X103394285Y-44093571D02*
X103346666Y-44045952D01*
X103346666Y-44045952D02*
X103251428Y-43998333D01*
X103251428Y-43998333D02*
X103060952Y-43998333D01*
X103060952Y-43998333D02*
X102965714Y-44045952D01*
X102965714Y-44045952D02*
X102918095Y-44093571D01*
X102918095Y-44093571D02*
X102870476Y-44188809D01*
%TO.C,TP3*%
X116058095Y-32987380D02*
X116629523Y-32987380D01*
X116343809Y-33987380D02*
X116343809Y-32987380D01*
X116962857Y-33987380D02*
X116962857Y-32987380D01*
X116962857Y-32987380D02*
X117343809Y-32987380D01*
X117343809Y-32987380D02*
X117439047Y-33035000D01*
X117439047Y-33035000D02*
X117486666Y-33082619D01*
X117486666Y-33082619D02*
X117534285Y-33177857D01*
X117534285Y-33177857D02*
X117534285Y-33320714D01*
X117534285Y-33320714D02*
X117486666Y-33415952D01*
X117486666Y-33415952D02*
X117439047Y-33463571D01*
X117439047Y-33463571D02*
X117343809Y-33511190D01*
X117343809Y-33511190D02*
X116962857Y-33511190D01*
X117867619Y-32987380D02*
X118486666Y-32987380D01*
X118486666Y-32987380D02*
X118153333Y-33368333D01*
X118153333Y-33368333D02*
X118296190Y-33368333D01*
X118296190Y-33368333D02*
X118391428Y-33415952D01*
X118391428Y-33415952D02*
X118439047Y-33463571D01*
X118439047Y-33463571D02*
X118486666Y-33558809D01*
X118486666Y-33558809D02*
X118486666Y-33796904D01*
X118486666Y-33796904D02*
X118439047Y-33892142D01*
X118439047Y-33892142D02*
X118391428Y-33939761D01*
X118391428Y-33939761D02*
X118296190Y-33987380D01*
X118296190Y-33987380D02*
X118010476Y-33987380D01*
X118010476Y-33987380D02*
X117915238Y-33939761D01*
X117915238Y-33939761D02*
X117867619Y-33892142D01*
%TO.C,R16*%
X191367380Y-65142857D02*
X190891190Y-65476190D01*
X191367380Y-65714285D02*
X190367380Y-65714285D01*
X190367380Y-65714285D02*
X190367380Y-65333333D01*
X190367380Y-65333333D02*
X190415000Y-65238095D01*
X190415000Y-65238095D02*
X190462619Y-65190476D01*
X190462619Y-65190476D02*
X190557857Y-65142857D01*
X190557857Y-65142857D02*
X190700714Y-65142857D01*
X190700714Y-65142857D02*
X190795952Y-65190476D01*
X190795952Y-65190476D02*
X190843571Y-65238095D01*
X190843571Y-65238095D02*
X190891190Y-65333333D01*
X190891190Y-65333333D02*
X190891190Y-65714285D01*
X191367380Y-64190476D02*
X191367380Y-64761904D01*
X191367380Y-64476190D02*
X190367380Y-64476190D01*
X190367380Y-64476190D02*
X190510238Y-64571428D01*
X190510238Y-64571428D02*
X190605476Y-64666666D01*
X190605476Y-64666666D02*
X190653095Y-64761904D01*
X190367380Y-63333333D02*
X190367380Y-63523809D01*
X190367380Y-63523809D02*
X190415000Y-63619047D01*
X190415000Y-63619047D02*
X190462619Y-63666666D01*
X190462619Y-63666666D02*
X190605476Y-63761904D01*
X190605476Y-63761904D02*
X190795952Y-63809523D01*
X190795952Y-63809523D02*
X191176904Y-63809523D01*
X191176904Y-63809523D02*
X191272142Y-63761904D01*
X191272142Y-63761904D02*
X191319761Y-63714285D01*
X191319761Y-63714285D02*
X191367380Y-63619047D01*
X191367380Y-63619047D02*
X191367380Y-63428571D01*
X191367380Y-63428571D02*
X191319761Y-63333333D01*
X191319761Y-63333333D02*
X191272142Y-63285714D01*
X191272142Y-63285714D02*
X191176904Y-63238095D01*
X191176904Y-63238095D02*
X190938809Y-63238095D01*
X190938809Y-63238095D02*
X190843571Y-63285714D01*
X190843571Y-63285714D02*
X190795952Y-63333333D01*
X190795952Y-63333333D02*
X190748333Y-63428571D01*
X190748333Y-63428571D02*
X190748333Y-63619047D01*
X190748333Y-63619047D02*
X190795952Y-63714285D01*
X190795952Y-63714285D02*
X190843571Y-63761904D01*
X190843571Y-63761904D02*
X190938809Y-63809523D01*
%TO.C,R15*%
X178157142Y-63867380D02*
X177823809Y-63391190D01*
X177585714Y-63867380D02*
X177585714Y-62867380D01*
X177585714Y-62867380D02*
X177966666Y-62867380D01*
X177966666Y-62867380D02*
X178061904Y-62915000D01*
X178061904Y-62915000D02*
X178109523Y-62962619D01*
X178109523Y-62962619D02*
X178157142Y-63057857D01*
X178157142Y-63057857D02*
X178157142Y-63200714D01*
X178157142Y-63200714D02*
X178109523Y-63295952D01*
X178109523Y-63295952D02*
X178061904Y-63343571D01*
X178061904Y-63343571D02*
X177966666Y-63391190D01*
X177966666Y-63391190D02*
X177585714Y-63391190D01*
X179109523Y-63867380D02*
X178538095Y-63867380D01*
X178823809Y-63867380D02*
X178823809Y-62867380D01*
X178823809Y-62867380D02*
X178728571Y-63010238D01*
X178728571Y-63010238D02*
X178633333Y-63105476D01*
X178633333Y-63105476D02*
X178538095Y-63153095D01*
X180014285Y-62867380D02*
X179538095Y-62867380D01*
X179538095Y-62867380D02*
X179490476Y-63343571D01*
X179490476Y-63343571D02*
X179538095Y-63295952D01*
X179538095Y-63295952D02*
X179633333Y-63248333D01*
X179633333Y-63248333D02*
X179871428Y-63248333D01*
X179871428Y-63248333D02*
X179966666Y-63295952D01*
X179966666Y-63295952D02*
X180014285Y-63343571D01*
X180014285Y-63343571D02*
X180061904Y-63438809D01*
X180061904Y-63438809D02*
X180061904Y-63676904D01*
X180061904Y-63676904D02*
X180014285Y-63772142D01*
X180014285Y-63772142D02*
X179966666Y-63819761D01*
X179966666Y-63819761D02*
X179871428Y-63867380D01*
X179871428Y-63867380D02*
X179633333Y-63867380D01*
X179633333Y-63867380D02*
X179538095Y-63819761D01*
X179538095Y-63819761D02*
X179490476Y-63772142D01*
%TO.C,C2*%
X87103333Y-82492142D02*
X87055714Y-82539761D01*
X87055714Y-82539761D02*
X86912857Y-82587380D01*
X86912857Y-82587380D02*
X86817619Y-82587380D01*
X86817619Y-82587380D02*
X86674762Y-82539761D01*
X86674762Y-82539761D02*
X86579524Y-82444523D01*
X86579524Y-82444523D02*
X86531905Y-82349285D01*
X86531905Y-82349285D02*
X86484286Y-82158809D01*
X86484286Y-82158809D02*
X86484286Y-82015952D01*
X86484286Y-82015952D02*
X86531905Y-81825476D01*
X86531905Y-81825476D02*
X86579524Y-81730238D01*
X86579524Y-81730238D02*
X86674762Y-81635000D01*
X86674762Y-81635000D02*
X86817619Y-81587380D01*
X86817619Y-81587380D02*
X86912857Y-81587380D01*
X86912857Y-81587380D02*
X87055714Y-81635000D01*
X87055714Y-81635000D02*
X87103333Y-81682619D01*
X87484286Y-81682619D02*
X87531905Y-81635000D01*
X87531905Y-81635000D02*
X87627143Y-81587380D01*
X87627143Y-81587380D02*
X87865238Y-81587380D01*
X87865238Y-81587380D02*
X87960476Y-81635000D01*
X87960476Y-81635000D02*
X88008095Y-81682619D01*
X88008095Y-81682619D02*
X88055714Y-81777857D01*
X88055714Y-81777857D02*
X88055714Y-81873095D01*
X88055714Y-81873095D02*
X88008095Y-82015952D01*
X88008095Y-82015952D02*
X87436667Y-82587380D01*
X87436667Y-82587380D02*
X88055714Y-82587380D01*
%TO.C,D3*%
X87606905Y-32577380D02*
X87606905Y-31577380D01*
X87606905Y-31577380D02*
X87845000Y-31577380D01*
X87845000Y-31577380D02*
X87987857Y-31625000D01*
X87987857Y-31625000D02*
X88083095Y-31720238D01*
X88083095Y-31720238D02*
X88130714Y-31815476D01*
X88130714Y-31815476D02*
X88178333Y-32005952D01*
X88178333Y-32005952D02*
X88178333Y-32148809D01*
X88178333Y-32148809D02*
X88130714Y-32339285D01*
X88130714Y-32339285D02*
X88083095Y-32434523D01*
X88083095Y-32434523D02*
X87987857Y-32529761D01*
X87987857Y-32529761D02*
X87845000Y-32577380D01*
X87845000Y-32577380D02*
X87606905Y-32577380D01*
X88511667Y-31577380D02*
X89130714Y-31577380D01*
X89130714Y-31577380D02*
X88797381Y-31958333D01*
X88797381Y-31958333D02*
X88940238Y-31958333D01*
X88940238Y-31958333D02*
X89035476Y-32005952D01*
X89035476Y-32005952D02*
X89083095Y-32053571D01*
X89083095Y-32053571D02*
X89130714Y-32148809D01*
X89130714Y-32148809D02*
X89130714Y-32386904D01*
X89130714Y-32386904D02*
X89083095Y-32482142D01*
X89083095Y-32482142D02*
X89035476Y-32529761D01*
X89035476Y-32529761D02*
X88940238Y-32577380D01*
X88940238Y-32577380D02*
X88654524Y-32577380D01*
X88654524Y-32577380D02*
X88559286Y-32529761D01*
X88559286Y-32529761D02*
X88511667Y-32482142D01*
D11*
%TO.C,SW1*%
X92686667Y-111819761D02*
X92829524Y-111867380D01*
X92829524Y-111867380D02*
X93067619Y-111867380D01*
X93067619Y-111867380D02*
X93162857Y-111819761D01*
X93162857Y-111819761D02*
X93210476Y-111772142D01*
X93210476Y-111772142D02*
X93258095Y-111676904D01*
X93258095Y-111676904D02*
X93258095Y-111581666D01*
X93258095Y-111581666D02*
X93210476Y-111486428D01*
X93210476Y-111486428D02*
X93162857Y-111438809D01*
X93162857Y-111438809D02*
X93067619Y-111391190D01*
X93067619Y-111391190D02*
X92877143Y-111343571D01*
X92877143Y-111343571D02*
X92781905Y-111295952D01*
X92781905Y-111295952D02*
X92734286Y-111248333D01*
X92734286Y-111248333D02*
X92686667Y-111153095D01*
X92686667Y-111153095D02*
X92686667Y-111057857D01*
X92686667Y-111057857D02*
X92734286Y-110962619D01*
X92734286Y-110962619D02*
X92781905Y-110915000D01*
X92781905Y-110915000D02*
X92877143Y-110867380D01*
X92877143Y-110867380D02*
X93115238Y-110867380D01*
X93115238Y-110867380D02*
X93258095Y-110915000D01*
X93591429Y-110867380D02*
X93829524Y-111867380D01*
X93829524Y-111867380D02*
X94020000Y-111153095D01*
X94020000Y-111153095D02*
X94210476Y-111867380D01*
X94210476Y-111867380D02*
X94448572Y-110867380D01*
X95353333Y-111867380D02*
X94781905Y-111867380D01*
X95067619Y-111867380D02*
X95067619Y-110867380D01*
X95067619Y-110867380D02*
X94972381Y-111010238D01*
X94972381Y-111010238D02*
X94877143Y-111105476D01*
X94877143Y-111105476D02*
X94781905Y-111153095D01*
D10*
%TO.C,L2*%
X96787380Y-89486666D02*
X96787380Y-89962856D01*
X96787380Y-89962856D02*
X95787380Y-89962856D01*
X95882619Y-89200951D02*
X95835000Y-89153332D01*
X95835000Y-89153332D02*
X95787380Y-89058094D01*
X95787380Y-89058094D02*
X95787380Y-88819999D01*
X95787380Y-88819999D02*
X95835000Y-88724761D01*
X95835000Y-88724761D02*
X95882619Y-88677142D01*
X95882619Y-88677142D02*
X95977857Y-88629523D01*
X95977857Y-88629523D02*
X96073095Y-88629523D01*
X96073095Y-88629523D02*
X96215952Y-88677142D01*
X96215952Y-88677142D02*
X96787380Y-89248570D01*
X96787380Y-89248570D02*
X96787380Y-88629523D01*
%TO.C,R4*%
X157273333Y-60997380D02*
X156940000Y-60521190D01*
X156701905Y-60997380D02*
X156701905Y-59997380D01*
X156701905Y-59997380D02*
X157082857Y-59997380D01*
X157082857Y-59997380D02*
X157178095Y-60045000D01*
X157178095Y-60045000D02*
X157225714Y-60092619D01*
X157225714Y-60092619D02*
X157273333Y-60187857D01*
X157273333Y-60187857D02*
X157273333Y-60330714D01*
X157273333Y-60330714D02*
X157225714Y-60425952D01*
X157225714Y-60425952D02*
X157178095Y-60473571D01*
X157178095Y-60473571D02*
X157082857Y-60521190D01*
X157082857Y-60521190D02*
X156701905Y-60521190D01*
X158130476Y-60330714D02*
X158130476Y-60997380D01*
X157892381Y-59949761D02*
X157654286Y-60664047D01*
X157654286Y-60664047D02*
X158273333Y-60664047D01*
%TO.C,TP5*%
X161958095Y-42007380D02*
X162529523Y-42007380D01*
X162243809Y-43007380D02*
X162243809Y-42007380D01*
X162862857Y-43007380D02*
X162862857Y-42007380D01*
X162862857Y-42007380D02*
X163243809Y-42007380D01*
X163243809Y-42007380D02*
X163339047Y-42055000D01*
X163339047Y-42055000D02*
X163386666Y-42102619D01*
X163386666Y-42102619D02*
X163434285Y-42197857D01*
X163434285Y-42197857D02*
X163434285Y-42340714D01*
X163434285Y-42340714D02*
X163386666Y-42435952D01*
X163386666Y-42435952D02*
X163339047Y-42483571D01*
X163339047Y-42483571D02*
X163243809Y-42531190D01*
X163243809Y-42531190D02*
X162862857Y-42531190D01*
X164339047Y-42007380D02*
X163862857Y-42007380D01*
X163862857Y-42007380D02*
X163815238Y-42483571D01*
X163815238Y-42483571D02*
X163862857Y-42435952D01*
X163862857Y-42435952D02*
X163958095Y-42388333D01*
X163958095Y-42388333D02*
X164196190Y-42388333D01*
X164196190Y-42388333D02*
X164291428Y-42435952D01*
X164291428Y-42435952D02*
X164339047Y-42483571D01*
X164339047Y-42483571D02*
X164386666Y-42578809D01*
X164386666Y-42578809D02*
X164386666Y-42816904D01*
X164386666Y-42816904D02*
X164339047Y-42912142D01*
X164339047Y-42912142D02*
X164291428Y-42959761D01*
X164291428Y-42959761D02*
X164196190Y-43007380D01*
X164196190Y-43007380D02*
X163958095Y-43007380D01*
X163958095Y-43007380D02*
X163862857Y-42959761D01*
X163862857Y-42959761D02*
X163815238Y-42912142D01*
%TO.C,C5*%
X100603333Y-73692142D02*
X100555714Y-73739761D01*
X100555714Y-73739761D02*
X100412857Y-73787380D01*
X100412857Y-73787380D02*
X100317619Y-73787380D01*
X100317619Y-73787380D02*
X100174762Y-73739761D01*
X100174762Y-73739761D02*
X100079524Y-73644523D01*
X100079524Y-73644523D02*
X100031905Y-73549285D01*
X100031905Y-73549285D02*
X99984286Y-73358809D01*
X99984286Y-73358809D02*
X99984286Y-73215952D01*
X99984286Y-73215952D02*
X100031905Y-73025476D01*
X100031905Y-73025476D02*
X100079524Y-72930238D01*
X100079524Y-72930238D02*
X100174762Y-72835000D01*
X100174762Y-72835000D02*
X100317619Y-72787380D01*
X100317619Y-72787380D02*
X100412857Y-72787380D01*
X100412857Y-72787380D02*
X100555714Y-72835000D01*
X100555714Y-72835000D02*
X100603333Y-72882619D01*
X101508095Y-72787380D02*
X101031905Y-72787380D01*
X101031905Y-72787380D02*
X100984286Y-73263571D01*
X100984286Y-73263571D02*
X101031905Y-73215952D01*
X101031905Y-73215952D02*
X101127143Y-73168333D01*
X101127143Y-73168333D02*
X101365238Y-73168333D01*
X101365238Y-73168333D02*
X101460476Y-73215952D01*
X101460476Y-73215952D02*
X101508095Y-73263571D01*
X101508095Y-73263571D02*
X101555714Y-73358809D01*
X101555714Y-73358809D02*
X101555714Y-73596904D01*
X101555714Y-73596904D02*
X101508095Y-73692142D01*
X101508095Y-73692142D02*
X101460476Y-73739761D01*
X101460476Y-73739761D02*
X101365238Y-73787380D01*
X101365238Y-73787380D02*
X101127143Y-73787380D01*
X101127143Y-73787380D02*
X101031905Y-73739761D01*
X101031905Y-73739761D02*
X100984286Y-73692142D01*
%TO.C,R7*%
X144573333Y-132327380D02*
X144240000Y-131851190D01*
X144001905Y-132327380D02*
X144001905Y-131327380D01*
X144001905Y-131327380D02*
X144382857Y-131327380D01*
X144382857Y-131327380D02*
X144478095Y-131375000D01*
X144478095Y-131375000D02*
X144525714Y-131422619D01*
X144525714Y-131422619D02*
X144573333Y-131517857D01*
X144573333Y-131517857D02*
X144573333Y-131660714D01*
X144573333Y-131660714D02*
X144525714Y-131755952D01*
X144525714Y-131755952D02*
X144478095Y-131803571D01*
X144478095Y-131803571D02*
X144382857Y-131851190D01*
X144382857Y-131851190D02*
X144001905Y-131851190D01*
X144906667Y-131327380D02*
X145573333Y-131327380D01*
X145573333Y-131327380D02*
X145144762Y-132327380D01*
%TO.C,C14*%
X147592142Y-81382857D02*
X147639761Y-81430476D01*
X147639761Y-81430476D02*
X147687380Y-81573333D01*
X147687380Y-81573333D02*
X147687380Y-81668571D01*
X147687380Y-81668571D02*
X147639761Y-81811428D01*
X147639761Y-81811428D02*
X147544523Y-81906666D01*
X147544523Y-81906666D02*
X147449285Y-81954285D01*
X147449285Y-81954285D02*
X147258809Y-82001904D01*
X147258809Y-82001904D02*
X147115952Y-82001904D01*
X147115952Y-82001904D02*
X146925476Y-81954285D01*
X146925476Y-81954285D02*
X146830238Y-81906666D01*
X146830238Y-81906666D02*
X146735000Y-81811428D01*
X146735000Y-81811428D02*
X146687380Y-81668571D01*
X146687380Y-81668571D02*
X146687380Y-81573333D01*
X146687380Y-81573333D02*
X146735000Y-81430476D01*
X146735000Y-81430476D02*
X146782619Y-81382857D01*
X147687380Y-80430476D02*
X147687380Y-81001904D01*
X147687380Y-80716190D02*
X146687380Y-80716190D01*
X146687380Y-80716190D02*
X146830238Y-80811428D01*
X146830238Y-80811428D02*
X146925476Y-80906666D01*
X146925476Y-80906666D02*
X146973095Y-81001904D01*
X147020714Y-79573333D02*
X147687380Y-79573333D01*
X146639761Y-79811428D02*
X147354047Y-80049523D01*
X147354047Y-80049523D02*
X147354047Y-79430476D01*
%TO.C,U12*%
X181126000Y-162516700D02*
X196874000Y-162516700D01*
X181126000Y-162491300D02*
X181126000Y-154744300D01*
X188974600Y-162491300D02*
X188974600Y-153601300D01*
X196874000Y-154769700D02*
X196874000Y-153601300D01*
X196874000Y-154744300D02*
X196874000Y-162491300D01*
X181126000Y-153601300D02*
X181126000Y-154820500D01*
X182269000Y-152458300D02*
X183437400Y-152458300D01*
X186714000Y-152458300D02*
X183437400Y-152458300D01*
X186714000Y-152458300D02*
X187857000Y-152458300D01*
X191286000Y-152458300D02*
X190143000Y-152458300D01*
X191286000Y-152458300D02*
X194588000Y-152458300D01*
X194562600Y-152458300D02*
X195731000Y-152458300D01*
X181126000Y-150197700D02*
X181126000Y-151289900D01*
X181126000Y-150172300D02*
X181126000Y-137878700D01*
X189000000Y-150172300D02*
X189000000Y-151315300D01*
X189000000Y-150172300D02*
X189000000Y-137878700D01*
X196874000Y-150172300D02*
X196874000Y-137878700D01*
X196874000Y-150146900D02*
X196874000Y-151340700D01*
X181126000Y-137878700D02*
X196874000Y-137878700D01*
X195756400Y-152458300D02*
G75*
G03*
X196874000Y-153575900I1117598J-2D01*
G01*
X181126000Y-153601300D02*
G75*
G03*
X182269000Y-152458300I0J1143000D01*
G01*
X196874000Y-151340700D02*
G75*
G03*
X195756400Y-152458300I-2J-1117598D01*
G01*
X182269000Y-152458300D02*
G75*
G03*
X181126000Y-151315300I-1143000J0D01*
G01*
X190143000Y-152458300D02*
G75*
G03*
X190143000Y-152458300I-1143000J0D01*
G01*
D12*
%TO.C,C7*%
X118140000Y-126065000D02*
X118140000Y-125750000D01*
X118140000Y-126065000D02*
X112900000Y-126065000D01*
X118140000Y-123640000D02*
X118140000Y-123325000D01*
X118140000Y-123325000D02*
X112900000Y-123325000D01*
X112900000Y-126065000D02*
X112900000Y-125750000D01*
X112900000Y-123640000D02*
X112900000Y-123325000D01*
%TO.C,R14*%
X172760000Y-70620000D02*
X173530000Y-70620000D01*
X173530000Y-69250000D02*
X173530000Y-71990000D01*
X173530000Y-71990000D02*
X180070000Y-71990000D01*
X180070000Y-69250000D02*
X173530000Y-69250000D01*
X180070000Y-71990000D02*
X180070000Y-69250000D01*
X180840000Y-70620000D02*
X180070000Y-70620000D01*
%TO.C,U3*%
X158600000Y-74370000D02*
X158600000Y-84650000D01*
X158600000Y-84650000D02*
X163900000Y-84650000D01*
X160250000Y-74370000D02*
X158600000Y-74370000D01*
X163900000Y-74370000D02*
X162250000Y-74370000D01*
X163900000Y-84650000D02*
X163900000Y-74370000D01*
X160250000Y-74370000D02*
G75*
G03*
X162250000Y-74370000I1000000J0D01*
G01*
%TO.C,C19*%
X199450000Y-40100000D02*
X199135000Y-40100000D01*
X199450000Y-40100000D02*
X199450000Y-45340000D01*
X197025000Y-40100000D02*
X196710000Y-40100000D01*
X196710000Y-40100000D02*
X196710000Y-45340000D01*
X199450000Y-45340000D02*
X199135000Y-45340000D01*
X197025000Y-45340000D02*
X196710000Y-45340000D01*
%TO.C,R11*%
X182840000Y-37580000D02*
X182070000Y-37580000D01*
X182070000Y-38950000D02*
X182070000Y-36210000D01*
X182070000Y-36210000D02*
X175530000Y-36210000D01*
X175530000Y-38950000D02*
X182070000Y-38950000D01*
X175530000Y-36210000D02*
X175530000Y-38950000D01*
X174760000Y-37580000D02*
X175530000Y-37580000D01*
%TO.C,R8*%
X153400000Y-118880000D02*
X154170000Y-118880000D01*
X154170000Y-117510000D02*
X154170000Y-120250000D01*
X154170000Y-120250000D02*
X160710000Y-120250000D01*
X160710000Y-117510000D02*
X154170000Y-117510000D01*
X160710000Y-120250000D02*
X160710000Y-117510000D01*
X161480000Y-118880000D02*
X160710000Y-118880000D01*
%TO.C,R3*%
X150920000Y-73160000D02*
X149810000Y-73160000D01*
X149810000Y-75080000D02*
X149810000Y-71240000D01*
X149810000Y-71240000D02*
X139670000Y-71240000D01*
X139670000Y-75080000D02*
X149810000Y-75080000D01*
X139670000Y-71240000D02*
X139670000Y-75080000D01*
X138560000Y-73160000D02*
X139670000Y-73160000D01*
%TO.C,R22*%
X172760000Y-126500000D02*
X173530000Y-126500000D01*
X173530000Y-125130000D02*
X173530000Y-127870000D01*
X173530000Y-127870000D02*
X180070000Y-127870000D01*
X180070000Y-125130000D02*
X173530000Y-125130000D01*
X180070000Y-127870000D02*
X180070000Y-125130000D01*
X180840000Y-126500000D02*
X180070000Y-126500000D01*
%TO.C,U7*%
X162010000Y-129870000D02*
G75*
G03*
X164010000Y-129870000I1000000J0D01*
G01*
X165660000Y-140150000D02*
X165660000Y-129870000D01*
X165660000Y-129870000D02*
X164010000Y-129870000D01*
X162010000Y-129870000D02*
X160360000Y-129870000D01*
X160360000Y-140150000D02*
X165660000Y-140150000D01*
X160360000Y-129870000D02*
X160360000Y-140150000D01*
%TO.C,U2*%
X189057500Y-40170000D02*
X187257500Y-40170000D01*
X189057500Y-40170000D02*
X189857500Y-40170000D01*
X189057500Y-43290000D02*
X188257500Y-43290000D01*
X189057500Y-43290000D02*
X189857500Y-43290000D01*
%TO.C,R24*%
X193000000Y-128000000D02*
X193000000Y-127230000D01*
X191630000Y-127230000D02*
X194370000Y-127230000D01*
X194370000Y-127230000D02*
X194370000Y-120690000D01*
X191630000Y-120690000D02*
X191630000Y-127230000D01*
X194370000Y-120690000D02*
X191630000Y-120690000D01*
X193000000Y-119920000D02*
X193000000Y-120690000D01*
%TO.C,C20*%
X199450000Y-68040000D02*
X199135000Y-68040000D01*
X199450000Y-68040000D02*
X199450000Y-73280000D01*
X197025000Y-68040000D02*
X196710000Y-68040000D01*
X196710000Y-68040000D02*
X196710000Y-73280000D01*
X199450000Y-73280000D02*
X199135000Y-73280000D01*
X197025000Y-73280000D02*
X196710000Y-73280000D01*
%TO.C,R28*%
X110900000Y-25640000D02*
X108250000Y-25640000D01*
X108250000Y-28010000D02*
X108250000Y-23270000D01*
X108250000Y-23270000D02*
X96110000Y-23270000D01*
X96110000Y-28010000D02*
X108250000Y-28010000D01*
X96110000Y-23270000D02*
X96110000Y-28010000D01*
X93460000Y-25640000D02*
X96110000Y-25640000D01*
%TO.C,U4*%
X189057500Y-68110000D02*
X187257500Y-68110000D01*
X189057500Y-68110000D02*
X189857500Y-68110000D01*
X189057500Y-71230000D02*
X188257500Y-71230000D01*
X189057500Y-71230000D02*
X189857500Y-71230000D01*
%TO.C,C3*%
X90770241Y-68659000D02*
X90140241Y-68659000D01*
X90455241Y-68974000D02*
X90455241Y-68344000D01*
X87270000Y-70050000D02*
X87270000Y-63590000D01*
X87230000Y-70050000D02*
X87230000Y-63590000D01*
X87190000Y-70050000D02*
X87190000Y-63590000D01*
X87150000Y-70048000D02*
X87150000Y-63592000D01*
X87110000Y-70047000D02*
X87110000Y-63593000D01*
X87070000Y-70044000D02*
X87070000Y-63596000D01*
X87030000Y-70042000D02*
X87030000Y-67860000D01*
X87030000Y-65780000D02*
X87030000Y-63598000D01*
X86990000Y-70038000D02*
X86990000Y-67860000D01*
X86990000Y-65780000D02*
X86990000Y-63602000D01*
X86950000Y-70035000D02*
X86950000Y-67860000D01*
X86950000Y-65780000D02*
X86950000Y-63605000D01*
X86910000Y-70031000D02*
X86910000Y-67860000D01*
X86910000Y-65780000D02*
X86910000Y-63609000D01*
X86870000Y-70026000D02*
X86870000Y-67860000D01*
X86870000Y-65780000D02*
X86870000Y-63614000D01*
X86830000Y-70021000D02*
X86830000Y-67860000D01*
X86830000Y-65780000D02*
X86830000Y-63619000D01*
X86790000Y-70015000D02*
X86790000Y-67860000D01*
X86790000Y-65780000D02*
X86790000Y-63625000D01*
X86750000Y-70009000D02*
X86750000Y-67860000D01*
X86750000Y-65780000D02*
X86750000Y-63631000D01*
X86710000Y-70002000D02*
X86710000Y-67860000D01*
X86710000Y-65780000D02*
X86710000Y-63638000D01*
X86670000Y-69995000D02*
X86670000Y-67860000D01*
X86670000Y-65780000D02*
X86670000Y-63645000D01*
X86630000Y-69987000D02*
X86630000Y-67860000D01*
X86630000Y-65780000D02*
X86630000Y-63653000D01*
X86590000Y-69979000D02*
X86590000Y-67860000D01*
X86590000Y-65780000D02*
X86590000Y-63661000D01*
X86549000Y-69970000D02*
X86549000Y-67860000D01*
X86549000Y-65780000D02*
X86549000Y-63670000D01*
X86509000Y-69961000D02*
X86509000Y-67860000D01*
X86509000Y-65780000D02*
X86509000Y-63679000D01*
X86469000Y-69951000D02*
X86469000Y-67860000D01*
X86469000Y-65780000D02*
X86469000Y-63689000D01*
X86429000Y-69941000D02*
X86429000Y-67860000D01*
X86429000Y-65780000D02*
X86429000Y-63699000D01*
X86389000Y-69930000D02*
X86389000Y-67860000D01*
X86389000Y-65780000D02*
X86389000Y-63710000D01*
X86349000Y-69918000D02*
X86349000Y-67860000D01*
X86349000Y-65780000D02*
X86349000Y-63722000D01*
X86309000Y-69906000D02*
X86309000Y-67860000D01*
X86309000Y-65780000D02*
X86309000Y-63734000D01*
X86269000Y-69894000D02*
X86269000Y-67860000D01*
X86269000Y-65780000D02*
X86269000Y-63746000D01*
X86229000Y-69881000D02*
X86229000Y-67860000D01*
X86229000Y-65780000D02*
X86229000Y-63759000D01*
X86189000Y-69867000D02*
X86189000Y-67860000D01*
X86189000Y-65780000D02*
X86189000Y-63773000D01*
X86149000Y-69853000D02*
X86149000Y-67860000D01*
X86149000Y-65780000D02*
X86149000Y-63787000D01*
X86109000Y-69838000D02*
X86109000Y-67860000D01*
X86109000Y-65780000D02*
X86109000Y-63802000D01*
X86069000Y-69822000D02*
X86069000Y-67860000D01*
X86069000Y-65780000D02*
X86069000Y-63818000D01*
X86029000Y-69806000D02*
X86029000Y-67860000D01*
X86029000Y-65780000D02*
X86029000Y-63834000D01*
X85989000Y-69790000D02*
X85989000Y-67860000D01*
X85989000Y-65780000D02*
X85989000Y-63850000D01*
X85949000Y-69772000D02*
X85949000Y-67860000D01*
X85949000Y-65780000D02*
X85949000Y-63868000D01*
X85909000Y-69754000D02*
X85909000Y-67860000D01*
X85909000Y-65780000D02*
X85909000Y-63886000D01*
X85869000Y-69736000D02*
X85869000Y-67860000D01*
X85869000Y-65780000D02*
X85869000Y-63904000D01*
X85829000Y-69716000D02*
X85829000Y-67860000D01*
X85829000Y-65780000D02*
X85829000Y-63924000D01*
X85789000Y-69696000D02*
X85789000Y-67860000D01*
X85789000Y-65780000D02*
X85789000Y-63944000D01*
X85749000Y-69676000D02*
X85749000Y-67860000D01*
X85749000Y-65780000D02*
X85749000Y-63964000D01*
X85709000Y-69654000D02*
X85709000Y-67860000D01*
X85709000Y-65780000D02*
X85709000Y-63986000D01*
X85669000Y-69632000D02*
X85669000Y-67860000D01*
X85669000Y-65780000D02*
X85669000Y-64008000D01*
X85629000Y-69610000D02*
X85629000Y-67860000D01*
X85629000Y-65780000D02*
X85629000Y-64030000D01*
X85589000Y-69586000D02*
X85589000Y-67860000D01*
X85589000Y-65780000D02*
X85589000Y-64054000D01*
X85549000Y-69562000D02*
X85549000Y-67860000D01*
X85549000Y-65780000D02*
X85549000Y-64078000D01*
X85509000Y-69536000D02*
X85509000Y-67860000D01*
X85509000Y-65780000D02*
X85509000Y-64104000D01*
X85469000Y-69510000D02*
X85469000Y-67860000D01*
X85469000Y-65780000D02*
X85469000Y-64130000D01*
X85429000Y-69484000D02*
X85429000Y-67860000D01*
X85429000Y-65780000D02*
X85429000Y-64156000D01*
X85389000Y-69456000D02*
X85389000Y-67860000D01*
X85389000Y-65780000D02*
X85389000Y-64184000D01*
X85349000Y-69427000D02*
X85349000Y-67860000D01*
X85349000Y-65780000D02*
X85349000Y-64213000D01*
X85309000Y-69398000D02*
X85309000Y-67860000D01*
X85309000Y-65780000D02*
X85309000Y-64242000D01*
X85269000Y-69368000D02*
X85269000Y-67860000D01*
X85269000Y-65780000D02*
X85269000Y-64272000D01*
X85229000Y-69336000D02*
X85229000Y-67860000D01*
X85229000Y-65780000D02*
X85229000Y-64304000D01*
X85189000Y-69304000D02*
X85189000Y-67860000D01*
X85189000Y-65780000D02*
X85189000Y-64336000D01*
X85149000Y-69270000D02*
X85149000Y-67860000D01*
X85149000Y-65780000D02*
X85149000Y-64370000D01*
X85109000Y-69236000D02*
X85109000Y-67860000D01*
X85109000Y-65780000D02*
X85109000Y-64404000D01*
X85069000Y-69200000D02*
X85069000Y-67860000D01*
X85069000Y-65780000D02*
X85069000Y-64440000D01*
X85029000Y-69163000D02*
X85029000Y-67860000D01*
X85029000Y-65780000D02*
X85029000Y-64477000D01*
X84989000Y-69125000D02*
X84989000Y-67860000D01*
X84989000Y-65780000D02*
X84989000Y-64515000D01*
X84949000Y-69085000D02*
X84949000Y-64555000D01*
X84909000Y-69044000D02*
X84909000Y-64596000D01*
X84869000Y-69002000D02*
X84869000Y-64638000D01*
X84829000Y-68957000D02*
X84829000Y-64683000D01*
X84789000Y-68912000D02*
X84789000Y-64728000D01*
X84749000Y-68864000D02*
X84749000Y-64776000D01*
X84709000Y-68815000D02*
X84709000Y-64825000D01*
X84669000Y-68764000D02*
X84669000Y-64876000D01*
X84629000Y-68710000D02*
X84629000Y-64930000D01*
X84589000Y-68654000D02*
X84589000Y-64986000D01*
X84549000Y-68596000D02*
X84549000Y-65044000D01*
X84509000Y-68534000D02*
X84509000Y-65106000D01*
X84469000Y-68470000D02*
X84469000Y-65170000D01*
X84429000Y-68401000D02*
X84429000Y-65239000D01*
X84389000Y-68329000D02*
X84389000Y-65311000D01*
X84349000Y-68252000D02*
X84349000Y-65388000D01*
X84309000Y-68170000D02*
X84309000Y-65470000D01*
X84269000Y-68082000D02*
X84269000Y-65558000D01*
X84229000Y-67985000D02*
X84229000Y-65655000D01*
X84189000Y-67879000D02*
X84189000Y-65761000D01*
X84149000Y-67760000D02*
X84149000Y-65880000D01*
X84109000Y-67622000D02*
X84109000Y-66018000D01*
X84069000Y-67453000D02*
X84069000Y-66187000D01*
X84029000Y-67222000D02*
X84029000Y-66418000D01*
X90540000Y-66820000D02*
G75*
G03*
X90540000Y-66820000I-3270000J0D01*
G01*
%TO.C,C18*%
X150875000Y-134000000D02*
X151190000Y-134000000D01*
X148450000Y-134000000D02*
X148765000Y-134000000D01*
X151190000Y-139240000D02*
X151190000Y-134000000D01*
X150875000Y-139240000D02*
X151190000Y-139240000D01*
X148450000Y-139240000D02*
X148450000Y-134000000D01*
X148450000Y-139240000D02*
X148765000Y-139240000D01*
%TO.C,C16*%
X148450000Y-111380000D02*
X148765000Y-111380000D01*
X148450000Y-111380000D02*
X148450000Y-106140000D01*
X150875000Y-111380000D02*
X151190000Y-111380000D01*
X151190000Y-111380000D02*
X151190000Y-106140000D01*
X148450000Y-106140000D02*
X148765000Y-106140000D01*
X150875000Y-106140000D02*
X151190000Y-106140000D01*
%TO.C,C13*%
X155020000Y-69450000D02*
X155020000Y-69135000D01*
X155020000Y-69450000D02*
X149780000Y-69450000D01*
X155020000Y-67025000D02*
X155020000Y-66710000D01*
X155020000Y-66710000D02*
X149780000Y-66710000D01*
X149780000Y-69450000D02*
X149780000Y-69135000D01*
X149780000Y-67025000D02*
X149780000Y-66710000D01*
%TO.C,U8*%
X189057500Y-123990000D02*
X187257500Y-123990000D01*
X189057500Y-123990000D02*
X189857500Y-123990000D01*
X189057500Y-127110000D02*
X188257500Y-127110000D01*
X189057500Y-127110000D02*
X189857500Y-127110000D01*
%TO.C,R31*%
X128000000Y-106180000D02*
X128770000Y-106180000D01*
X128770000Y-104810000D02*
X128770000Y-107550000D01*
X128770000Y-107550000D02*
X135310000Y-107550000D01*
X135310000Y-104810000D02*
X128770000Y-104810000D01*
X135310000Y-107550000D02*
X135310000Y-104810000D01*
X136080000Y-106180000D02*
X135310000Y-106180000D01*
%TO.C,R18*%
X172760000Y-98560000D02*
X173530000Y-98560000D01*
X173530000Y-97190000D02*
X173530000Y-99930000D01*
X173530000Y-99930000D02*
X180070000Y-99930000D01*
X180070000Y-97190000D02*
X173530000Y-97190000D01*
X180070000Y-99930000D02*
X180070000Y-97190000D01*
X180840000Y-98560000D02*
X180070000Y-98560000D01*
%TO.C,R20*%
X193000000Y-100060000D02*
X193000000Y-99290000D01*
X191630000Y-99290000D02*
X194370000Y-99290000D01*
X194370000Y-99290000D02*
X194370000Y-92750000D01*
X191630000Y-92750000D02*
X191630000Y-99290000D01*
X194370000Y-92750000D02*
X191630000Y-92750000D01*
X193000000Y-91980000D02*
X193000000Y-92750000D01*
%TO.C,U6*%
X189057500Y-96050000D02*
X187257500Y-96050000D01*
X189057500Y-96050000D02*
X189857500Y-96050000D01*
X189057500Y-99170000D02*
X188257500Y-99170000D01*
X189057500Y-99170000D02*
X189857500Y-99170000D01*
%TO.C,TP7*%
X164020000Y-96020000D02*
G75*
G03*
X164020000Y-96020000I-1500000J0D01*
G01*
%TO.C,C10*%
X119289801Y-67695000D02*
X118889801Y-67695000D01*
X119089801Y-67895000D02*
X119089801Y-67495000D01*
X117020000Y-68580000D02*
X117020000Y-64420000D01*
X116980000Y-68580000D02*
X116980000Y-64420000D01*
X116940000Y-68579000D02*
X116940000Y-64421000D01*
X116900000Y-68577000D02*
X116900000Y-64423000D01*
X116860000Y-68574000D02*
X116860000Y-64426000D01*
X116820000Y-68571000D02*
X116820000Y-67340000D01*
X116820000Y-65660000D02*
X116820000Y-64429000D01*
X116780000Y-68567000D02*
X116780000Y-67340000D01*
X116780000Y-65660000D02*
X116780000Y-64433000D01*
X116740000Y-68562000D02*
X116740000Y-67340000D01*
X116740000Y-65660000D02*
X116740000Y-64438000D01*
X116700000Y-68556000D02*
X116700000Y-67340000D01*
X116700000Y-65660000D02*
X116700000Y-64444000D01*
X116660000Y-68550000D02*
X116660000Y-67340000D01*
X116660000Y-65660000D02*
X116660000Y-64450000D01*
X116620000Y-68542000D02*
X116620000Y-67340000D01*
X116620000Y-65660000D02*
X116620000Y-64458000D01*
X116580000Y-68534000D02*
X116580000Y-67340000D01*
X116580000Y-65660000D02*
X116580000Y-64466000D01*
X116540000Y-68525000D02*
X116540000Y-67340000D01*
X116540000Y-65660000D02*
X116540000Y-64475000D01*
X116500000Y-68516000D02*
X116500000Y-67340000D01*
X116500000Y-65660000D02*
X116500000Y-64484000D01*
X116460000Y-68505000D02*
X116460000Y-67340000D01*
X116460000Y-65660000D02*
X116460000Y-64495000D01*
X116420000Y-68494000D02*
X116420000Y-67340000D01*
X116420000Y-65660000D02*
X116420000Y-64506000D01*
X116380000Y-68482000D02*
X116380000Y-67340000D01*
X116380000Y-65660000D02*
X116380000Y-64518000D01*
X116340000Y-68468000D02*
X116340000Y-67340000D01*
X116340000Y-65660000D02*
X116340000Y-64532000D01*
X116299000Y-68454000D02*
X116299000Y-67340000D01*
X116299000Y-65660000D02*
X116299000Y-64546000D01*
X116259000Y-68440000D02*
X116259000Y-67340000D01*
X116259000Y-65660000D02*
X116259000Y-64560000D01*
X116219000Y-68424000D02*
X116219000Y-67340000D01*
X116219000Y-65660000D02*
X116219000Y-64576000D01*
X116179000Y-68407000D02*
X116179000Y-67340000D01*
X116179000Y-65660000D02*
X116179000Y-64593000D01*
X116139000Y-68389000D02*
X116139000Y-67340000D01*
X116139000Y-65660000D02*
X116139000Y-64611000D01*
X116099000Y-68370000D02*
X116099000Y-67340000D01*
X116099000Y-65660000D02*
X116099000Y-64630000D01*
X116059000Y-68351000D02*
X116059000Y-67340000D01*
X116059000Y-65660000D02*
X116059000Y-64649000D01*
X116019000Y-68330000D02*
X116019000Y-67340000D01*
X116019000Y-65660000D02*
X116019000Y-64670000D01*
X115979000Y-68308000D02*
X115979000Y-67340000D01*
X115979000Y-65660000D02*
X115979000Y-64692000D01*
X115939000Y-68285000D02*
X115939000Y-67340000D01*
X115939000Y-65660000D02*
X115939000Y-64715000D01*
X115899000Y-68260000D02*
X115899000Y-67340000D01*
X115899000Y-65660000D02*
X115899000Y-64740000D01*
X115859000Y-68235000D02*
X115859000Y-67340000D01*
X115859000Y-65660000D02*
X115859000Y-64765000D01*
X115819000Y-68208000D02*
X115819000Y-67340000D01*
X115819000Y-65660000D02*
X115819000Y-64792000D01*
X115779000Y-68180000D02*
X115779000Y-67340000D01*
X115779000Y-65660000D02*
X115779000Y-64820000D01*
X115739000Y-68150000D02*
X115739000Y-67340000D01*
X115739000Y-65660000D02*
X115739000Y-64850000D01*
X115699000Y-68119000D02*
X115699000Y-67340000D01*
X115699000Y-65660000D02*
X115699000Y-64881000D01*
X115659000Y-68087000D02*
X115659000Y-67340000D01*
X115659000Y-65660000D02*
X115659000Y-64913000D01*
X115619000Y-68052000D02*
X115619000Y-67340000D01*
X115619000Y-65660000D02*
X115619000Y-64948000D01*
X115579000Y-68016000D02*
X115579000Y-67340000D01*
X115579000Y-65660000D02*
X115579000Y-64984000D01*
X115539000Y-67978000D02*
X115539000Y-67340000D01*
X115539000Y-65660000D02*
X115539000Y-65022000D01*
X115499000Y-67938000D02*
X115499000Y-67340000D01*
X115499000Y-65660000D02*
X115499000Y-65062000D01*
X115459000Y-67896000D02*
X115459000Y-67340000D01*
X115459000Y-65660000D02*
X115459000Y-65104000D01*
X115419000Y-67851000D02*
X115419000Y-67340000D01*
X115419000Y-65660000D02*
X115419000Y-65149000D01*
X115379000Y-67804000D02*
X115379000Y-67340000D01*
X115379000Y-65660000D02*
X115379000Y-65196000D01*
X115339000Y-67754000D02*
X115339000Y-67340000D01*
X115339000Y-65660000D02*
X115339000Y-65246000D01*
X115299000Y-67700000D02*
X115299000Y-67340000D01*
X115299000Y-65660000D02*
X115299000Y-65300000D01*
X115259000Y-67642000D02*
X115259000Y-67340000D01*
X115259000Y-65660000D02*
X115259000Y-65358000D01*
X115219000Y-67580000D02*
X115219000Y-67340000D01*
X115219000Y-65660000D02*
X115219000Y-65420000D01*
X115179000Y-67513000D02*
X115179000Y-65487000D01*
X115139000Y-67440000D02*
X115139000Y-65560000D01*
X115099000Y-67359000D02*
X115099000Y-65641000D01*
X115059000Y-67268000D02*
X115059000Y-65732000D01*
X115019000Y-67164000D02*
X115019000Y-65836000D01*
X114979000Y-67037000D02*
X114979000Y-65963000D01*
X114939000Y-66870000D02*
X114939000Y-66130000D01*
X119140000Y-66500000D02*
G75*
G03*
X119140000Y-66500000I-2120000J0D01*
G01*
%TO.C,TP1*%
X119520000Y-51360000D02*
G75*
G03*
X119520000Y-51360000I-1500000J0D01*
G01*
%TO.C,C22*%
X199450000Y-123920000D02*
X199135000Y-123920000D01*
X199450000Y-123920000D02*
X199450000Y-129160000D01*
X197025000Y-123920000D02*
X196710000Y-123920000D01*
X196710000Y-123920000D02*
X196710000Y-129160000D01*
X199450000Y-129160000D02*
X199135000Y-129160000D01*
X197025000Y-129160000D02*
X196710000Y-129160000D01*
D11*
%TO.C,D4*%
X87535000Y-25640000D02*
G75*
G03*
X87535000Y-25640000I-50000J0D01*
G01*
D10*
%TO.C,U11*%
X112685000Y-162698000D02*
X89313000Y-162698000D01*
X89315000Y-162694000D02*
X89315000Y-154947000D01*
X97163600Y-162694000D02*
X97163600Y-153804000D01*
X105063000Y-154972400D02*
X105063000Y-153804000D01*
X105063000Y-154947000D02*
X105063000Y-162694000D01*
X89315000Y-153804000D02*
X89315000Y-155023200D01*
X112937000Y-153804000D02*
X112937000Y-162694000D01*
X90458000Y-152661000D02*
X91626400Y-152661000D01*
X94903000Y-152661000D02*
X91626400Y-152661000D01*
X94903000Y-152661000D02*
X96046000Y-152661000D01*
X99475000Y-152661000D02*
X98332000Y-152661000D01*
X99475000Y-152661000D02*
X102777000Y-152661000D01*
X102751600Y-152661000D02*
X103920000Y-152661000D01*
X106231400Y-152661000D02*
X111794000Y-152661000D01*
X112937000Y-151543400D02*
X112937000Y-138060000D01*
X89315000Y-150400400D02*
X89315000Y-151492600D01*
X89315000Y-150375000D02*
X89315000Y-138056000D01*
X97189000Y-150375000D02*
X97189000Y-151518000D01*
X97189000Y-150375000D02*
X97189000Y-138056000D01*
X105063000Y-150375000D02*
X105063000Y-138056000D01*
X105063000Y-150349600D02*
X105063000Y-151543400D01*
X112937000Y-138060000D02*
X89313000Y-138060000D01*
X111870200Y-152686400D02*
G75*
G03*
X112937000Y-153753200I1066798J-2D01*
G01*
X89315000Y-153804000D02*
G75*
G03*
X90458000Y-152661000I0J1143000D01*
G01*
X112937000Y-151594200D02*
G75*
G03*
X111870200Y-152661000I-2J-1066798D01*
G01*
X90458000Y-152661000D02*
G75*
G03*
X89315000Y-151518000I-1143000J0D01*
G01*
X98332000Y-152661000D02*
G75*
G03*
X98332000Y-152661000I-1143000J0D01*
G01*
X106180600Y-152661000D02*
G75*
G03*
X106180600Y-152661000I-1117600J0D01*
G01*
D12*
%TO.C,R5*%
X150920000Y-101100000D02*
X149810000Y-101100000D01*
X149810000Y-103020000D02*
X149810000Y-99180000D01*
X149810000Y-99180000D02*
X139670000Y-99180000D01*
X139670000Y-103020000D02*
X149810000Y-103020000D01*
X139670000Y-99180000D02*
X139670000Y-103020000D01*
X138560000Y-101100000D02*
X139670000Y-101100000D01*
%TO.C,C12*%
X148450000Y-55500000D02*
X148765000Y-55500000D01*
X148450000Y-55500000D02*
X148450000Y-50260000D01*
X150875000Y-55500000D02*
X151190000Y-55500000D01*
X151190000Y-55500000D02*
X151190000Y-50260000D01*
X148450000Y-50260000D02*
X148765000Y-50260000D01*
X150875000Y-50260000D02*
X151190000Y-50260000D01*
%TO.C,J2*%
X210730000Y-56345000D02*
X210420000Y-56345000D01*
X203140000Y-56345000D02*
X208900000Y-56345000D01*
X203640000Y-57765000D02*
X203140000Y-57765000D01*
X203140000Y-57765000D02*
X203140000Y-56345000D01*
X203640000Y-70795000D02*
X203640000Y-57765000D01*
X203140000Y-70795000D02*
X203640000Y-70795000D01*
X210730000Y-72215000D02*
X210730000Y-56345000D01*
X210420000Y-72215000D02*
X210730000Y-72215000D01*
X208900000Y-72215000D02*
X203140000Y-72215000D01*
X203140000Y-72215000D02*
X203140000Y-70795000D01*
%TO.C,TP8*%
X164020000Y-123960000D02*
G75*
G03*
X164020000Y-123960000I-1500000J0D01*
G01*
%TO.C,TP2*%
X119520000Y-43740000D02*
G75*
G03*
X119520000Y-43740000I-1500000J0D01*
G01*
%TO.C,C8*%
X118140000Y-106065000D02*
X118140000Y-105750000D01*
X118140000Y-106065000D02*
X112900000Y-106065000D01*
X118140000Y-103640000D02*
X118140000Y-103325000D01*
X118140000Y-103325000D02*
X112900000Y-103325000D01*
X112900000Y-106065000D02*
X112900000Y-105750000D01*
X112900000Y-103640000D02*
X112900000Y-103325000D01*
%TO.C,R21*%
X179260000Y-131580000D02*
X178490000Y-131580000D01*
X178490000Y-132950000D02*
X178490000Y-130210000D01*
X178490000Y-130210000D02*
X171950000Y-130210000D01*
X171950000Y-132950000D02*
X178490000Y-132950000D01*
X171950000Y-130210000D02*
X171950000Y-132950000D01*
X171180000Y-131580000D02*
X171950000Y-131580000D01*
%TO.C,R30*%
X128000000Y-78240000D02*
X128770000Y-78240000D01*
X128770000Y-76870000D02*
X128770000Y-79610000D01*
X128770000Y-79610000D02*
X135310000Y-79610000D01*
X135310000Y-76870000D02*
X128770000Y-76870000D01*
X135310000Y-79610000D02*
X135310000Y-76870000D01*
X136080000Y-78240000D02*
X135310000Y-78240000D01*
%TO.C,C6*%
X97269759Y-64981000D02*
X97899759Y-64981000D01*
X97584759Y-64666000D02*
X97584759Y-65296000D01*
X100770000Y-63590000D02*
X100770000Y-70050000D01*
X100810000Y-63590000D02*
X100810000Y-70050000D01*
X100850000Y-63590000D02*
X100850000Y-70050000D01*
X100890000Y-63592000D02*
X100890000Y-70048000D01*
X100930000Y-63593000D02*
X100930000Y-70047000D01*
X100970000Y-63596000D02*
X100970000Y-70044000D01*
X101010000Y-63598000D02*
X101010000Y-65780000D01*
X101010000Y-67860000D02*
X101010000Y-70042000D01*
X101050000Y-63602000D02*
X101050000Y-65780000D01*
X101050000Y-67860000D02*
X101050000Y-70038000D01*
X101090000Y-63605000D02*
X101090000Y-65780000D01*
X101090000Y-67860000D02*
X101090000Y-70035000D01*
X101130000Y-63609000D02*
X101130000Y-65780000D01*
X101130000Y-67860000D02*
X101130000Y-70031000D01*
X101170000Y-63614000D02*
X101170000Y-65780000D01*
X101170000Y-67860000D02*
X101170000Y-70026000D01*
X101210000Y-63619000D02*
X101210000Y-65780000D01*
X101210000Y-67860000D02*
X101210000Y-70021000D01*
X101250000Y-63625000D02*
X101250000Y-65780000D01*
X101250000Y-67860000D02*
X101250000Y-70015000D01*
X101290000Y-63631000D02*
X101290000Y-65780000D01*
X101290000Y-67860000D02*
X101290000Y-70009000D01*
X101330000Y-63638000D02*
X101330000Y-65780000D01*
X101330000Y-67860000D02*
X101330000Y-70002000D01*
X101370000Y-63645000D02*
X101370000Y-65780000D01*
X101370000Y-67860000D02*
X101370000Y-69995000D01*
X101410000Y-63653000D02*
X101410000Y-65780000D01*
X101410000Y-67860000D02*
X101410000Y-69987000D01*
X101450000Y-63661000D02*
X101450000Y-65780000D01*
X101450000Y-67860000D02*
X101450000Y-69979000D01*
X101491000Y-63670000D02*
X101491000Y-65780000D01*
X101491000Y-67860000D02*
X101491000Y-69970000D01*
X101531000Y-63679000D02*
X101531000Y-65780000D01*
X101531000Y-67860000D02*
X101531000Y-69961000D01*
X101571000Y-63689000D02*
X101571000Y-65780000D01*
X101571000Y-67860000D02*
X101571000Y-69951000D01*
X101611000Y-63699000D02*
X101611000Y-65780000D01*
X101611000Y-67860000D02*
X101611000Y-69941000D01*
X101651000Y-63710000D02*
X101651000Y-65780000D01*
X101651000Y-67860000D02*
X101651000Y-69930000D01*
X101691000Y-63722000D02*
X101691000Y-65780000D01*
X101691000Y-67860000D02*
X101691000Y-69918000D01*
X101731000Y-63734000D02*
X101731000Y-65780000D01*
X101731000Y-67860000D02*
X101731000Y-69906000D01*
X101771000Y-63746000D02*
X101771000Y-65780000D01*
X101771000Y-67860000D02*
X101771000Y-69894000D01*
X101811000Y-63759000D02*
X101811000Y-65780000D01*
X101811000Y-67860000D02*
X101811000Y-69881000D01*
X101851000Y-63773000D02*
X101851000Y-65780000D01*
X101851000Y-67860000D02*
X101851000Y-69867000D01*
X101891000Y-63787000D02*
X101891000Y-65780000D01*
X101891000Y-67860000D02*
X101891000Y-69853000D01*
X101931000Y-63802000D02*
X101931000Y-65780000D01*
X101931000Y-67860000D02*
X101931000Y-69838000D01*
X101971000Y-63818000D02*
X101971000Y-65780000D01*
X101971000Y-67860000D02*
X101971000Y-69822000D01*
X102011000Y-63834000D02*
X102011000Y-65780000D01*
X102011000Y-67860000D02*
X102011000Y-69806000D01*
X102051000Y-63850000D02*
X102051000Y-65780000D01*
X102051000Y-67860000D02*
X102051000Y-69790000D01*
X102091000Y-63868000D02*
X102091000Y-65780000D01*
X102091000Y-67860000D02*
X102091000Y-69772000D01*
X102131000Y-63886000D02*
X102131000Y-65780000D01*
X102131000Y-67860000D02*
X102131000Y-69754000D01*
X102171000Y-63904000D02*
X102171000Y-65780000D01*
X102171000Y-67860000D02*
X102171000Y-69736000D01*
X102211000Y-63924000D02*
X102211000Y-65780000D01*
X102211000Y-67860000D02*
X102211000Y-69716000D01*
X102251000Y-63944000D02*
X102251000Y-65780000D01*
X102251000Y-67860000D02*
X102251000Y-69696000D01*
X102291000Y-63964000D02*
X102291000Y-65780000D01*
X102291000Y-67860000D02*
X102291000Y-69676000D01*
X102331000Y-63986000D02*
X102331000Y-65780000D01*
X102331000Y-67860000D02*
X102331000Y-69654000D01*
X102371000Y-64008000D02*
X102371000Y-65780000D01*
X102371000Y-67860000D02*
X102371000Y-69632000D01*
X102411000Y-64030000D02*
X102411000Y-65780000D01*
X102411000Y-67860000D02*
X102411000Y-69610000D01*
X102451000Y-64054000D02*
X102451000Y-65780000D01*
X102451000Y-67860000D02*
X102451000Y-69586000D01*
X102491000Y-64078000D02*
X102491000Y-65780000D01*
X102491000Y-67860000D02*
X102491000Y-69562000D01*
X102531000Y-64104000D02*
X102531000Y-65780000D01*
X102531000Y-67860000D02*
X102531000Y-69536000D01*
X102571000Y-64130000D02*
X102571000Y-65780000D01*
X102571000Y-67860000D02*
X102571000Y-69510000D01*
X102611000Y-64156000D02*
X102611000Y-65780000D01*
X102611000Y-67860000D02*
X102611000Y-69484000D01*
X102651000Y-64184000D02*
X102651000Y-65780000D01*
X102651000Y-67860000D02*
X102651000Y-69456000D01*
X102691000Y-64213000D02*
X102691000Y-65780000D01*
X102691000Y-67860000D02*
X102691000Y-69427000D01*
X102731000Y-64242000D02*
X102731000Y-65780000D01*
X102731000Y-67860000D02*
X102731000Y-69398000D01*
X102771000Y-64272000D02*
X102771000Y-65780000D01*
X102771000Y-67860000D02*
X102771000Y-69368000D01*
X102811000Y-64304000D02*
X102811000Y-65780000D01*
X102811000Y-67860000D02*
X102811000Y-69336000D01*
X102851000Y-64336000D02*
X102851000Y-65780000D01*
X102851000Y-67860000D02*
X102851000Y-69304000D01*
X102891000Y-64370000D02*
X102891000Y-65780000D01*
X102891000Y-67860000D02*
X102891000Y-69270000D01*
X102931000Y-64404000D02*
X102931000Y-65780000D01*
X102931000Y-67860000D02*
X102931000Y-69236000D01*
X102971000Y-64440000D02*
X102971000Y-65780000D01*
X102971000Y-67860000D02*
X102971000Y-69200000D01*
X103011000Y-64477000D02*
X103011000Y-65780000D01*
X103011000Y-67860000D02*
X103011000Y-69163000D01*
X103051000Y-64515000D02*
X103051000Y-65780000D01*
X103051000Y-67860000D02*
X103051000Y-69125000D01*
X103091000Y-64555000D02*
X103091000Y-69085000D01*
X103131000Y-64596000D02*
X103131000Y-69044000D01*
X103171000Y-64638000D02*
X103171000Y-69002000D01*
X103211000Y-64683000D02*
X103211000Y-68957000D01*
X103251000Y-64728000D02*
X103251000Y-68912000D01*
X103291000Y-64776000D02*
X103291000Y-68864000D01*
X103331000Y-64825000D02*
X103331000Y-68815000D01*
X103371000Y-64876000D02*
X103371000Y-68764000D01*
X103411000Y-64930000D02*
X103411000Y-68710000D01*
X103451000Y-64986000D02*
X103451000Y-68654000D01*
X103491000Y-65044000D02*
X103491000Y-68596000D01*
X103531000Y-65106000D02*
X103531000Y-68534000D01*
X103571000Y-65170000D02*
X103571000Y-68470000D01*
X103611000Y-65239000D02*
X103611000Y-68401000D01*
X103651000Y-65311000D02*
X103651000Y-68329000D01*
X103691000Y-65388000D02*
X103691000Y-68252000D01*
X103731000Y-65470000D02*
X103731000Y-68170000D01*
X103771000Y-65558000D02*
X103771000Y-68082000D01*
X103811000Y-65655000D02*
X103811000Y-67985000D01*
X103851000Y-65761000D02*
X103851000Y-67879000D01*
X103891000Y-65880000D02*
X103891000Y-67760000D01*
X103931000Y-66018000D02*
X103931000Y-67622000D01*
X103971000Y-66187000D02*
X103971000Y-67453000D01*
X104011000Y-66418000D02*
X104011000Y-67222000D01*
X104040000Y-66820000D02*
G75*
G03*
X104040000Y-66820000I-3270000J0D01*
G01*
%TO.C,R6*%
X153400000Y-90940000D02*
X154170000Y-90940000D01*
X154170000Y-89570000D02*
X154170000Y-92310000D01*
X154170000Y-92310000D02*
X160710000Y-92310000D01*
X160710000Y-89570000D02*
X154170000Y-89570000D01*
X160710000Y-92310000D02*
X160710000Y-89570000D01*
X161480000Y-90940000D02*
X160710000Y-90940000D01*
%TO.C,R10*%
X172760000Y-42660000D02*
X173530000Y-42660000D01*
X173530000Y-41290000D02*
X173530000Y-44030000D01*
X173530000Y-44030000D02*
X180070000Y-44030000D01*
X180070000Y-41290000D02*
X173530000Y-41290000D01*
X180070000Y-44030000D02*
X180070000Y-41290000D01*
X180840000Y-42660000D02*
X180070000Y-42660000D01*
%TO.C,R29*%
X128000000Y-50300000D02*
X128770000Y-50300000D01*
X128770000Y-48930000D02*
X128770000Y-51670000D01*
X128770000Y-51670000D02*
X135310000Y-51670000D01*
X135310000Y-48930000D02*
X128770000Y-48930000D01*
X135310000Y-51670000D02*
X135310000Y-48930000D01*
X136080000Y-50300000D02*
X135310000Y-50300000D01*
D11*
%TO.C,D2*%
X89255000Y-40880000D02*
G75*
G03*
X89255000Y-40880000I-50000J0D01*
G01*
D12*
%TO.C,R25*%
X110900000Y-48500000D02*
X108250000Y-48500000D01*
X108250000Y-50870000D02*
X108250000Y-46130000D01*
X108250000Y-46130000D02*
X96110000Y-46130000D01*
X96110000Y-50870000D02*
X108250000Y-50870000D01*
X96110000Y-46130000D02*
X96110000Y-50870000D01*
X93460000Y-48500000D02*
X96110000Y-48500000D01*
%TO.C,R9*%
X179260000Y-47760000D02*
X178490000Y-47760000D01*
X178490000Y-49130000D02*
X178490000Y-46390000D01*
X178490000Y-46390000D02*
X171950000Y-46390000D01*
X171950000Y-49130000D02*
X178490000Y-49130000D01*
X171950000Y-46390000D02*
X171950000Y-49130000D01*
X171180000Y-47760000D02*
X171950000Y-47760000D01*
%TO.C,R17*%
X179260000Y-103640000D02*
X178490000Y-103640000D01*
X178490000Y-105010000D02*
X178490000Y-102270000D01*
X178490000Y-102270000D02*
X171950000Y-102270000D01*
X171950000Y-105010000D02*
X178490000Y-105010000D01*
X171950000Y-102270000D02*
X171950000Y-105010000D01*
X171180000Y-103640000D02*
X171950000Y-103640000D01*
%TO.C,TP4*%
X119520000Y-28500000D02*
G75*
G03*
X119520000Y-28500000I-1500000J0D01*
G01*
%TO.C,R13*%
X171180000Y-75700000D02*
X171950000Y-75700000D01*
X171950000Y-74330000D02*
X171950000Y-77070000D01*
X171950000Y-77070000D02*
X178490000Y-77070000D01*
X178490000Y-74330000D02*
X171950000Y-74330000D01*
X178490000Y-77070000D02*
X178490000Y-74330000D01*
X179260000Y-75700000D02*
X178490000Y-75700000D01*
%TO.C,L1*%
X92990000Y-89320000D02*
G75*
G03*
X92990000Y-89320000I-4470000J0D01*
G01*
%TO.C,R19*%
X182840000Y-93480000D02*
X182070000Y-93480000D01*
X182070000Y-94850000D02*
X182070000Y-92110000D01*
X182070000Y-92110000D02*
X175530000Y-92110000D01*
X175530000Y-94850000D02*
X182070000Y-94850000D01*
X175530000Y-92110000D02*
X175530000Y-94850000D01*
X174760000Y-93480000D02*
X175530000Y-93480000D01*
%TO.C,C17*%
X154940000Y-125330000D02*
X154940000Y-125015000D01*
X154940000Y-125330000D02*
X149700000Y-125330000D01*
X154940000Y-122905000D02*
X154940000Y-122590000D01*
X154940000Y-122590000D02*
X149700000Y-122590000D01*
X149700000Y-125330000D02*
X149700000Y-125015000D01*
X149700000Y-122905000D02*
X149700000Y-122590000D01*
%TO.C,R1*%
X150920000Y-45220000D02*
X149810000Y-45220000D01*
X149810000Y-47140000D02*
X149810000Y-43300000D01*
X149810000Y-43300000D02*
X139670000Y-43300000D01*
X139670000Y-47140000D02*
X149810000Y-47140000D01*
X139670000Y-43300000D02*
X139670000Y-47140000D01*
X138560000Y-45220000D02*
X139670000Y-45220000D01*
%TO.C,C21*%
X199450000Y-95900000D02*
X199135000Y-95900000D01*
X199450000Y-95900000D02*
X199450000Y-101140000D01*
X197025000Y-95900000D02*
X196710000Y-95900000D01*
X196710000Y-95900000D02*
X196710000Y-101140000D01*
X199450000Y-101140000D02*
X199135000Y-101140000D01*
X197025000Y-101140000D02*
X196710000Y-101140000D01*
%TO.C,C15*%
X155020000Y-97390000D02*
X155020000Y-97075000D01*
X155020000Y-97390000D02*
X149780000Y-97390000D01*
X155020000Y-94965000D02*
X155020000Y-94650000D01*
X155020000Y-94650000D02*
X149780000Y-94650000D01*
X149780000Y-97390000D02*
X149780000Y-97075000D01*
X149780000Y-94965000D02*
X149780000Y-94650000D01*
%TO.C,U10*%
X116290000Y-79230000D02*
X116290000Y-78960000D01*
X116290000Y-78960000D02*
X119120000Y-78960000D01*
X116290000Y-72600000D02*
X117390000Y-72600000D01*
X116290000Y-72330000D02*
X116290000Y-72600000D01*
X109870000Y-79230000D02*
X116290000Y-79230000D01*
X109870000Y-72330000D02*
X116290000Y-72330000D01*
%TO.C,R2*%
X153400000Y-35060000D02*
X154170000Y-35060000D01*
X154170000Y-33690000D02*
X154170000Y-36430000D01*
X154170000Y-36430000D02*
X160710000Y-36430000D01*
X160710000Y-33690000D02*
X154170000Y-33690000D01*
X160710000Y-36430000D02*
X160710000Y-33690000D01*
X161480000Y-35060000D02*
X160710000Y-35060000D01*
D11*
%TO.C,D1*%
X87535000Y-48500000D02*
G75*
G03*
X87535000Y-48500000I-50000J0D01*
G01*
D12*
%TO.C,C9*%
X119824775Y-86975000D02*
X119324775Y-86975000D01*
X119574775Y-87225000D02*
X119574775Y-86725000D01*
X117020000Y-88080000D02*
X117020000Y-86540000D01*
X117020000Y-84460000D02*
X117020000Y-82920000D01*
X116980000Y-88080000D02*
X116980000Y-86540000D01*
X116980000Y-84460000D02*
X116980000Y-82920000D01*
X116940000Y-88079000D02*
X116940000Y-86540000D01*
X116940000Y-84460000D02*
X116940000Y-82921000D01*
X116900000Y-88078000D02*
X116900000Y-86540000D01*
X116900000Y-84460000D02*
X116900000Y-82922000D01*
X116860000Y-88076000D02*
X116860000Y-86540000D01*
X116860000Y-84460000D02*
X116860000Y-82924000D01*
X116820000Y-88073000D02*
X116820000Y-86540000D01*
X116820000Y-84460000D02*
X116820000Y-82927000D01*
X116780000Y-88069000D02*
X116780000Y-86540000D01*
X116780000Y-84460000D02*
X116780000Y-82931000D01*
X116740000Y-88065000D02*
X116740000Y-86540000D01*
X116740000Y-84460000D02*
X116740000Y-82935000D01*
X116700000Y-88061000D02*
X116700000Y-86540000D01*
X116700000Y-84460000D02*
X116700000Y-82939000D01*
X116660000Y-88056000D02*
X116660000Y-86540000D01*
X116660000Y-84460000D02*
X116660000Y-82944000D01*
X116620000Y-88050000D02*
X116620000Y-86540000D01*
X116620000Y-84460000D02*
X116620000Y-82950000D01*
X116580000Y-88043000D02*
X116580000Y-86540000D01*
X116580000Y-84460000D02*
X116580000Y-82957000D01*
X116540000Y-88036000D02*
X116540000Y-86540000D01*
X116540000Y-84460000D02*
X116540000Y-82964000D01*
X116500000Y-88028000D02*
X116500000Y-86540000D01*
X116500000Y-84460000D02*
X116500000Y-82972000D01*
X116460000Y-88020000D02*
X116460000Y-86540000D01*
X116460000Y-84460000D02*
X116460000Y-82980000D01*
X116420000Y-88011000D02*
X116420000Y-86540000D01*
X116420000Y-84460000D02*
X116420000Y-82989000D01*
X116380000Y-88001000D02*
X116380000Y-86540000D01*
X116380000Y-84460000D02*
X116380000Y-82999000D01*
X116340000Y-87991000D02*
X116340000Y-86540000D01*
X116340000Y-84460000D02*
X116340000Y-83009000D01*
X116299000Y-87980000D02*
X116299000Y-86540000D01*
X116299000Y-84460000D02*
X116299000Y-83020000D01*
X116259000Y-87968000D02*
X116259000Y-86540000D01*
X116259000Y-84460000D02*
X116259000Y-83032000D01*
X116219000Y-87955000D02*
X116219000Y-86540000D01*
X116219000Y-84460000D02*
X116219000Y-83045000D01*
X116179000Y-87942000D02*
X116179000Y-86540000D01*
X116179000Y-84460000D02*
X116179000Y-83058000D01*
X116139000Y-87928000D02*
X116139000Y-86540000D01*
X116139000Y-84460000D02*
X116139000Y-83072000D01*
X116099000Y-87914000D02*
X116099000Y-86540000D01*
X116099000Y-84460000D02*
X116099000Y-83086000D01*
X116059000Y-87898000D02*
X116059000Y-86540000D01*
X116059000Y-84460000D02*
X116059000Y-83102000D01*
X116019000Y-87882000D02*
X116019000Y-86540000D01*
X116019000Y-84460000D02*
X116019000Y-83118000D01*
X115979000Y-87865000D02*
X115979000Y-86540000D01*
X115979000Y-84460000D02*
X115979000Y-83135000D01*
X115939000Y-87848000D02*
X115939000Y-86540000D01*
X115939000Y-84460000D02*
X115939000Y-83152000D01*
X115899000Y-87829000D02*
X115899000Y-86540000D01*
X115899000Y-84460000D02*
X115899000Y-83171000D01*
X115859000Y-87810000D02*
X115859000Y-86540000D01*
X115859000Y-84460000D02*
X115859000Y-83190000D01*
X115819000Y-87790000D02*
X115819000Y-86540000D01*
X115819000Y-84460000D02*
X115819000Y-83210000D01*
X115779000Y-87768000D02*
X115779000Y-86540000D01*
X115779000Y-84460000D02*
X115779000Y-83232000D01*
X115739000Y-87747000D02*
X115739000Y-86540000D01*
X115739000Y-84460000D02*
X115739000Y-83253000D01*
X115699000Y-87724000D02*
X115699000Y-86540000D01*
X115699000Y-84460000D02*
X115699000Y-83276000D01*
X115659000Y-87700000D02*
X115659000Y-86540000D01*
X115659000Y-84460000D02*
X115659000Y-83300000D01*
X115619000Y-87675000D02*
X115619000Y-86540000D01*
X115619000Y-84460000D02*
X115619000Y-83325000D01*
X115579000Y-87649000D02*
X115579000Y-86540000D01*
X115579000Y-84460000D02*
X115579000Y-83351000D01*
X115539000Y-87622000D02*
X115539000Y-86540000D01*
X115539000Y-84460000D02*
X115539000Y-83378000D01*
X115499000Y-87595000D02*
X115499000Y-86540000D01*
X115499000Y-84460000D02*
X115499000Y-83405000D01*
X115459000Y-87565000D02*
X115459000Y-86540000D01*
X115459000Y-84460000D02*
X115459000Y-83435000D01*
X115419000Y-87535000D02*
X115419000Y-86540000D01*
X115419000Y-84460000D02*
X115419000Y-83465000D01*
X115379000Y-87504000D02*
X115379000Y-86540000D01*
X115379000Y-84460000D02*
X115379000Y-83496000D01*
X115339000Y-87471000D02*
X115339000Y-86540000D01*
X115339000Y-84460000D02*
X115339000Y-83529000D01*
X115299000Y-87437000D02*
X115299000Y-86540000D01*
X115299000Y-84460000D02*
X115299000Y-83563000D01*
X115259000Y-87401000D02*
X115259000Y-86540000D01*
X115259000Y-84460000D02*
X115259000Y-83599000D01*
X115219000Y-87364000D02*
X115219000Y-86540000D01*
X115219000Y-84460000D02*
X115219000Y-83636000D01*
X115179000Y-87326000D02*
X115179000Y-86540000D01*
X115179000Y-84460000D02*
X115179000Y-83674000D01*
X115139000Y-87285000D02*
X115139000Y-86540000D01*
X115139000Y-84460000D02*
X115139000Y-83715000D01*
X115099000Y-87243000D02*
X115099000Y-86540000D01*
X115099000Y-84460000D02*
X115099000Y-83757000D01*
X115059000Y-87199000D02*
X115059000Y-86540000D01*
X115059000Y-84460000D02*
X115059000Y-83801000D01*
X115019000Y-87153000D02*
X115019000Y-86540000D01*
X115019000Y-84460000D02*
X115019000Y-83847000D01*
X114979000Y-87105000D02*
X114979000Y-83895000D01*
X114939000Y-87054000D02*
X114939000Y-83946000D01*
X114899000Y-87000000D02*
X114899000Y-84000000D01*
X114859000Y-86943000D02*
X114859000Y-84057000D01*
X114819000Y-86883000D02*
X114819000Y-84117000D01*
X114779000Y-86819000D02*
X114779000Y-84181000D01*
X114739000Y-86751000D02*
X114739000Y-84249000D01*
X114699000Y-86678000D02*
X114699000Y-84322000D01*
X114659000Y-86598000D02*
X114659000Y-84402000D01*
X114619000Y-86511000D02*
X114619000Y-84489000D01*
X114579000Y-86415000D02*
X114579000Y-84585000D01*
X114539000Y-86305000D02*
X114539000Y-84695000D01*
X114499000Y-86177000D02*
X114499000Y-84823000D01*
X114459000Y-86018000D02*
X114459000Y-84982000D01*
X114419000Y-85784000D02*
X114419000Y-85216000D01*
X119640000Y-85500000D02*
G75*
G03*
X119640000Y-85500000I-2620000J0D01*
G01*
%TO.C,R32*%
X128000000Y-134120000D02*
X128770000Y-134120000D01*
X128770000Y-132750000D02*
X128770000Y-135490000D01*
X128770000Y-135490000D02*
X135310000Y-135490000D01*
X135310000Y-132750000D02*
X128770000Y-132750000D01*
X135310000Y-135490000D02*
X135310000Y-132750000D01*
X136080000Y-134120000D02*
X135310000Y-134120000D01*
%TO.C,R12*%
X193000000Y-44180000D02*
X193000000Y-43410000D01*
X191630000Y-43410000D02*
X194370000Y-43410000D01*
X194370000Y-43410000D02*
X194370000Y-36870000D01*
X191630000Y-36870000D02*
X191630000Y-43410000D01*
X194370000Y-36870000D02*
X191630000Y-36870000D01*
X193000000Y-36100000D02*
X193000000Y-36870000D01*
%TO.C,U5*%
X158600000Y-102310000D02*
X158600000Y-112590000D01*
X158600000Y-112590000D02*
X163900000Y-112590000D01*
X160250000Y-102310000D02*
X158600000Y-102310000D01*
X163900000Y-102310000D02*
X162250000Y-102310000D01*
X163900000Y-112590000D02*
X163900000Y-102310000D01*
X160250000Y-102310000D02*
G75*
G03*
X162250000Y-102310000I1000000J0D01*
G01*
%TO.C,U9*%
X116290000Y-118425000D02*
X116290000Y-118155000D01*
X116290000Y-118155000D02*
X119120000Y-118155000D01*
X116290000Y-111795000D02*
X117390000Y-111795000D01*
X116290000Y-111525000D02*
X116290000Y-111795000D01*
X109870000Y-118425000D02*
X116290000Y-118425000D01*
X109870000Y-111525000D02*
X116290000Y-111525000D01*
%TO.C,C11*%
X155020000Y-41510000D02*
X155020000Y-41195000D01*
X155020000Y-41510000D02*
X149780000Y-41510000D01*
X155020000Y-39085000D02*
X155020000Y-38770000D01*
X155020000Y-38770000D02*
X149780000Y-38770000D01*
X149780000Y-41510000D02*
X149780000Y-41195000D01*
X149780000Y-39085000D02*
X149780000Y-38770000D01*
%TO.C,C1*%
X90770241Y-102339000D02*
X90140241Y-102339000D01*
X90455241Y-102654000D02*
X90455241Y-102024000D01*
X87270000Y-103730000D02*
X87270000Y-97270000D01*
X87230000Y-103730000D02*
X87230000Y-97270000D01*
X87190000Y-103730000D02*
X87190000Y-97270000D01*
X87150000Y-103728000D02*
X87150000Y-97272000D01*
X87110000Y-103727000D02*
X87110000Y-97273000D01*
X87070000Y-103724000D02*
X87070000Y-97276000D01*
X87030000Y-103722000D02*
X87030000Y-101540000D01*
X87030000Y-99460000D02*
X87030000Y-97278000D01*
X86990000Y-103718000D02*
X86990000Y-101540000D01*
X86990000Y-99460000D02*
X86990000Y-97282000D01*
X86950000Y-103715000D02*
X86950000Y-101540000D01*
X86950000Y-99460000D02*
X86950000Y-97285000D01*
X86910000Y-103711000D02*
X86910000Y-101540000D01*
X86910000Y-99460000D02*
X86910000Y-97289000D01*
X86870000Y-103706000D02*
X86870000Y-101540000D01*
X86870000Y-99460000D02*
X86870000Y-97294000D01*
X86830000Y-103701000D02*
X86830000Y-101540000D01*
X86830000Y-99460000D02*
X86830000Y-97299000D01*
X86790000Y-103695000D02*
X86790000Y-101540000D01*
X86790000Y-99460000D02*
X86790000Y-97305000D01*
X86750000Y-103689000D02*
X86750000Y-101540000D01*
X86750000Y-99460000D02*
X86750000Y-97311000D01*
X86710000Y-103682000D02*
X86710000Y-101540000D01*
X86710000Y-99460000D02*
X86710000Y-97318000D01*
X86670000Y-103675000D02*
X86670000Y-101540000D01*
X86670000Y-99460000D02*
X86670000Y-97325000D01*
X86630000Y-103667000D02*
X86630000Y-101540000D01*
X86630000Y-99460000D02*
X86630000Y-97333000D01*
X86590000Y-103659000D02*
X86590000Y-101540000D01*
X86590000Y-99460000D02*
X86590000Y-97341000D01*
X86549000Y-103650000D02*
X86549000Y-101540000D01*
X86549000Y-99460000D02*
X86549000Y-97350000D01*
X86509000Y-103641000D02*
X86509000Y-101540000D01*
X86509000Y-99460000D02*
X86509000Y-97359000D01*
X86469000Y-103631000D02*
X86469000Y-101540000D01*
X86469000Y-99460000D02*
X86469000Y-97369000D01*
X86429000Y-103621000D02*
X86429000Y-101540000D01*
X86429000Y-99460000D02*
X86429000Y-97379000D01*
X86389000Y-103610000D02*
X86389000Y-101540000D01*
X86389000Y-99460000D02*
X86389000Y-97390000D01*
X86349000Y-103598000D02*
X86349000Y-101540000D01*
X86349000Y-99460000D02*
X86349000Y-97402000D01*
X86309000Y-103586000D02*
X86309000Y-101540000D01*
X86309000Y-99460000D02*
X86309000Y-97414000D01*
X86269000Y-103574000D02*
X86269000Y-101540000D01*
X86269000Y-99460000D02*
X86269000Y-97426000D01*
X86229000Y-103561000D02*
X86229000Y-101540000D01*
X86229000Y-99460000D02*
X86229000Y-97439000D01*
X86189000Y-103547000D02*
X86189000Y-101540000D01*
X86189000Y-99460000D02*
X86189000Y-97453000D01*
X86149000Y-103533000D02*
X86149000Y-101540000D01*
X86149000Y-99460000D02*
X86149000Y-97467000D01*
X86109000Y-103518000D02*
X86109000Y-101540000D01*
X86109000Y-99460000D02*
X86109000Y-97482000D01*
X86069000Y-103502000D02*
X86069000Y-101540000D01*
X86069000Y-99460000D02*
X86069000Y-97498000D01*
X86029000Y-103486000D02*
X86029000Y-101540000D01*
X86029000Y-99460000D02*
X86029000Y-97514000D01*
X85989000Y-103470000D02*
X85989000Y-101540000D01*
X85989000Y-99460000D02*
X85989000Y-97530000D01*
X85949000Y-103452000D02*
X85949000Y-101540000D01*
X85949000Y-99460000D02*
X85949000Y-97548000D01*
X85909000Y-103434000D02*
X85909000Y-101540000D01*
X85909000Y-99460000D02*
X85909000Y-97566000D01*
X85869000Y-103416000D02*
X85869000Y-101540000D01*
X85869000Y-99460000D02*
X85869000Y-97584000D01*
X85829000Y-103396000D02*
X85829000Y-101540000D01*
X85829000Y-99460000D02*
X85829000Y-97604000D01*
X85789000Y-103376000D02*
X85789000Y-101540000D01*
X85789000Y-99460000D02*
X85789000Y-97624000D01*
X85749000Y-103356000D02*
X85749000Y-101540000D01*
X85749000Y-99460000D02*
X85749000Y-97644000D01*
X85709000Y-103334000D02*
X85709000Y-101540000D01*
X85709000Y-99460000D02*
X85709000Y-97666000D01*
X85669000Y-103312000D02*
X85669000Y-101540000D01*
X85669000Y-99460000D02*
X85669000Y-97688000D01*
X85629000Y-103290000D02*
X85629000Y-101540000D01*
X85629000Y-99460000D02*
X85629000Y-97710000D01*
X85589000Y-103266000D02*
X85589000Y-101540000D01*
X85589000Y-99460000D02*
X85589000Y-97734000D01*
X85549000Y-103242000D02*
X85549000Y-101540000D01*
X85549000Y-99460000D02*
X85549000Y-97758000D01*
X85509000Y-103216000D02*
X85509000Y-101540000D01*
X85509000Y-99460000D02*
X85509000Y-97784000D01*
X85469000Y-103190000D02*
X85469000Y-101540000D01*
X85469000Y-99460000D02*
X85469000Y-97810000D01*
X85429000Y-103164000D02*
X85429000Y-101540000D01*
X85429000Y-99460000D02*
X85429000Y-97836000D01*
X85389000Y-103136000D02*
X85389000Y-101540000D01*
X85389000Y-99460000D02*
X85389000Y-97864000D01*
X85349000Y-103107000D02*
X85349000Y-101540000D01*
X85349000Y-99460000D02*
X85349000Y-97893000D01*
X85309000Y-103078000D02*
X85309000Y-101540000D01*
X85309000Y-99460000D02*
X85309000Y-97922000D01*
X85269000Y-103048000D02*
X85269000Y-101540000D01*
X85269000Y-99460000D02*
X85269000Y-97952000D01*
X85229000Y-103016000D02*
X85229000Y-101540000D01*
X85229000Y-99460000D02*
X85229000Y-97984000D01*
X85189000Y-102984000D02*
X85189000Y-101540000D01*
X85189000Y-99460000D02*
X85189000Y-98016000D01*
X85149000Y-102950000D02*
X85149000Y-101540000D01*
X85149000Y-99460000D02*
X85149000Y-98050000D01*
X85109000Y-102916000D02*
X85109000Y-101540000D01*
X85109000Y-99460000D02*
X85109000Y-98084000D01*
X85069000Y-102880000D02*
X85069000Y-101540000D01*
X85069000Y-99460000D02*
X85069000Y-98120000D01*
X85029000Y-102843000D02*
X85029000Y-101540000D01*
X85029000Y-99460000D02*
X85029000Y-98157000D01*
X84989000Y-102805000D02*
X84989000Y-101540000D01*
X84989000Y-99460000D02*
X84989000Y-98195000D01*
X84949000Y-102765000D02*
X84949000Y-98235000D01*
X84909000Y-102724000D02*
X84909000Y-98276000D01*
X84869000Y-102682000D02*
X84869000Y-98318000D01*
X84829000Y-102637000D02*
X84829000Y-98363000D01*
X84789000Y-102592000D02*
X84789000Y-98408000D01*
X84749000Y-102544000D02*
X84749000Y-98456000D01*
X84709000Y-102495000D02*
X84709000Y-98505000D01*
X84669000Y-102444000D02*
X84669000Y-98556000D01*
X84629000Y-102390000D02*
X84629000Y-98610000D01*
X84589000Y-102334000D02*
X84589000Y-98666000D01*
X84549000Y-102276000D02*
X84549000Y-98724000D01*
X84509000Y-102214000D02*
X84509000Y-98786000D01*
X84469000Y-102150000D02*
X84469000Y-98850000D01*
X84429000Y-102081000D02*
X84429000Y-98919000D01*
X84389000Y-102009000D02*
X84389000Y-98991000D01*
X84349000Y-101932000D02*
X84349000Y-99068000D01*
X84309000Y-101850000D02*
X84309000Y-99150000D01*
X84269000Y-101762000D02*
X84269000Y-99238000D01*
X84229000Y-101665000D02*
X84229000Y-99335000D01*
X84189000Y-101559000D02*
X84189000Y-99441000D01*
X84149000Y-101440000D02*
X84149000Y-99560000D01*
X84109000Y-101302000D02*
X84109000Y-99698000D01*
X84069000Y-101133000D02*
X84069000Y-99867000D01*
X84029000Y-100902000D02*
X84029000Y-100098000D01*
X90540000Y-100500000D02*
G75*
G03*
X90540000Y-100500000I-3270000J0D01*
G01*
%TO.C,J1*%
X117015000Y-148220000D02*
X147985000Y-148220000D01*
X117015000Y-162760000D02*
X117015000Y-148220000D01*
X137790000Y-147325662D02*
X138290000Y-147325662D01*
X138040000Y-147758675D02*
X137790000Y-147325662D01*
X138290000Y-147325662D02*
X138040000Y-147758675D01*
X147985000Y-148220000D02*
X147985000Y-162760000D01*
%TO.C,C4*%
X97269759Y-98661000D02*
X97899759Y-98661000D01*
X97584759Y-98346000D02*
X97584759Y-98976000D01*
X100770000Y-97270000D02*
X100770000Y-103730000D01*
X100810000Y-97270000D02*
X100810000Y-103730000D01*
X100850000Y-97270000D02*
X100850000Y-103730000D01*
X100890000Y-97272000D02*
X100890000Y-103728000D01*
X100930000Y-97273000D02*
X100930000Y-103727000D01*
X100970000Y-97276000D02*
X100970000Y-103724000D01*
X101010000Y-97278000D02*
X101010000Y-99460000D01*
X101010000Y-101540000D02*
X101010000Y-103722000D01*
X101050000Y-97282000D02*
X101050000Y-99460000D01*
X101050000Y-101540000D02*
X101050000Y-103718000D01*
X101090000Y-97285000D02*
X101090000Y-99460000D01*
X101090000Y-101540000D02*
X101090000Y-103715000D01*
X101130000Y-97289000D02*
X101130000Y-99460000D01*
X101130000Y-101540000D02*
X101130000Y-103711000D01*
X101170000Y-97294000D02*
X101170000Y-99460000D01*
X101170000Y-101540000D02*
X101170000Y-103706000D01*
X101210000Y-97299000D02*
X101210000Y-99460000D01*
X101210000Y-101540000D02*
X101210000Y-103701000D01*
X101250000Y-97305000D02*
X101250000Y-99460000D01*
X101250000Y-101540000D02*
X101250000Y-103695000D01*
X101290000Y-97311000D02*
X101290000Y-99460000D01*
X101290000Y-101540000D02*
X101290000Y-103689000D01*
X101330000Y-97318000D02*
X101330000Y-99460000D01*
X101330000Y-101540000D02*
X101330000Y-103682000D01*
X101370000Y-97325000D02*
X101370000Y-99460000D01*
X101370000Y-101540000D02*
X101370000Y-103675000D01*
X101410000Y-97333000D02*
X101410000Y-99460000D01*
X101410000Y-101540000D02*
X101410000Y-103667000D01*
X101450000Y-97341000D02*
X101450000Y-99460000D01*
X101450000Y-101540000D02*
X101450000Y-103659000D01*
X101491000Y-97350000D02*
X101491000Y-99460000D01*
X101491000Y-101540000D02*
X101491000Y-103650000D01*
X101531000Y-97359000D02*
X101531000Y-99460000D01*
X101531000Y-101540000D02*
X101531000Y-103641000D01*
X101571000Y-97369000D02*
X101571000Y-99460000D01*
X101571000Y-101540000D02*
X101571000Y-103631000D01*
X101611000Y-97379000D02*
X101611000Y-99460000D01*
X101611000Y-101540000D02*
X101611000Y-103621000D01*
X101651000Y-97390000D02*
X101651000Y-99460000D01*
X101651000Y-101540000D02*
X101651000Y-103610000D01*
X101691000Y-97402000D02*
X101691000Y-99460000D01*
X101691000Y-101540000D02*
X101691000Y-103598000D01*
X101731000Y-97414000D02*
X101731000Y-99460000D01*
X101731000Y-101540000D02*
X101731000Y-103586000D01*
X101771000Y-97426000D02*
X101771000Y-99460000D01*
X101771000Y-101540000D02*
X101771000Y-103574000D01*
X101811000Y-97439000D02*
X101811000Y-99460000D01*
X101811000Y-101540000D02*
X101811000Y-103561000D01*
X101851000Y-97453000D02*
X101851000Y-99460000D01*
X101851000Y-101540000D02*
X101851000Y-103547000D01*
X101891000Y-97467000D02*
X101891000Y-99460000D01*
X101891000Y-101540000D02*
X101891000Y-103533000D01*
X101931000Y-97482000D02*
X101931000Y-99460000D01*
X101931000Y-101540000D02*
X101931000Y-103518000D01*
X101971000Y-97498000D02*
X101971000Y-99460000D01*
X101971000Y-101540000D02*
X101971000Y-103502000D01*
X102011000Y-97514000D02*
X102011000Y-99460000D01*
X102011000Y-101540000D02*
X102011000Y-103486000D01*
X102051000Y-97530000D02*
X102051000Y-99460000D01*
X102051000Y-101540000D02*
X102051000Y-103470000D01*
X102091000Y-97548000D02*
X102091000Y-99460000D01*
X102091000Y-101540000D02*
X102091000Y-103452000D01*
X102131000Y-97566000D02*
X102131000Y-99460000D01*
X102131000Y-101540000D02*
X102131000Y-103434000D01*
X102171000Y-97584000D02*
X102171000Y-99460000D01*
X102171000Y-101540000D02*
X102171000Y-103416000D01*
X102211000Y-97604000D02*
X102211000Y-99460000D01*
X102211000Y-101540000D02*
X102211000Y-103396000D01*
X102251000Y-97624000D02*
X102251000Y-99460000D01*
X102251000Y-101540000D02*
X102251000Y-103376000D01*
X102291000Y-97644000D02*
X102291000Y-99460000D01*
X102291000Y-101540000D02*
X102291000Y-103356000D01*
X102331000Y-97666000D02*
X102331000Y-99460000D01*
X102331000Y-101540000D02*
X102331000Y-103334000D01*
X102371000Y-97688000D02*
X102371000Y-99460000D01*
X102371000Y-101540000D02*
X102371000Y-103312000D01*
X102411000Y-97710000D02*
X102411000Y-99460000D01*
X102411000Y-101540000D02*
X102411000Y-103290000D01*
X102451000Y-97734000D02*
X102451000Y-99460000D01*
X102451000Y-101540000D02*
X102451000Y-103266000D01*
X102491000Y-97758000D02*
X102491000Y-99460000D01*
X102491000Y-101540000D02*
X102491000Y-103242000D01*
X102531000Y-97784000D02*
X102531000Y-99460000D01*
X102531000Y-101540000D02*
X102531000Y-103216000D01*
X102571000Y-97810000D02*
X102571000Y-99460000D01*
X102571000Y-101540000D02*
X102571000Y-103190000D01*
X102611000Y-97836000D02*
X102611000Y-99460000D01*
X102611000Y-101540000D02*
X102611000Y-103164000D01*
X102651000Y-97864000D02*
X102651000Y-99460000D01*
X102651000Y-101540000D02*
X102651000Y-103136000D01*
X102691000Y-97893000D02*
X102691000Y-99460000D01*
X102691000Y-101540000D02*
X102691000Y-103107000D01*
X102731000Y-97922000D02*
X102731000Y-99460000D01*
X102731000Y-101540000D02*
X102731000Y-103078000D01*
X102771000Y-97952000D02*
X102771000Y-99460000D01*
X102771000Y-101540000D02*
X102771000Y-103048000D01*
X102811000Y-97984000D02*
X102811000Y-99460000D01*
X102811000Y-101540000D02*
X102811000Y-103016000D01*
X102851000Y-98016000D02*
X102851000Y-99460000D01*
X102851000Y-101540000D02*
X102851000Y-102984000D01*
X102891000Y-98050000D02*
X102891000Y-99460000D01*
X102891000Y-101540000D02*
X102891000Y-102950000D01*
X102931000Y-98084000D02*
X102931000Y-99460000D01*
X102931000Y-101540000D02*
X102931000Y-102916000D01*
X102971000Y-98120000D02*
X102971000Y-99460000D01*
X102971000Y-101540000D02*
X102971000Y-102880000D01*
X103011000Y-98157000D02*
X103011000Y-99460000D01*
X103011000Y-101540000D02*
X103011000Y-102843000D01*
X103051000Y-98195000D02*
X103051000Y-99460000D01*
X103051000Y-101540000D02*
X103051000Y-102805000D01*
X103091000Y-98235000D02*
X103091000Y-102765000D01*
X103131000Y-98276000D02*
X103131000Y-102724000D01*
X103171000Y-98318000D02*
X103171000Y-102682000D01*
X103211000Y-98363000D02*
X103211000Y-102637000D01*
X103251000Y-98408000D02*
X103251000Y-102592000D01*
X103291000Y-98456000D02*
X103291000Y-102544000D01*
X103331000Y-98505000D02*
X103331000Y-102495000D01*
X103371000Y-98556000D02*
X103371000Y-102444000D01*
X103411000Y-98610000D02*
X103411000Y-102390000D01*
X103451000Y-98666000D02*
X103451000Y-102334000D01*
X103491000Y-98724000D02*
X103491000Y-102276000D01*
X103531000Y-98786000D02*
X103531000Y-102214000D01*
X103571000Y-98850000D02*
X103571000Y-102150000D01*
X103611000Y-98919000D02*
X103611000Y-102081000D01*
X103651000Y-98991000D02*
X103651000Y-102009000D01*
X103691000Y-99068000D02*
X103691000Y-101932000D01*
X103731000Y-99150000D02*
X103731000Y-101850000D01*
X103771000Y-99238000D02*
X103771000Y-101762000D01*
X103811000Y-99335000D02*
X103811000Y-101665000D01*
X103851000Y-99441000D02*
X103851000Y-101559000D01*
X103891000Y-99560000D02*
X103891000Y-101440000D01*
X103931000Y-99698000D02*
X103931000Y-101302000D01*
X103971000Y-99867000D02*
X103971000Y-101133000D01*
X104011000Y-100098000D02*
X104011000Y-100902000D01*
X104040000Y-100500000D02*
G75*
G03*
X104040000Y-100500000I-3270000J0D01*
G01*
%TO.C,TP6*%
X164020000Y-68080000D02*
G75*
G03*
X164020000Y-68080000I-1500000J0D01*
G01*
%TO.C,R23*%
X182840000Y-121420000D02*
X182070000Y-121420000D01*
X182070000Y-122790000D02*
X182070000Y-120050000D01*
X182070000Y-120050000D02*
X175530000Y-120050000D01*
X175530000Y-122790000D02*
X182070000Y-122790000D01*
X175530000Y-120050000D02*
X175530000Y-122790000D01*
X174760000Y-121420000D02*
X175530000Y-121420000D01*
%TO.C,U1*%
X158600000Y-46430000D02*
X158600000Y-56710000D01*
X158600000Y-56710000D02*
X163900000Y-56710000D01*
X160250000Y-46430000D02*
X158600000Y-46430000D01*
X163900000Y-46430000D02*
X162250000Y-46430000D01*
X163900000Y-56710000D02*
X163900000Y-46430000D01*
X160250000Y-46430000D02*
G75*
G03*
X162250000Y-46430000I1000000J0D01*
G01*
%TO.C,R27*%
X110900000Y-33260000D02*
X108250000Y-33260000D01*
X108250000Y-35630000D02*
X108250000Y-30890000D01*
X108250000Y-30890000D02*
X96110000Y-30890000D01*
X96110000Y-35630000D02*
X108250000Y-35630000D01*
X96110000Y-30890000D02*
X96110000Y-35630000D01*
X93460000Y-33260000D02*
X96110000Y-33260000D01*
%TO.C,R26*%
X110900000Y-40880000D02*
X108250000Y-40880000D01*
X108250000Y-43250000D02*
X108250000Y-38510000D01*
X108250000Y-38510000D02*
X96110000Y-38510000D01*
X96110000Y-43250000D02*
X108250000Y-43250000D01*
X96110000Y-38510000D02*
X96110000Y-43250000D01*
X93460000Y-40880000D02*
X96110000Y-40880000D01*
%TO.C,TP3*%
X119520000Y-36120000D02*
G75*
G03*
X119520000Y-36120000I-1500000J0D01*
G01*
%TO.C,R16*%
X193000000Y-72120000D02*
X193000000Y-71350000D01*
X191630000Y-71350000D02*
X194370000Y-71350000D01*
X194370000Y-71350000D02*
X194370000Y-64810000D01*
X191630000Y-64810000D02*
X191630000Y-71350000D01*
X194370000Y-64810000D02*
X191630000Y-64810000D01*
X193000000Y-64040000D02*
X193000000Y-64810000D01*
%TO.C,R15*%
X182840000Y-65540000D02*
X182070000Y-65540000D01*
X182070000Y-66910000D02*
X182070000Y-64170000D01*
X182070000Y-64170000D02*
X175530000Y-64170000D01*
X175530000Y-66910000D02*
X182070000Y-66910000D01*
X175530000Y-64170000D02*
X175530000Y-66910000D01*
X174760000Y-65540000D02*
X175530000Y-65540000D01*
%TO.C,C2*%
X90770241Y-79659000D02*
X90140241Y-79659000D01*
X90455241Y-79974000D02*
X90455241Y-79344000D01*
X87270000Y-81050000D02*
X87270000Y-74590000D01*
X87230000Y-81050000D02*
X87230000Y-74590000D01*
X87190000Y-81050000D02*
X87190000Y-74590000D01*
X87150000Y-81048000D02*
X87150000Y-74592000D01*
X87110000Y-81047000D02*
X87110000Y-74593000D01*
X87070000Y-81044000D02*
X87070000Y-74596000D01*
X87030000Y-81042000D02*
X87030000Y-78860000D01*
X87030000Y-76780000D02*
X87030000Y-74598000D01*
X86990000Y-81038000D02*
X86990000Y-78860000D01*
X86990000Y-76780000D02*
X86990000Y-74602000D01*
X86950000Y-81035000D02*
X86950000Y-78860000D01*
X86950000Y-76780000D02*
X86950000Y-74605000D01*
X86910000Y-81031000D02*
X86910000Y-78860000D01*
X86910000Y-76780000D02*
X86910000Y-74609000D01*
X86870000Y-81026000D02*
X86870000Y-78860000D01*
X86870000Y-76780000D02*
X86870000Y-74614000D01*
X86830000Y-81021000D02*
X86830000Y-78860000D01*
X86830000Y-76780000D02*
X86830000Y-74619000D01*
X86790000Y-81015000D02*
X86790000Y-78860000D01*
X86790000Y-76780000D02*
X86790000Y-74625000D01*
X86750000Y-81009000D02*
X86750000Y-78860000D01*
X86750000Y-76780000D02*
X86750000Y-74631000D01*
X86710000Y-81002000D02*
X86710000Y-78860000D01*
X86710000Y-76780000D02*
X86710000Y-74638000D01*
X86670000Y-80995000D02*
X86670000Y-78860000D01*
X86670000Y-76780000D02*
X86670000Y-74645000D01*
X86630000Y-80987000D02*
X86630000Y-78860000D01*
X86630000Y-76780000D02*
X86630000Y-74653000D01*
X86590000Y-80979000D02*
X86590000Y-78860000D01*
X86590000Y-76780000D02*
X86590000Y-74661000D01*
X86549000Y-80970000D02*
X86549000Y-78860000D01*
X86549000Y-76780000D02*
X86549000Y-74670000D01*
X86509000Y-80961000D02*
X86509000Y-78860000D01*
X86509000Y-76780000D02*
X86509000Y-74679000D01*
X86469000Y-80951000D02*
X86469000Y-78860000D01*
X86469000Y-76780000D02*
X86469000Y-74689000D01*
X86429000Y-80941000D02*
X86429000Y-78860000D01*
X86429000Y-76780000D02*
X86429000Y-74699000D01*
X86389000Y-80930000D02*
X86389000Y-78860000D01*
X86389000Y-76780000D02*
X86389000Y-74710000D01*
X86349000Y-80918000D02*
X86349000Y-78860000D01*
X86349000Y-76780000D02*
X86349000Y-74722000D01*
X86309000Y-80906000D02*
X86309000Y-78860000D01*
X86309000Y-76780000D02*
X86309000Y-74734000D01*
X86269000Y-80894000D02*
X86269000Y-78860000D01*
X86269000Y-76780000D02*
X86269000Y-74746000D01*
X86229000Y-80881000D02*
X86229000Y-78860000D01*
X86229000Y-76780000D02*
X86229000Y-74759000D01*
X86189000Y-80867000D02*
X86189000Y-78860000D01*
X86189000Y-76780000D02*
X86189000Y-74773000D01*
X86149000Y-80853000D02*
X86149000Y-78860000D01*
X86149000Y-76780000D02*
X86149000Y-74787000D01*
X86109000Y-80838000D02*
X86109000Y-78860000D01*
X86109000Y-76780000D02*
X86109000Y-74802000D01*
X86069000Y-80822000D02*
X86069000Y-78860000D01*
X86069000Y-76780000D02*
X86069000Y-74818000D01*
X86029000Y-80806000D02*
X86029000Y-78860000D01*
X86029000Y-76780000D02*
X86029000Y-74834000D01*
X85989000Y-80790000D02*
X85989000Y-78860000D01*
X85989000Y-76780000D02*
X85989000Y-74850000D01*
X85949000Y-80772000D02*
X85949000Y-78860000D01*
X85949000Y-76780000D02*
X85949000Y-74868000D01*
X85909000Y-80754000D02*
X85909000Y-78860000D01*
X85909000Y-76780000D02*
X85909000Y-74886000D01*
X85869000Y-80736000D02*
X85869000Y-78860000D01*
X85869000Y-76780000D02*
X85869000Y-74904000D01*
X85829000Y-80716000D02*
X85829000Y-78860000D01*
X85829000Y-76780000D02*
X85829000Y-74924000D01*
X85789000Y-80696000D02*
X85789000Y-78860000D01*
X85789000Y-76780000D02*
X85789000Y-74944000D01*
X85749000Y-80676000D02*
X85749000Y-78860000D01*
X85749000Y-76780000D02*
X85749000Y-74964000D01*
X85709000Y-80654000D02*
X85709000Y-78860000D01*
X85709000Y-76780000D02*
X85709000Y-74986000D01*
X85669000Y-80632000D02*
X85669000Y-78860000D01*
X85669000Y-76780000D02*
X85669000Y-75008000D01*
X85629000Y-80610000D02*
X85629000Y-78860000D01*
X85629000Y-76780000D02*
X85629000Y-75030000D01*
X85589000Y-80586000D02*
X85589000Y-78860000D01*
X85589000Y-76780000D02*
X85589000Y-75054000D01*
X85549000Y-80562000D02*
X85549000Y-78860000D01*
X85549000Y-76780000D02*
X85549000Y-75078000D01*
X85509000Y-80536000D02*
X85509000Y-78860000D01*
X85509000Y-76780000D02*
X85509000Y-75104000D01*
X85469000Y-80510000D02*
X85469000Y-78860000D01*
X85469000Y-76780000D02*
X85469000Y-75130000D01*
X85429000Y-80484000D02*
X85429000Y-78860000D01*
X85429000Y-76780000D02*
X85429000Y-75156000D01*
X85389000Y-80456000D02*
X85389000Y-78860000D01*
X85389000Y-76780000D02*
X85389000Y-75184000D01*
X85349000Y-80427000D02*
X85349000Y-78860000D01*
X85349000Y-76780000D02*
X85349000Y-75213000D01*
X85309000Y-80398000D02*
X85309000Y-78860000D01*
X85309000Y-76780000D02*
X85309000Y-75242000D01*
X85269000Y-80368000D02*
X85269000Y-78860000D01*
X85269000Y-76780000D02*
X85269000Y-75272000D01*
X85229000Y-80336000D02*
X85229000Y-78860000D01*
X85229000Y-76780000D02*
X85229000Y-75304000D01*
X85189000Y-80304000D02*
X85189000Y-78860000D01*
X85189000Y-76780000D02*
X85189000Y-75336000D01*
X85149000Y-80270000D02*
X85149000Y-78860000D01*
X85149000Y-76780000D02*
X85149000Y-75370000D01*
X85109000Y-80236000D02*
X85109000Y-78860000D01*
X85109000Y-76780000D02*
X85109000Y-75404000D01*
X85069000Y-80200000D02*
X85069000Y-78860000D01*
X85069000Y-76780000D02*
X85069000Y-75440000D01*
X85029000Y-80163000D02*
X85029000Y-78860000D01*
X85029000Y-76780000D02*
X85029000Y-75477000D01*
X84989000Y-80125000D02*
X84989000Y-78860000D01*
X84989000Y-76780000D02*
X84989000Y-75515000D01*
X84949000Y-80085000D02*
X84949000Y-75555000D01*
X84909000Y-80044000D02*
X84909000Y-75596000D01*
X84869000Y-80002000D02*
X84869000Y-75638000D01*
X84829000Y-79957000D02*
X84829000Y-75683000D01*
X84789000Y-79912000D02*
X84789000Y-75728000D01*
X84749000Y-79864000D02*
X84749000Y-75776000D01*
X84709000Y-79815000D02*
X84709000Y-75825000D01*
X84669000Y-79764000D02*
X84669000Y-75876000D01*
X84629000Y-79710000D02*
X84629000Y-75930000D01*
X84589000Y-79654000D02*
X84589000Y-75986000D01*
X84549000Y-79596000D02*
X84549000Y-76044000D01*
X84509000Y-79534000D02*
X84509000Y-76106000D01*
X84469000Y-79470000D02*
X84469000Y-76170000D01*
X84429000Y-79401000D02*
X84429000Y-76239000D01*
X84389000Y-79329000D02*
X84389000Y-76311000D01*
X84349000Y-79252000D02*
X84349000Y-76388000D01*
X84309000Y-79170000D02*
X84309000Y-76470000D01*
X84269000Y-79082000D02*
X84269000Y-76558000D01*
X84229000Y-78985000D02*
X84229000Y-76655000D01*
X84189000Y-78879000D02*
X84189000Y-76761000D01*
X84149000Y-78760000D02*
X84149000Y-76880000D01*
X84109000Y-78622000D02*
X84109000Y-77018000D01*
X84069000Y-78453000D02*
X84069000Y-77187000D01*
X84029000Y-78222000D02*
X84029000Y-77418000D01*
X90540000Y-77820000D02*
G75*
G03*
X90540000Y-77820000I-3270000J0D01*
G01*
D11*
%TO.C,D3*%
X87535000Y-33260000D02*
G75*
G03*
X87535000Y-33260000I-50000J0D01*
G01*
D12*
%TO.C,SW1*%
X87320000Y-113020000D02*
X88320000Y-113020000D01*
X87320000Y-114020000D02*
X87320000Y-113020000D01*
X87670000Y-113370000D02*
X87670000Y-124800000D01*
X87670000Y-113370000D02*
X100370000Y-113370000D01*
X87670000Y-124800000D02*
X100370000Y-124800000D01*
X100370000Y-113370000D02*
X100370000Y-124800000D01*
%TO.C,L2*%
X106490000Y-89320000D02*
G75*
G03*
X106490000Y-89320000I-4470000J0D01*
G01*
%TO.C,R4*%
X153400000Y-63000000D02*
X154170000Y-63000000D01*
X154170000Y-61630000D02*
X154170000Y-64370000D01*
X154170000Y-64370000D02*
X160710000Y-64370000D01*
X160710000Y-61630000D02*
X154170000Y-61630000D01*
X160710000Y-64370000D02*
X160710000Y-61630000D01*
X161480000Y-63000000D02*
X160710000Y-63000000D01*
%TO.C,TP5*%
X164020000Y-40140000D02*
G75*
G03*
X164020000Y-40140000I-1500000J0D01*
G01*
%TO.C,C5*%
X97269759Y-75981000D02*
X97899759Y-75981000D01*
X97584759Y-75666000D02*
X97584759Y-76296000D01*
X100770000Y-74590000D02*
X100770000Y-81050000D01*
X100810000Y-74590000D02*
X100810000Y-81050000D01*
X100850000Y-74590000D02*
X100850000Y-81050000D01*
X100890000Y-74592000D02*
X100890000Y-81048000D01*
X100930000Y-74593000D02*
X100930000Y-81047000D01*
X100970000Y-74596000D02*
X100970000Y-81044000D01*
X101010000Y-74598000D02*
X101010000Y-76780000D01*
X101010000Y-78860000D02*
X101010000Y-81042000D01*
X101050000Y-74602000D02*
X101050000Y-76780000D01*
X101050000Y-78860000D02*
X101050000Y-81038000D01*
X101090000Y-74605000D02*
X101090000Y-76780000D01*
X101090000Y-78860000D02*
X101090000Y-81035000D01*
X101130000Y-74609000D02*
X101130000Y-76780000D01*
X101130000Y-78860000D02*
X101130000Y-81031000D01*
X101170000Y-74614000D02*
X101170000Y-76780000D01*
X101170000Y-78860000D02*
X101170000Y-81026000D01*
X101210000Y-74619000D02*
X101210000Y-76780000D01*
X101210000Y-78860000D02*
X101210000Y-81021000D01*
X101250000Y-74625000D02*
X101250000Y-76780000D01*
X101250000Y-78860000D02*
X101250000Y-81015000D01*
X101290000Y-74631000D02*
X101290000Y-76780000D01*
X101290000Y-78860000D02*
X101290000Y-81009000D01*
X101330000Y-74638000D02*
X101330000Y-76780000D01*
X101330000Y-78860000D02*
X101330000Y-81002000D01*
X101370000Y-74645000D02*
X101370000Y-76780000D01*
X101370000Y-78860000D02*
X101370000Y-80995000D01*
X101410000Y-74653000D02*
X101410000Y-76780000D01*
X101410000Y-78860000D02*
X101410000Y-80987000D01*
X101450000Y-74661000D02*
X101450000Y-76780000D01*
X101450000Y-78860000D02*
X101450000Y-80979000D01*
X101491000Y-74670000D02*
X101491000Y-76780000D01*
X101491000Y-78860000D02*
X101491000Y-80970000D01*
X101531000Y-74679000D02*
X101531000Y-76780000D01*
X101531000Y-78860000D02*
X101531000Y-80961000D01*
X101571000Y-74689000D02*
X101571000Y-76780000D01*
X101571000Y-78860000D02*
X101571000Y-80951000D01*
X101611000Y-74699000D02*
X101611000Y-76780000D01*
X101611000Y-78860000D02*
X101611000Y-80941000D01*
X101651000Y-74710000D02*
X101651000Y-76780000D01*
X101651000Y-78860000D02*
X101651000Y-80930000D01*
X101691000Y-74722000D02*
X101691000Y-76780000D01*
X101691000Y-78860000D02*
X101691000Y-80918000D01*
X101731000Y-74734000D02*
X101731000Y-76780000D01*
X101731000Y-78860000D02*
X101731000Y-80906000D01*
X101771000Y-74746000D02*
X101771000Y-76780000D01*
X101771000Y-78860000D02*
X101771000Y-80894000D01*
X101811000Y-74759000D02*
X101811000Y-76780000D01*
X101811000Y-78860000D02*
X101811000Y-80881000D01*
X101851000Y-74773000D02*
X101851000Y-76780000D01*
X101851000Y-78860000D02*
X101851000Y-80867000D01*
X101891000Y-74787000D02*
X101891000Y-76780000D01*
X101891000Y-78860000D02*
X101891000Y-80853000D01*
X101931000Y-74802000D02*
X101931000Y-76780000D01*
X101931000Y-78860000D02*
X101931000Y-80838000D01*
X101971000Y-74818000D02*
X101971000Y-76780000D01*
X101971000Y-78860000D02*
X101971000Y-80822000D01*
X102011000Y-74834000D02*
X102011000Y-76780000D01*
X102011000Y-78860000D02*
X102011000Y-80806000D01*
X102051000Y-74850000D02*
X102051000Y-76780000D01*
X102051000Y-78860000D02*
X102051000Y-80790000D01*
X102091000Y-74868000D02*
X102091000Y-76780000D01*
X102091000Y-78860000D02*
X102091000Y-80772000D01*
X102131000Y-74886000D02*
X102131000Y-76780000D01*
X102131000Y-78860000D02*
X102131000Y-80754000D01*
X102171000Y-74904000D02*
X102171000Y-76780000D01*
X102171000Y-78860000D02*
X102171000Y-80736000D01*
X102211000Y-74924000D02*
X102211000Y-76780000D01*
X102211000Y-78860000D02*
X102211000Y-80716000D01*
X102251000Y-74944000D02*
X102251000Y-76780000D01*
X102251000Y-78860000D02*
X102251000Y-80696000D01*
X102291000Y-74964000D02*
X102291000Y-76780000D01*
X102291000Y-78860000D02*
X102291000Y-80676000D01*
X102331000Y-74986000D02*
X102331000Y-76780000D01*
X102331000Y-78860000D02*
X102331000Y-80654000D01*
X102371000Y-75008000D02*
X102371000Y-76780000D01*
X102371000Y-78860000D02*
X102371000Y-80632000D01*
X102411000Y-75030000D02*
X102411000Y-76780000D01*
X102411000Y-78860000D02*
X102411000Y-80610000D01*
X102451000Y-75054000D02*
X102451000Y-76780000D01*
X102451000Y-78860000D02*
X102451000Y-80586000D01*
X102491000Y-75078000D02*
X102491000Y-76780000D01*
X102491000Y-78860000D02*
X102491000Y-80562000D01*
X102531000Y-75104000D02*
X102531000Y-76780000D01*
X102531000Y-78860000D02*
X102531000Y-80536000D01*
X102571000Y-75130000D02*
X102571000Y-76780000D01*
X102571000Y-78860000D02*
X102571000Y-80510000D01*
X102611000Y-75156000D02*
X102611000Y-76780000D01*
X102611000Y-78860000D02*
X102611000Y-80484000D01*
X102651000Y-75184000D02*
X102651000Y-76780000D01*
X102651000Y-78860000D02*
X102651000Y-80456000D01*
X102691000Y-75213000D02*
X102691000Y-76780000D01*
X102691000Y-78860000D02*
X102691000Y-80427000D01*
X102731000Y-75242000D02*
X102731000Y-76780000D01*
X102731000Y-78860000D02*
X102731000Y-80398000D01*
X102771000Y-75272000D02*
X102771000Y-76780000D01*
X102771000Y-78860000D02*
X102771000Y-80368000D01*
X102811000Y-75304000D02*
X102811000Y-76780000D01*
X102811000Y-78860000D02*
X102811000Y-80336000D01*
X102851000Y-75336000D02*
X102851000Y-76780000D01*
X102851000Y-78860000D02*
X102851000Y-80304000D01*
X102891000Y-75370000D02*
X102891000Y-76780000D01*
X102891000Y-78860000D02*
X102891000Y-80270000D01*
X102931000Y-75404000D02*
X102931000Y-76780000D01*
X102931000Y-78860000D02*
X102931000Y-80236000D01*
X102971000Y-75440000D02*
X102971000Y-76780000D01*
X102971000Y-78860000D02*
X102971000Y-80200000D01*
X103011000Y-75477000D02*
X103011000Y-76780000D01*
X103011000Y-78860000D02*
X103011000Y-80163000D01*
X103051000Y-75515000D02*
X103051000Y-76780000D01*
X103051000Y-78860000D02*
X103051000Y-80125000D01*
X103091000Y-75555000D02*
X103091000Y-80085000D01*
X103131000Y-75596000D02*
X103131000Y-80044000D01*
X103171000Y-75638000D02*
X103171000Y-80002000D01*
X103211000Y-75683000D02*
X103211000Y-79957000D01*
X103251000Y-75728000D02*
X103251000Y-79912000D01*
X103291000Y-75776000D02*
X103291000Y-79864000D01*
X103331000Y-75825000D02*
X103331000Y-79815000D01*
X103371000Y-75876000D02*
X103371000Y-79764000D01*
X103411000Y-75930000D02*
X103411000Y-79710000D01*
X103451000Y-75986000D02*
X103451000Y-79654000D01*
X103491000Y-76044000D02*
X103491000Y-79596000D01*
X103531000Y-76106000D02*
X103531000Y-79534000D01*
X103571000Y-76170000D02*
X103571000Y-79470000D01*
X103611000Y-76239000D02*
X103611000Y-79401000D01*
X103651000Y-76311000D02*
X103651000Y-79329000D01*
X103691000Y-76388000D02*
X103691000Y-79252000D01*
X103731000Y-76470000D02*
X103731000Y-79170000D01*
X103771000Y-76558000D02*
X103771000Y-79082000D01*
X103811000Y-76655000D02*
X103811000Y-78985000D01*
X103851000Y-76761000D02*
X103851000Y-78879000D01*
X103891000Y-76880000D02*
X103891000Y-78760000D01*
X103931000Y-77018000D02*
X103931000Y-78622000D01*
X103971000Y-77187000D02*
X103971000Y-78453000D01*
X104011000Y-77418000D02*
X104011000Y-78222000D01*
X104040000Y-77820000D02*
G75*
G03*
X104040000Y-77820000I-3270000J0D01*
G01*
%TO.C,R7*%
X150920000Y-129040000D02*
X149810000Y-129040000D01*
X149810000Y-130960000D02*
X149810000Y-127120000D01*
X149810000Y-127120000D02*
X139670000Y-127120000D01*
X139670000Y-130960000D02*
X149810000Y-130960000D01*
X139670000Y-127120000D02*
X139670000Y-130960000D01*
X138560000Y-129040000D02*
X139670000Y-129040000D01*
%TO.C,C14*%
X148450000Y-83360000D02*
X148765000Y-83360000D01*
X148450000Y-83360000D02*
X148450000Y-78120000D01*
X150875000Y-83360000D02*
X151190000Y-83360000D01*
X151190000Y-83360000D02*
X151190000Y-78120000D01*
X148450000Y-78120000D02*
X148765000Y-78120000D01*
X150875000Y-78120000D02*
X151190000Y-78120000D01*
%TD*%
M02*
